<svg width="35" height="35" viewBox="0 0 35 35" fill="none" xmlns="http://www.w3.org/2000/svg">
<g clip-path="url(#clip0)">
<path d="M19.25 15.75H26.25V19.25H19.25V26.25H15.75V19.25H8.75V15.75H15.75V8.75H19.25V15.75ZM17.5 35C12.8587 35 8.40752 33.1563 5.12563 29.8744C1.84374 26.5925 0 22.1413 0 17.5C0 12.8587 1.84374 8.40752 5.12563 5.12563C8.40752 1.84374 12.8587 0 17.5 0C22.1413 0 26.5925 1.84374 29.8744 5.12563C33.1563 8.40752 35 12.8587 35 17.5C35 22.1413 33.1563 26.5925 29.8744 29.8744C26.5925 33.1563 22.1413 35 17.5 35ZM17.5 31.5C21.213 31.5 24.774 30.025 27.3995 27.3995C30.025 24.774 31.5 21.213 31.5 17.5C31.5 13.787 30.025 10.226 27.3995 7.60051C24.774 4.975 21.213 3.5 17.5 3.5C13.787 3.5 10.226 4.975 7.60051 7.60051C4.975 10.226 3.5 13.787 3.5 17.5C3.5 21.213 4.975 24.774 7.60051 27.3995C10.226 30.025 13.787 31.5 17.5 31.5V31.5Z" fill="#606F7B"/>
</g>
<defs>
<clipPath id="clip0">
<rect width="35" height="35" fill="white"/>
</clipPath>
</defs>
</svg>
