<svg width="72" height="17" viewBox="0 0 72 17" fill="none" xmlns="http://www.w3.org/2000/svg">
<rect width="72" height="17" rx="8.5" fill="#3490DC"/>
<path d="M7.99023 13V4.46875H10.7793C11.7051 4.46875 12.4004 4.66016 12.8652 5.04297C13.334 5.42578 13.5684 5.99219 13.5684 6.74219C13.5684 7.14062 13.4551 7.49414 13.2285 7.80273C13.002 8.10742 12.6934 8.34375 12.3027 8.51172C12.7637 8.64062 13.127 8.88672 13.3926 9.25C13.6621 9.60938 13.7969 10.0391 13.7969 10.5391C13.7969 11.3047 13.5488 11.9062 13.0527 12.3438C12.5566 12.7812 11.8555 13 10.9492 13H7.99023ZM9.11523 9.00977V12.0801H10.9727C11.4961 12.0801 11.9082 11.9453 12.209 11.6758C12.5137 11.4023 12.666 11.0273 12.666 10.5508C12.666 9.52344 12.1074 9.00977 10.9902 9.00977H9.11523ZM9.11523 8.10742H10.8145C11.3066 8.10742 11.6992 7.98438 11.9922 7.73828C12.2891 7.49219 12.4375 7.1582 12.4375 6.73633C12.4375 6.26758 12.3008 5.92773 12.0273 5.7168C11.7539 5.50195 11.3379 5.39453 10.7793 5.39453H9.11523V8.10742ZM19.2109 12.373C18.7891 12.8691 18.1699 13.1172 17.3535 13.1172C16.6777 13.1172 16.1621 12.9219 15.8066 12.5312C15.4551 12.1367 15.2773 11.5547 15.2734 10.7852V6.66016H16.3574V10.7559C16.3574 11.7168 16.748 12.1973 17.5293 12.1973C18.3574 12.1973 18.9082 11.8887 19.1816 11.2715V6.66016H20.2656V13H19.2344L19.2109 12.373ZM23.0957 13H22.0117V6.66016H23.0957V13ZM21.9238 4.97852C21.9238 4.80273 21.9766 4.6543 22.082 4.5332C22.1914 4.41211 22.3516 4.35156 22.5625 4.35156C22.7734 4.35156 22.9336 4.41211 23.043 4.5332C23.1523 4.6543 23.207 4.80273 23.207 4.97852C23.207 5.1543 23.1523 5.30078 23.043 5.41797C22.9336 5.53516 22.7734 5.59375 22.5625 5.59375C22.3516 5.59375 22.1914 5.53516 22.082 5.41797C21.9766 5.30078 21.9238 5.1543 21.9238 4.97852ZM26.0137 13H24.9297V4H26.0137V13ZM27.4902 9.77734C27.4902 8.80469 27.7207 8.02344 28.1816 7.43359C28.6426 6.83984 29.2461 6.54297 29.9922 6.54297C30.7344 6.54297 31.3223 6.79688 31.7559 7.30469V4H32.8398V13H31.8438L31.791 12.3203C31.3574 12.8516 30.7539 13.1172 29.9805 13.1172C29.2461 13.1172 28.6465 12.8164 28.1816 12.2148C27.7207 11.6133 27.4902 10.8281 27.4902 9.85938V9.77734ZM28.5742 9.90039C28.5742 10.6191 28.7227 11.1816 29.0195 11.5879C29.3164 11.9941 29.7266 12.1973 30.25 12.1973C30.9375 12.1973 31.4395 11.8887 31.7559 11.2715V8.35938C31.4316 7.76172 30.9336 7.46289 30.2617 7.46289C29.7305 7.46289 29.3164 7.66797 29.0195 8.07812C28.7227 8.48828 28.5742 9.0957 28.5742 9.90039ZM35.7051 13H34.6211V6.66016H35.7051V13ZM34.5332 4.97852C34.5332 4.80273 34.5859 4.6543 34.6914 4.5332C34.8008 4.41211 34.9609 4.35156 35.1719 4.35156C35.3828 4.35156 35.543 4.41211 35.6523 4.5332C35.7617 4.6543 35.8164 4.80273 35.8164 4.97852C35.8164 5.1543 35.7617 5.30078 35.6523 5.41797C35.543 5.53516 35.3828 5.59375 35.1719 5.59375C34.9609 5.59375 34.8008 5.53516 34.6914 5.41797C34.5859 5.30078 34.5332 5.1543 34.5332 4.97852ZM38.4707 6.66016L38.5059 7.45703C38.9902 6.84766 39.623 6.54297 40.4043 6.54297C41.7441 6.54297 42.4199 7.29883 42.4316 8.81055V13H41.3477V8.80469C41.3438 8.34766 41.2383 8.00977 41.0312 7.79102C40.8281 7.57227 40.5098 7.46289 40.0762 7.46289C39.7246 7.46289 39.416 7.55664 39.1504 7.74414C38.8848 7.93164 38.6777 8.17773 38.5293 8.48242V13H37.4453V6.66016H38.4707ZM43.8086 9.77734C43.8086 8.78906 44.0371 8.00391 44.4941 7.42188C44.9512 6.83594 45.5566 6.54297 46.3105 6.54297C47.084 6.54297 47.6875 6.81641 48.1211 7.36328L48.1738 6.66016H49.1641V12.8477C49.1641 13.668 48.9199 14.3145 48.4316 14.7871C47.9473 15.2598 47.2949 15.4961 46.4746 15.4961C46.0176 15.4961 45.5703 15.3984 45.1328 15.2031C44.6953 15.0078 44.3613 14.7402 44.1309 14.4004L44.6934 13.75C45.1582 14.3242 45.7266 14.6113 46.3984 14.6113C46.9258 14.6113 47.3359 14.4629 47.6289 14.166C47.9258 13.8691 48.0742 13.4512 48.0742 12.9121V12.3672C47.6406 12.8672 47.0488 13.1172 46.2988 13.1172C45.5566 13.1172 44.9551 12.8184 44.4941 12.2207C44.0371 11.623 43.8086 10.8086 43.8086 9.77734ZM44.8984 9.90039C44.8984 10.6152 45.0449 11.1777 45.3379 11.5879C45.6309 11.9941 46.041 12.1973 46.5684 12.1973C47.252 12.1973 47.7539 11.8867 48.0742 11.2656V8.37109C47.7422 7.76562 47.2441 7.46289 46.5801 7.46289C46.0527 7.46289 45.6406 7.66797 45.3438 8.07812C45.0469 8.48828 44.8984 9.0957 44.8984 9.90039Z" fill="white"/>
<path d="M57 13C56.9995 12.3372 57.1872 11.6879 57.5412 11.1276C57.8953 10.5673 58.4012 10.1191 59 9.835V8.165C58.4012 7.88095 57.8953 7.4327 57.5412 6.8724C57.1872 6.3121 56.9995 5.66279 57 5H56V4H65V5H64C64.0005 5.66279 63.8128 6.3121 63.4588 6.8724C63.1047 7.4327 62.5988 7.88095 62 8.165V9.835C62.5988 10.1191 63.1047 10.5673 63.4588 11.1276C63.8128 11.6879 64.0005 12.3372 64 13H65V14H56V13H57ZM58 5C57.9999 5.57633 58.1989 6.13499 58.5633 6.58145C58.9278 7.02791 59.4353 7.33473 60 7.45V9H61V7.45C61.5647 7.33473 62.0722 7.02791 62.4367 6.58145C62.8011 6.13499 63.0001 5.57633 63 5H58Z" fill="white"/>
</svg>
