<svg width="54" height="17" viewBox="0 0 54 17" fill="none" xmlns="http://www.w3.org/2000/svg">
<rect width="54" height="17" rx="8.5" fill="#51D88A"/>
<path d="M7.99023 13V4.46875H10.7793C11.7051 4.46875 12.4004 4.66016 12.8652 5.04297C13.334 5.42578 13.5684 5.99219 13.5684 6.74219C13.5684 7.14062 13.4551 7.49414 13.2285 7.80273C13.002 8.10742 12.6934 8.34375 12.3027 8.51172C12.7637 8.64062 13.127 8.88672 13.3926 9.25C13.6621 9.60938 13.7969 10.0391 13.7969 10.5391C13.7969 11.3047 13.5488 11.9062 13.0527 12.3438C12.5566 12.7812 11.8555 13 10.9492 13H7.99023ZM9.11523 9.00977V12.0801H10.9727C11.4961 12.0801 11.9082 11.9453 12.209 11.6758C12.5137 11.4023 12.666 11.0273 12.666 10.5508C12.666 9.52344 12.1074 9.00977 10.9902 9.00977H9.11523ZM9.11523 8.10742H10.8145C11.3066 8.10742 11.6992 7.98438 11.9922 7.73828C12.2891 7.49219 12.4375 7.1582 12.4375 6.73633C12.4375 6.26758 12.3008 5.92773 12.0273 5.7168C11.7539 5.50195 11.3379 5.39453 10.7793 5.39453H9.11523V8.10742ZM19.2109 12.373C18.7891 12.8691 18.1699 13.1172 17.3535 13.1172C16.6777 13.1172 16.1621 12.9219 15.8066 12.5312C15.4551 12.1367 15.2773 11.5547 15.2734 10.7852V6.66016H16.3574V10.7559C16.3574 11.7168 16.748 12.1973 17.5293 12.1973C18.3574 12.1973 18.9082 11.8887 19.1816 11.2715V6.66016H20.2656V13H19.2344L19.2109 12.373ZM23.0957 13H22.0117V6.66016H23.0957V13ZM21.9238 4.97852C21.9238 4.80273 21.9766 4.6543 22.082 4.5332C22.1914 4.41211 22.3516 4.35156 22.5625 4.35156C22.7734 4.35156 22.9336 4.41211 23.043 4.5332C23.1523 4.6543 23.207 4.80273 23.207 4.97852C23.207 5.1543 23.1523 5.30078 23.043 5.41797C22.9336 5.53516 22.7734 5.59375 22.5625 5.59375C22.3516 5.59375 22.1914 5.53516 22.082 5.41797C21.9766 5.30078 21.9238 5.1543 21.9238 4.97852ZM26.0137 13H24.9297V4H26.0137V13ZM29.2246 5.125V6.66016H30.4082V7.49805H29.2246V11.4297C29.2246 11.6836 29.2773 11.875 29.3828 12.0039C29.4883 12.1289 29.668 12.1914 29.9219 12.1914C30.0469 12.1914 30.2188 12.168 30.4375 12.1211V13C30.1523 13.0781 29.875 13.1172 29.6055 13.1172C29.1211 13.1172 28.7559 12.9707 28.5098 12.6777C28.2637 12.3848 28.1406 11.9688 28.1406 11.4297V7.49805H26.9863V6.66016H28.1406V5.125H29.2246Z" fill="white"/>
<path d="M35 8.59999L36.2 7.39999L39.2 10.4L45.8 3.79999L47 4.99999L39.2 12.8L35 8.59999Z" fill="white"/>
</svg>
