<svg width="500" height="318" viewBox="0 0 500 318" fill="none" xmlns="http://www.w3.org/2000/svg">
<g clip-path="url(#clip0)">
<path d="M424.5 318.149C457.913 318.149 485 314.792 485 310.649C485 306.507 457.913 303.149 424.5 303.149C391.087 303.149 364 306.507 364 310.649C364 314.792 391.087 318.149 424.5 318.149Z" fill="#E6E6E6"/>
<path d="M424.5 318.149C457.913 318.149 485 314.792 485 310.649C485 306.507 457.913 303.149 424.5 303.149C391.087 303.149 364 306.507 364 310.649C364 314.792 391.087 318.149 424.5 318.149Z" fill="#E6E6E6"/>
<path d="M450.323 182.92L444.793 198.346C444.374 199.515 444.372 200.793 444.787 201.964C445.203 203.134 446.01 204.125 447.072 204.769V204.769C447.845 205.237 448.723 205.504 449.626 205.543C450.529 205.583 451.428 205.395 452.239 204.996C453.05 204.597 453.748 204 454.268 203.261C454.788 202.521 455.113 201.663 455.214 200.764L456.969 185.135L470.261 141.2L458.815 135.662L450.323 182.92Z" fill="#A0616A"/>
<path d="M445.708 299.405H453.831V220.395L435.37 220.026L445.708 299.405Z" fill="#A0616A"/>
<path d="M409.526 299.405H417.648V220.395L399.188 220.026L409.526 299.405Z" fill="#A0616A"/>
<path d="M455.123 228.702L434.078 226.487L429.648 203.227L421.525 226.856L396.419 224.271L406.757 185.135C425.654 172.295 443.602 172.575 460.661 185.135L455.123 228.702Z" fill="#2F2E41"/>
<path d="M419.442 302.77C419.568 303.773 419.461 304.791 419.131 305.745C418.8 306.7 418.255 307.566 417.537 308.277C416.819 308.987 415.947 309.524 414.989 309.844C414.031 310.164 413.012 310.26 412.011 310.125L397.047 308.095C395.709 307.886 394.508 307.155 393.709 306.062C392.909 304.969 392.575 303.603 392.781 302.265C392.967 301.057 393.579 299.956 394.506 299.161C395.433 298.366 396.614 297.928 397.836 297.928H400.303L408.42 290.533C408.5 295.57 412.21 294.452 418.341 293.96L419.442 302.77Z" fill="#2F2E41"/>
<path d="M455.625 302.77C455.75 303.773 455.643 304.791 455.313 305.745C454.983 306.7 454.438 307.566 453.719 308.277C453.001 308.987 452.13 309.524 451.171 309.844C450.213 310.164 449.194 310.26 448.193 310.125L433.23 308.095C431.891 307.886 430.691 307.155 429.891 306.062C429.091 304.969 428.758 303.603 428.964 302.265V302.265C429.15 301.057 429.761 299.956 430.688 299.161C431.616 298.366 432.797 297.928 434.018 297.928H436.485L444.603 290.533C444.683 295.57 448.392 294.452 454.524 293.96L455.625 302.77Z" fill="#2F2E41"/>
<path d="M426.787 94.3103C433.974 94.3103 439.801 88.4835 439.801 81.2957C439.801 74.108 433.974 68.2811 426.787 68.2811C419.599 68.2811 413.772 74.108 413.772 81.2957C413.772 88.4835 419.599 94.3103 426.787 94.3103Z" fill="#A0616A"/>
<path d="M443.309 103.171L427.063 104.648V90.2489L435.555 85.0802L443.309 103.171Z" fill="#A0616A"/>
<path d="M462.507 190.674C446.164 178.706 426.54 179.922 404.911 189.197C414.711 161.455 418.885 135.6 411.188 113.728C411.188 109.863 412.474 106.109 414.844 103.056C417.214 100.004 420.532 97.8271 424.276 96.8694L427.063 96.1564L440.724 96.8948L453.552 104.415C456.168 105.948 458.34 108.136 459.853 110.764C461.367 113.392 462.17 116.368 462.183 119.401L462.507 190.674Z" fill="#CCCCCC"/>
<path d="M399.373 179.966L393.843 195.392C393.424 196.561 393.422 197.839 393.837 199.01C394.252 200.18 395.059 201.171 396.121 201.815C396.894 202.284 397.773 202.55 398.676 202.59C399.579 202.629 400.477 202.441 401.289 202.042C402.1 201.643 402.797 201.046 403.317 200.307C403.837 199.567 404.163 198.709 404.264 197.811L406.019 182.182L419.31 138.246L407.865 132.708L399.373 179.966Z" fill="#A0616A"/>
<path d="M473.214 149.692H455.123V105.387C458.252 107.125 460.971 109.516 463.094 112.397C465.218 115.278 466.696 118.583 467.43 122.086L473.214 149.692Z" fill="#CCCCCC"/>
<path d="M416.864 74.2491C416.069 74.6247 415.193 74.7965 414.314 74.749C413.436 74.7015 412.584 74.4362 411.834 73.977C411.1 73.4922 410.546 72.7796 410.257 71.949C409.968 71.1184 409.96 70.2158 410.234 69.3803C410.783 67.9693 412.172 67.0858 413.519 66.3955C416.491 64.8738 419.676 63.8098 422.966 63.2396C424.535 62.9682 426.196 62.819 427.679 63.3988C428.412 63.6857 429.07 64.1401 429.798 64.4405C431.137 64.9928 432.631 64.9952 434.048 65.2948C435.498 65.6117 436.864 66.2364 438.052 67.1267C439.241 68.0171 440.224 69.1523 440.936 70.4556C441.402 71.3424 441.76 72.282 442.002 73.2543C442.684 75.9142 442.675 78.7044 441.976 81.3599C440.861 85.5666 438.025 89.4318 438.28 93.7761C436.183 92.5549 435.201 90.0686 433.45 88.3886C432.148 87.1475 430.464 86.3846 428.672 86.2245C428.183 86.2439 427.698 86.1205 427.277 85.8694C426.972 85.5711 426.761 85.1896 426.67 84.7724L424.698 78.5932C424.296 77.3356 423.811 75.9693 422.676 75.2947C421.976 74.9403 421.204 74.7526 420.42 74.7463C418.543 74.6097 416.658 74.6274 414.785 74.7993" fill="#2F2E41"/>
<path d="M421.156 141.569L400.111 133.446L409.668 107.695C410.781 104.696 412.736 102.082 415.297 100.167C417.859 98.2509 420.919 97.1148 424.11 96.8948L421.156 141.569Z" fill="#CCCCCC"/>
<path d="M274.179 237H4.82143C3.54313 236.999 2.3176 236.602 1.4137 235.896C0.509814 235.19 0.00139531 234.233 0 233.234V3.76589C0.00139531 2.76745 0.509814 1.81021 1.4137 1.10421C2.3176 0.398202 3.54313 0.00108984 4.82143 0H274.179C275.457 0.00108984 276.682 0.398202 277.586 1.10421C278.49 1.81021 278.999 2.76745 279 3.76589V233.234C278.999 234.233 278.49 235.19 277.586 235.896C276.682 236.602 275.457 236.999 274.179 237ZM4.82143 1.50636C4.05445 1.50701 3.31913 1.74528 2.77679 2.16888C2.23446 2.59248 1.92941 3.16683 1.92857 3.76589V233.234C1.92941 233.833 2.23446 234.408 2.77679 234.831C3.31913 235.255 4.05445 235.493 4.82143 235.494H139.5H274.179C274.946 235.493 275.681 235.255 276.223 234.831C276.766 234.408 277.071 233.833 277.071 233.234V3.76589C277.071 3.16682 276.766 2.59248 276.223 2.16888C275.681 1.74528 274.946 1.50701 274.179 1.50636H4.82143Z" fill="#E6E6E6"/>
<path d="M60.2598 109.734C63.7645 109.734 66.6057 106.892 66.6057 103.388C66.6057 99.883 63.7645 97.0419 60.2598 97.0419C56.7551 97.0419 53.9139 99.883 53.9139 103.388C53.9139 106.892 56.7551 109.734 60.2598 109.734Z" fill="#E6E6E6"/>
<path d="M86.701 109.734C90.2057 109.734 93.0468 106.892 93.0468 103.388C93.0468 99.883 90.2057 97.0419 86.701 97.0419C83.1962 97.0419 80.3551 99.883 80.3551 103.388C80.3551 106.892 83.1962 109.734 86.701 109.734Z" fill="#E6E6E6"/>
<path d="M113.142 109.734C116.647 109.734 119.488 106.892 119.488 103.388C119.488 99.883 116.647 97.0419 113.142 97.0419C109.637 97.0419 106.796 99.883 106.796 103.388C106.796 106.892 109.637 109.734 113.142 109.734Z" fill="#48BB78"/>
<path d="M139.583 109.734C143.088 109.734 145.929 106.892 145.929 103.388C145.929 99.883 143.088 97.0419 139.583 97.0419C136.078 97.0419 133.237 99.883 133.237 103.388C133.237 106.892 136.078 109.734 139.583 109.734Z" fill="#48BB78"/>
<path d="M166.024 109.734C169.529 109.734 172.37 106.892 172.37 103.388C172.37 99.883 169.529 97.0419 166.024 97.0419C162.52 97.0419 159.678 99.883 159.678 103.388C159.678 106.892 162.52 109.734 166.024 109.734Z" fill="#48BB78"/>
<path d="M192.465 109.734C195.97 109.734 198.811 106.892 198.811 103.388C198.811 99.883 195.97 97.0419 192.465 97.0419C188.961 97.0419 186.12 99.883 186.12 103.388C186.12 106.892 188.961 109.734 192.465 109.734Z" fill="#E6E6E6"/>
<path d="M218.907 109.734C222.411 109.734 225.253 106.892 225.253 103.388C225.253 99.883 222.411 97.0419 218.907 97.0419C215.402 97.0419 212.561 99.883 212.561 103.388C212.561 106.892 215.402 109.734 218.907 109.734Z" fill="#48BB78"/>
<path d="M60.2598 129.829C63.7645 129.829 66.6057 126.988 66.6057 123.483C66.6057 119.978 63.7645 117.137 60.2598 117.137C56.7551 117.137 53.9139 119.978 53.9139 123.483C53.9139 126.988 56.7551 129.829 60.2598 129.829Z" fill="#E6E6E6"/>
<path d="M86.701 129.829C90.2057 129.829 93.0468 126.988 93.0468 123.483C93.0468 119.978 90.2057 117.137 86.701 117.137C83.1962 117.137 80.3551 119.978 80.3551 123.483C80.3551 126.988 83.1962 129.829 86.701 129.829Z" fill="#E6E6E6"/>
<path d="M113.142 129.829C116.647 129.829 119.488 126.988 119.488 123.483C119.488 119.978 116.647 117.137 113.142 117.137C109.637 117.137 106.796 119.978 106.796 123.483C106.796 126.988 109.637 129.829 113.142 129.829Z" fill="#E6E6E6"/>
<path d="M139.583 129.829C143.088 129.829 145.929 126.988 145.929 123.483C145.929 119.978 143.088 117.137 139.583 117.137C136.078 117.137 133.237 119.978 133.237 123.483C133.237 126.988 136.078 129.829 139.583 129.829Z" fill="#E6E6E6"/>
<path d="M166.024 129.829C169.529 129.829 172.37 126.988 172.37 123.483C172.37 119.978 169.529 117.137 166.024 117.137C162.52 117.137 159.678 119.978 159.678 123.483C159.678 126.988 162.52 129.829 166.024 129.829Z" fill="#E6E6E6"/>
<path d="M192.465 129.829C195.97 129.829 198.811 126.988 198.811 123.483C198.811 119.978 195.97 117.137 192.465 117.137C188.961 117.137 186.12 119.978 186.12 123.483C186.12 126.988 188.961 129.829 192.465 129.829Z" fill="#E6E6E6"/>
<path d="M218.907 129.829C222.411 129.829 225.253 126.988 225.253 123.483C225.253 119.978 222.411 117.137 218.907 117.137C215.402 117.137 212.561 119.978 212.561 123.483C212.561 126.988 215.402 129.829 218.907 129.829Z" fill="#E6E6E6"/>
<path d="M60.2598 149.924C63.7645 149.924 66.6057 147.083 66.6057 143.578C66.6057 140.074 63.7645 137.232 60.2598 137.232C56.7551 137.232 53.9139 140.074 53.9139 143.578C53.9139 147.083 56.7551 149.924 60.2598 149.924Z" fill="#48BB78"/>
<path d="M86.701 149.924C90.2057 149.924 93.0468 147.083 93.0468 143.578C93.0468 140.074 90.2057 137.232 86.701 137.232C83.1962 137.232 80.3551 140.074 80.3551 143.578C80.3551 147.083 83.1962 149.924 86.701 149.924Z" fill="#48BB78"/>
<path d="M113.142 149.924C116.647 149.924 119.488 147.083 119.488 143.578C119.488 140.074 116.647 137.232 113.142 137.232C109.637 137.232 106.796 140.074 106.796 143.578C106.796 147.083 109.637 149.924 113.142 149.924Z" fill="#48BB78"/>
<path d="M139.583 149.924C143.088 149.924 145.929 147.083 145.929 143.578C145.929 140.074 143.088 137.232 139.583 137.232C136.078 137.232 133.237 140.074 133.237 143.578C133.237 147.083 136.078 149.924 139.583 149.924Z" fill="#E6E6E6"/>
<path d="M166.024 149.924C169.529 149.924 172.37 147.083 172.37 143.578C172.37 140.074 169.529 137.232 166.024 137.232C162.52 137.232 159.678 140.074 159.678 143.578C159.678 147.083 162.52 149.924 166.024 149.924Z" fill="#E6E6E6"/>
<path d="M192.465 149.924C195.97 149.924 198.811 147.083 198.811 143.578C198.811 140.074 195.97 137.232 192.465 137.232C188.961 137.232 186.12 140.074 186.12 143.578C186.12 147.083 188.961 149.924 192.465 149.924Z" fill="#E6E6E6"/>
<path d="M218.907 149.924C222.411 149.924 225.253 147.083 225.253 143.578C225.253 140.074 222.411 137.232 218.907 137.232C215.402 137.232 212.561 140.074 212.561 143.578C212.561 147.083 215.402 149.924 218.907 149.924Z" fill="#E6E6E6"/>
<path d="M60.2598 170.019C63.7645 170.019 66.6057 167.178 66.6057 163.674C66.6057 160.169 63.7645 157.328 60.2598 157.328C56.7551 157.328 53.9139 160.169 53.9139 163.674C53.9139 167.178 56.7551 170.019 60.2598 170.019Z" fill="#E6E6E6"/>
<path d="M86.701 170.019C90.2057 170.019 93.0468 167.178 93.0468 163.674C93.0468 160.169 90.2057 157.328 86.701 157.328C83.1962 157.328 80.3551 160.169 80.3551 163.674C80.3551 167.178 83.1962 170.019 86.701 170.019Z" fill="#E6E6E6"/>
<path d="M60.2598 190.115C63.7645 190.115 66.6057 187.274 66.6057 183.769C66.6057 180.264 63.7645 177.423 60.2598 177.423C56.7551 177.423 53.9139 180.264 53.9139 183.769C53.9139 187.274 56.7551 190.115 60.2598 190.115Z" fill="#E6E6E6"/>
<path d="M86.701 190.115C90.2057 190.115 93.0468 187.274 93.0468 183.769C93.0468 180.264 90.2057 177.423 86.701 177.423C83.1962 177.423 80.3551 180.264 80.3551 183.769C80.3551 187.274 83.1962 190.115 86.701 190.115Z" fill="#E6E6E6"/>
<path d="M113.142 190.115C116.647 190.115 119.488 187.274 119.488 183.769C119.488 180.264 116.647 177.423 113.142 177.423C109.637 177.423 106.796 180.264 106.796 183.769C106.796 187.274 109.637 190.115 113.142 190.115Z" fill="#E6E6E6"/>
<path d="M113.142 170.019C116.647 170.019 119.488 167.178 119.488 163.674C119.488 160.169 116.647 157.328 113.142 157.328C109.637 157.328 106.796 160.169 106.796 163.674C106.796 167.178 109.637 170.019 113.142 170.019Z" fill="#E6E6E6"/>
<path d="M139.583 170.019C143.088 170.019 145.929 167.178 145.929 163.674C145.929 160.169 143.088 157.328 139.583 157.328C136.078 157.328 133.237 160.169 133.237 163.674C133.237 167.178 136.078 170.019 139.583 170.019Z" fill="#48BB78"/>
<path d="M166.024 170.019C169.529 170.019 172.37 167.178 172.37 163.674C172.37 160.169 169.529 157.328 166.024 157.328C162.52 157.328 159.678 160.169 159.678 163.674C159.678 167.178 162.52 170.019 166.024 170.019Z" fill="#48BB78"/>
<path d="M192.465 170.019C195.97 170.019 198.811 167.178 198.811 163.674C198.811 160.169 195.97 157.328 192.465 157.328C188.961 157.328 186.12 160.169 186.12 163.674C186.12 167.178 188.961 170.019 192.465 170.019Z" fill="#48BB78"/>
<path d="M218.907 170.019C222.411 170.019 225.253 167.178 225.253 163.674C225.253 160.169 222.411 157.328 218.907 157.328C215.402 157.328 212.561 160.169 212.561 163.674C212.561 167.178 215.402 170.019 218.907 170.019Z" fill="#E6E6E6"/>
<path d="M91.5452 47.2952C90.5394 47.3118 89.5804 47.7229 88.875 48.44C88.1696 49.1571 87.7743 50.1228 87.7743 51.1287C87.7743 52.1346 88.1696 53.1002 88.875 53.8173C89.5804 54.5344 90.5394 54.9456 91.5452 54.9621H187.662C188.166 54.9709 188.666 54.8804 189.135 54.6956C189.604 54.5109 190.031 54.2355 190.394 53.8854C190.756 53.5352 191.046 53.1171 191.246 52.6549C191.447 52.1926 191.554 51.6954 191.563 51.1917C191.571 50.6879 191.48 50.1874 191.294 49.7189C191.109 49.2504 190.833 48.8229 190.483 48.4611C190.132 48.0992 189.714 47.81 189.251 47.6099C188.789 47.4099 188.292 47.3029 187.788 47.2952C187.746 47.2945 187.704 47.2945 187.662 47.2952H91.5452Z" fill="#3F3D56"/>
<path d="M209.459 46.2278C209.389 46.2978 209.333 46.381 209.295 46.4725C209.257 46.564 209.238 46.6621 209.238 46.7612C209.238 46.8602 209.257 46.9583 209.295 47.0499C209.333 47.1414 209.389 47.2245 209.459 47.2946L212.697 50.5329H204.712C204.512 50.5329 204.32 50.6123 204.178 50.7538C204.037 50.8953 203.958 51.0872 203.958 51.2872C203.958 51.4873 204.037 51.6792 204.178 51.8206C204.32 51.9621 204.512 52.0416 204.712 52.0416H212.697L209.459 55.2799C209.389 55.3499 209.333 55.433 209.295 55.5246C209.257 55.6161 209.238 55.7142 209.238 55.8132C209.238 55.9123 209.257 56.0104 209.295 56.1019C209.333 56.1934 209.389 56.2766 209.459 56.3466C209.529 56.4167 209.612 56.4723 209.704 56.5102C209.795 56.5481 209.893 56.5676 209.992 56.5676C210.091 56.5676 210.189 56.5481 210.281 56.5102C210.372 56.4723 210.456 56.4167 210.526 56.3467L215.052 51.8206C215.193 51.6792 215.273 51.4873 215.273 51.2872C215.273 51.0872 215.193 50.8953 215.052 50.7538L210.526 46.2278C210.456 46.1577 210.372 46.1022 210.281 46.0643C210.189 46.0263 210.091 46.0068 209.992 46.0068C209.893 46.0068 209.795 46.0263 209.704 46.0643C209.612 46.1022 209.529 46.1577 209.459 46.2278Z" fill="#E6E6E6"/>
<path d="M69.7076 46.2278C69.7776 46.2978 69.8332 46.381 69.8711 46.4725C69.909 46.564 69.9285 46.6621 69.9285 46.7612C69.9285 46.8603 69.909 46.9584 69.8711 47.0499C69.8332 47.1414 69.7776 47.2246 69.7076 47.2946L66.4693 50.5329H74.4545C74.6546 50.5329 74.8465 50.6124 74.9879 50.7538C75.1294 50.8953 75.2089 51.0872 75.2089 51.2872C75.2089 51.4873 75.1294 51.6792 74.9879 51.8206C74.8465 51.9621 74.6546 52.0416 74.4545 52.0416H66.4693L69.7076 55.2799C69.849 55.4213 69.9285 55.6132 69.9285 55.8133C69.9285 56.0133 69.849 56.2052 69.7076 56.3467C69.5661 56.4881 69.3742 56.5676 69.1742 56.5676C68.9741 56.5676 68.7823 56.4881 68.6408 56.3467L64.1147 51.8206C63.9733 51.6792 63.8938 51.4873 63.8938 51.2872C63.8938 51.0872 63.9733 50.8953 64.1147 50.7538L68.6408 46.2278C68.7108 46.1577 68.794 46.1022 68.8855 46.0643C68.977 46.0263 69.0751 46.0068 69.1742 46.0068C69.2732 46.0068 69.3713 46.0263 69.4628 46.0643C69.5544 46.1022 69.6375 46.1577 69.7076 46.2278V46.2278Z" fill="#E6E6E6"/>
<path d="M218.791 270.69C230.074 278.698 243.566 283 257.399 283C273.039 282.999 288.181 277.499 300.18 267.463C312.179 257.426 320.272 243.491 323.045 228.091C325.818 212.691 323.096 196.806 315.352 183.21C307.609 169.615 295.338 159.173 280.682 153.71C280.267 153.547 279.845 153.396 279.424 153.251L279 233C279 233.835 278.59 234.91 278 235.5C277.41 236.09 275.334 237 274.5 237L268.769 237.019L263.038 237.039H256H194C194.132 237.461 194.277 237.882 194.422 238.298C198.992 251.362 207.508 262.681 218.791 270.69Z" fill="#F2F2F2"/>
</g>
<defs>
<clipPath id="clip0">
<rect width="500" height="318" fill="white"/>
</clipPath>
</defs>
</svg>
