<svg width="63" height="17" viewBox="0 0 63 17" fill="none" xmlns="http://www.w3.org/2000/svg">
<rect width="63" height="17" rx="8.5" fill="#F56565"/>
<path d="M13.6953 9.23242H10.1152V13H8.99023V4.46875H14.2754V5.39453H10.1152V8.3125H13.6953V9.23242ZM19.168 13C19.1055 12.875 19.0547 12.6523 19.0156 12.332C18.5117 12.8555 17.9102 13.1172 17.2109 13.1172C16.5859 13.1172 16.0723 12.9414 15.6699 12.5898C15.2715 12.2344 15.0723 11.7852 15.0723 11.2422C15.0723 10.582 15.3223 10.0703 15.8223 9.70703C16.3262 9.33984 17.0332 9.15625 17.9434 9.15625H18.998V8.6582C18.998 8.2793 18.8848 7.97852 18.6582 7.75586C18.4316 7.5293 18.0977 7.41602 17.6562 7.41602C17.2695 7.41602 16.9453 7.51367 16.6836 7.70898C16.4219 7.9043 16.291 8.14062 16.291 8.41797H15.2012C15.2012 8.10156 15.3125 7.79688 15.5352 7.50391C15.7617 7.20703 16.0664 6.97266 16.4492 6.80078C16.8359 6.62891 17.2598 6.54297 17.7207 6.54297C18.4512 6.54297 19.0234 6.72656 19.4375 7.09375C19.8516 7.45703 20.0664 7.95898 20.082 8.59961V11.5176C20.082 12.0996 20.1562 12.5625 20.3047 12.9062V13H19.168ZM17.3691 12.1738C17.709 12.1738 18.0312 12.0859 18.3359 11.9102C18.6406 11.7344 18.8613 11.5059 18.998 11.2246V9.92383H18.1484C16.8203 9.92383 16.1562 10.3125 16.1562 11.0898C16.1562 11.4297 16.2695 11.6953 16.4961 11.8867C16.7227 12.0781 17.0137 12.1738 17.3691 12.1738ZM22.959 13H21.875V6.66016H22.959V13ZM21.7871 4.97852C21.7871 4.80273 21.8398 4.6543 21.9453 4.5332C22.0547 4.41211 22.2148 4.35156 22.4258 4.35156C22.6367 4.35156 22.7969 4.41211 22.9062 4.5332C23.0156 4.6543 23.0703 4.80273 23.0703 4.97852C23.0703 5.1543 23.0156 5.30078 22.9062 5.41797C22.7969 5.53516 22.6367 5.59375 22.4258 5.59375C22.2148 5.59375 22.0547 5.53516 21.9453 5.41797C21.8398 5.30078 21.7871 5.1543 21.7871 4.97852ZM25.877 13H24.793V4H25.877V13ZM30.248 13.1172C29.3887 13.1172 28.6895 12.8359 28.1504 12.2734C27.6113 11.707 27.3418 10.9512 27.3418 10.0059V9.80664C27.3418 9.17773 27.4609 8.61719 27.6992 8.125C27.9414 7.62891 28.2773 7.24219 28.707 6.96484C29.1406 6.68359 29.6094 6.54297 30.1133 6.54297C30.9375 6.54297 31.5781 6.81445 32.0352 7.35742C32.4922 7.90039 32.7207 8.67773 32.7207 9.68945V10.1406H28.4258C28.4414 10.7656 28.623 11.2715 28.9707 11.6582C29.3223 12.041 29.7676 12.2324 30.3066 12.2324C30.6895 12.2324 31.0137 12.1543 31.2793 11.998C31.5449 11.8418 31.7773 11.6348 31.9766 11.377L32.6387 11.8926C32.1074 12.709 31.3105 13.1172 30.248 13.1172ZM30.1133 7.43359C29.6758 7.43359 29.3086 7.59375 29.0117 7.91406C28.7148 8.23047 28.5312 8.67578 28.4609 9.25H31.6367V9.16797C31.6055 8.61719 31.457 8.19141 31.1914 7.89062C30.9258 7.58594 30.5664 7.43359 30.1133 7.43359ZM33.7168 9.77734C33.7168 8.80469 33.9473 8.02344 34.4082 7.43359C34.8691 6.83984 35.4727 6.54297 36.2188 6.54297C36.9609 6.54297 37.5488 6.79688 37.9824 7.30469V4H39.0664V13H38.0703L38.0176 12.3203C37.584 12.8516 36.9805 13.1172 36.207 13.1172C35.4727 13.1172 34.873 12.8164 34.4082 12.2148C33.9473 11.6133 33.7168 10.8281 33.7168 9.85938V9.77734ZM34.8008 9.90039C34.8008 10.6191 34.9492 11.1816 35.2461 11.5879C35.543 11.9941 35.9531 12.1973 36.4766 12.1973C37.1641 12.1973 37.666 11.8887 37.9824 11.2715V8.35938C37.6582 7.76172 37.1602 7.46289 36.4883 7.46289C35.957 7.46289 35.543 7.66797 35.2461 8.07812C34.9492 8.48828 34.8008 9.0957 34.8008 9.90039Z" fill="white"/>
<path d="M52.65 11.445L54.035 12.83C54.1281 12.9237 54.1804 13.0504 54.1804 13.1825C54.1804 13.3146 54.1281 13.4413 54.035 13.535C53.9413 13.6281 53.8146 13.6804 53.6825 13.6804C53.5504 13.6804 53.4237 13.6281 53.33 13.535L52.035 12.245C51.6076 12.6405 51.0742 12.9029 50.5 13V8.52C50.5 8.38739 50.4473 8.26021 50.3536 8.16645C50.2598 8.07268 50.1326 8.02 50 8.02C49.8674 8.02 49.7402 8.07268 49.6464 8.16645C49.5527 8.26021 49.5 8.38739 49.5 8.52V13C48.9257 12.9032 48.3922 12.6408 47.965 12.245L46.67 13.535C46.5763 13.6281 46.4496 13.6804 46.3175 13.6804C46.1854 13.6804 46.0587 13.6281 45.965 13.535C45.8719 13.4413 45.8196 13.3146 45.8196 13.1825C45.8196 13.0504 45.8719 12.9237 45.965 12.83L47.35 11.445C47.1926 11.1499 47.0861 10.8305 47.035 10.5H45.5C45.3674 10.5 45.2402 10.4473 45.1464 10.3536C45.0527 10.2598 45 10.1326 45 10C45 9.86739 45.0527 9.74021 45.1464 9.64645C45.2402 9.55268 45.3674 9.5 45.5 9.5H47V8.205L45.465 6.67C45.3719 6.57632 45.3196 6.44959 45.3196 6.3175C45.3196 6.18541 45.3719 6.05868 45.465 5.965C45.5587 5.87187 45.6854 5.8196 45.8175 5.8196C45.9496 5.8196 46.0763 5.87187 46.17 5.965L47.22 7.015H52.78L53.83 5.965C53.9237 5.87187 54.0504 5.8196 54.1825 5.8196C54.3146 5.8196 54.4413 5.87187 54.535 5.965C54.6281 6.05868 54.6804 6.18541 54.6804 6.3175C54.6804 6.44959 54.6281 6.57632 54.535 6.67L53 8.205V9.5H54.5C54.6326 9.5 54.7598 9.55268 54.8536 9.64645C54.9473 9.74021 55 9.86739 55 10C55 10.1326 54.9473 10.2598 54.8536 10.3536C54.7598 10.4473 54.6326 10.5 54.5 10.5H52.965C52.915 10.835 52.805 11.155 52.65 11.445V11.445ZM52.5 6.5H47.5C47.5 5.83696 47.7634 5.20107 48.2322 4.73223C48.7011 4.26339 49.337 4 50 4C50.663 4 51.2989 4.26339 51.7678 4.73223C52.2366 5.20107 52.5 5.83696 52.5 6.5V6.5Z" fill="white"/>
</svg>
