<svg width="20" height="20" viewBox="0 0 20 20" fill="none" xmlns="http://www.w3.org/2000/svg">
<path d="M10 20C7.34784 20 4.8043 18.9464 2.92893 17.0711C1.05357 15.1957 0 12.6522 0 10C0 7.34784 1.05357 4.8043 2.92893 2.92893C4.8043 1.05357 7.34784 0 10 0C12.6522 0 15.1957 1.05357 17.0711 2.92893C18.9464 4.8043 20 7.34784 20 10C20 12.6522 18.9464 15.1957 17.0711 17.0711C15.1957 18.9464 12.6522 20 10 20ZM12 7C12 7.28 11.79 7.8 11.58 8L10 9.58C9.43 10.16 9 11.18 9 12V13H11V12C11 11.71 11.21 11.2 11.42 11L13 9.42C13.57 8.84 14 7.82 14 7C14 5.93913 13.5786 4.92172 12.8284 4.17157C12.0783 3.42143 11.0609 3 10 3C8.93913 3 7.92172 3.42143 7.17157 4.17157C6.42143 4.92172 6 5.93913 6 7H8C8 6.46957 8.21071 5.96086 8.58579 5.58579C8.96086 5.21071 9.46957 5 10 5C10.5304 5 11.0391 5.21071 11.4142 5.58579C11.7893 5.96086 12 6.46957 12 7V7ZM9 15V17H11V15H9Z" fill="#4A5568"/>
</svg>
