<svg width="753" height="537" viewBox="0 0 753 537" fill="none" xmlns="http://www.w3.org/2000/svg">
<g opacity="0.345889" clip-path="url(#clip0)">
<path fill-rule="evenodd" clip-rule="evenodd" d="M547.656 179.566C540.119 106.369 135.772 -34.9071 60.7068 34.4229C-14.3589 103.753 57.8074 233.867 215.117 267.186C372.427 300.505 555.192 252.762 547.656 179.566Z" fill="#F2F2F2"/>
<path fill-rule="evenodd" clip-rule="evenodd" d="M275.04 227.125C281.842 164.942 646.809 44.9223 714.564 103.821C782.319 162.719 765.169 286.606 623.18 314.912C481.191 343.217 268.238 289.308 275.04 227.125Z" fill="#DDE3E9"/>
</g>
<path fill-rule="evenodd" clip-rule="evenodd" d="M87.258 122.173C90.1225 121.823 93.1799 121.947 95.8439 123.077C101.509 125.482 103.119 132.174 103.041 137.614C102.957 143.468 101.714 149.863 106.165 154.58C108.211 156.748 110.756 158.408 112.765 160.617C114.912 162.977 116.597 165.677 117.844 168.577C120.134 173.903 121.258 180.167 119.164 185.754C117.32 190.674 112.681 195.114 113.683 200.708C114.729 206.543 120.612 211.004 124.29 215.351C128.453 220.269 132.286 226.556 132.916 233.006C133.519 239.188 130.828 245.44 126.699 250.113C118.448 259.451 106.045 264.028 93.5396 264C88.23 263.988 82.2186 263.748 77.6366 260.895C76.2204 260.013 75.4733 259.023 74.6315 257.648C73.8767 256.414 72.8796 255.612 71.7255 254.739C69.1899 252.822 67.3587 250.239 66.1901 247.347C61.6522 236.114 65.2792 222.218 71.6312 212.243C73.1364 209.88 74.3686 207.605 73.6374 204.789C72.8744 201.848 70.999 199.196 69.3403 196.669C67.7011 194.17 65.8299 191.787 64.5488 189.087C63.207 186.257 62.8292 183.294 63.0662 180.198C63.5118 174.381 66.0227 169.013 69.5777 164.336C73.0017 159.83 77.0221 155.518 77.0311 149.615C77.041 143.357 72.8577 137.791 74.6399 131.429C75.3778 128.795 76.86 126.092 79.2486 124.513C81.5393 122.998 84.5639 122.502 87.258 122.173Z" fill="#DDE3E9"/>
<path fill-rule="evenodd" clip-rule="evenodd" d="M85.3862 132.176C85.4399 131.336 86.4367 130.832 87.2215 131.051C88.2545 131.34 88.2346 132.305 88.2073 133.165C88.1237 135.808 88.5063 138.377 89.1417 140.942C90.4622 146.274 92.9027 151.186 94.8362 156.308C96.768 161.425 97.6748 166.709 96.5416 172.124C95.4732 177.23 93.7948 182.203 92.7015 187.315C91.7378 191.821 90.7123 196.573 92.1799 201.067C93.5921 205.393 96.7142 208.916 98.9625 212.825C103.617 220.918 105.681 229.896 105.957 239.135C106.085 243.425 105.97 247.755 104.975 251.963C104.402 254.386 103.632 257.66 101.556 259.333C100.599 260.105 98.961 260.371 98.1552 259.229C97.3987 258.158 98.0624 256.499 98.3025 255.357C99.3427 250.413 99.5519 245.361 99.3029 240.342C99.0619 235.48 98.4874 230.626 96.9572 225.982C95.5369 221.673 93.3792 217.802 90.8398 214.032C88.2521 210.191 85.562 206.341 84.4928 201.789C83.4065 197.166 84.289 192.462 85.4691 187.927C86.7171 183.131 88.3518 178.472 90.0417 173.805C91.6886 169.258 92.2724 164.955 91.3632 160.196C89.5672 150.794 84.7598 141.968 85.3862 132.176Z" fill="#C5CFD6"/>
<path fill-rule="evenodd" clip-rule="evenodd" d="M162.892 133.582C166.437 134.659 169.958 136.395 172.485 139.118C177.858 144.909 176.209 153.661 173.243 160.053C170.05 166.933 165.212 173.849 167.94 181.743C169.193 185.372 171.301 188.659 172.49 192.316C173.761 196.224 174.309 200.294 174.239 204.372C174.11 211.862 172.118 219.855 166.708 225.373C161.945 230.232 154.158 233.07 152.377 240.206C150.518 247.651 155.061 255.988 157.078 263.041C159.36 271.024 160.533 280.453 157.862 288.409C155.303 296.034 148.842 302.028 141.528 305.406C126.915 312.156 109.949 311.117 95.2958 304.578C89.0748 301.801 82.1506 298.391 78.2845 292.633C77.0897 290.853 76.7364 289.294 76.476 287.23C76.2426 285.378 75.4972 283.911 74.6048 282.278C72.644 278.692 71.8618 274.684 72.0198 270.656C72.6345 255.011 84.2336 240.464 96.9562 231.972C99.9708 229.96 102.618 227.912 103.249 224.2C103.909 220.325 103.111 216.213 102.501 212.361C101.899 208.554 100.964 204.763 100.889 200.902C100.811 196.858 101.933 193.157 103.848 189.619C107.445 182.972 113.227 177.93 119.87 174.247C126.267 170.7 133.262 167.692 136.393 160.715C139.712 153.32 137.747 144.561 143.2 137.964C145.458 135.233 148.625 132.807 152.262 132.182C155.749 131.583 159.558 132.57 162.892 133.582Z" fill="#DDE3E9"/>
<path fill-rule="evenodd" clip-rule="evenodd" d="M155.651 145.811C156.154 144.844 157.584 144.769 158.387 145.44C159.443 146.324 158.914 147.456 158.432 148.46C156.95 151.547 156.052 154.789 155.452 158.159C154.204 165.166 154.485 172.262 154.063 179.341C153.642 186.414 151.935 193.147 147.774 198.965C143.85 204.452 139.283 209.462 135.327 214.943C131.841 219.773 128.153 224.863 127.516 230.954C126.901 236.817 128.707 242.626 129.288 248.434C130.492 260.457 128.204 272.171 123.688 283.257C121.591 288.405 119.189 293.472 115.821 297.933C113.882 300.503 111.267 303.977 107.963 304.869C106.44 305.281 104.385 304.739 104.042 302.964C103.718 301.298 105.363 299.682 106.242 298.455C110.047 293.146 112.938 287.273 115.275 281.198C117.54 275.314 119.41 269.265 120.053 262.963C120.649 257.116 120.153 251.401 119.158 245.606C118.144 239.701 117.015 233.732 118.149 227.781C119.3 221.736 122.795 216.628 126.55 211.876C130.521 206.85 134.873 202.19 139.293 197.549C143.6 193.027 146.536 188.238 147.966 182.126C150.79 170.049 149.791 157.078 155.651 145.811Z" fill="#C5CFD6"/>
<path fill-rule="evenodd" clip-rule="evenodd" d="M53.306 178C59.2003 178 64.3823 181.124 67.9531 185.558C72.133 190.748 72.9772 197.086 74.6745 203.272C75.5191 206.35 76.9717 209.406 79.5174 211.498C81.8327 213.4 84.7721 213.78 87.5435 214.71C93.0822 216.567 97.5547 221.041 99.321 226.499C101.476 233.158 99.1934 239.873 99.5864 246.622C99.9472 252.819 106.058 256.685 110.974 259.656C115.821 262.586 120.189 265.328 121.649 271.035C123.197 277.088 123.716 283.844 121.572 289.823C118.002 299.779 107.552 304.163 97.4561 304.842C88.2932 305.459 76.7719 304.491 69.8907 297.84C65.773 293.86 64.2819 288.293 64.4669 282.755C64.5818 279.311 65.264 275.899 66.146 272.571C66.7711 270.213 67.6157 267.864 67.8563 265.427C68.4959 258.942 62.5026 257.697 57.401 255.916C50.9183 253.654 46.3799 249.38 43.224 243.425C40.285 237.881 39.0519 231.658 40.8137 225.554C41.7135 222.437 43.3456 219.61 45.559 217.205C46.5334 216.146 47.9066 215.263 48.7861 214.151C49.6069 213.112 49.4282 211.766 49.1453 210.55C47.8373 204.931 43.762 200.278 42.3045 194.668C40.9887 189.605 41.7665 183.304 46.3954 180.038C48.3953 178.627 50.8616 178.016 53.306 178Z" fill="#C5CFD6"/>
<path fill-rule="evenodd" clip-rule="evenodd" d="M61.3377 192.641C67.585 199.296 69.2831 208.325 69.7815 217.076C70.0606 221.983 69.7701 227.159 71.2118 231.919C72.4454 235.993 75.3373 239.107 78.3183 242.051C84.3188 247.975 91.0108 253.999 92.7659 262.574C93.7957 267.606 93.1006 272.804 94.5236 277.78C95.8175 282.304 98.0956 286.748 100.867 290.568C103.098 293.645 106.004 296 108.443 298.867C109.187 299.743 110.253 301.031 109.946 302.267C109.586 303.714 107.743 304.172 106.435 303.945C103.386 303.415 100.819 300.503 98.8253 298.386C95.9098 295.291 93.4323 291.962 91.4187 288.227C89.1832 284.08 87.3833 279.679 86.6142 275.026C85.8161 270.199 86.2133 265.168 84.3909 260.535C81.3242 252.74 73.886 248.14 68.5082 242.064C61.8077 234.494 62.807 225.072 63.4933 215.759C63.8703 210.641 64.2451 204.862 61.6591 200.189C60.672 198.406 58.4711 196.743 58.0467 194.715C57.6579 192.858 59.7797 190.981 61.3377 192.641Z" fill="#AFB9C5"/>
<path fill-rule="evenodd" clip-rule="evenodd" d="M68.0004 302C68.0004 340.058 74.2112 360 107 360C139.789 360 146 340.058 146 302H68.0004Z" fill="#89C5CC"/>
<rect x="203" y="247" width="38" height="9" rx="2" fill="#AFB9C5"/>
<path fill-rule="evenodd" clip-rule="evenodd" d="M220.217 174H222H223H224.783C225.301 189.419 227.707 204.085 232 218H238.5C247.06 218 254 224.94 254 233.5C254 242.06 247.06 249 238.5 249H205.5C196.94 249 190 242.06 190 233.5C190 224.94 196.94 218 205.5 218H213C219.44 197.128 220.217 174 220.217 174Z" fill="#DDE3E9"/>
<path fill-rule="evenodd" clip-rule="evenodd" d="M186.622 104.679C186.622 104.679 203.811 103 221 103C238.189 103 255.378 104.679 255.378 104.679L260 184.133C260 184.133 240.5 186 221 186C201.5 186 182 184.133 182 184.133L186.622 104.679Z" fill="#C5CFD6"/>
<path fill-rule="evenodd" clip-rule="evenodd" d="M159 360V278V256H180H263H284V278V360H263V278H180V360H159Z" fill="#F2F2F2"/>
<path fill-rule="evenodd" clip-rule="evenodd" d="M577.381 78.2082C586.214 99.1972 601.229 113.781 609.182 135.605C613.898 148.547 615.864 162.62 615.983 177.032C616.048 184.86 615.911 192.694 615.875 200.522C615.839 208.156 615.632 215.741 614.984 223.327C614.332 230.952 613.603 238.487 613.282 246.159C613.031 252.137 612.917 259.091 610.891 264.544C609.279 268.881 605.183 269.516 604.097 264.256C603.493 261.333 603.569 258.068 603.636 255.063C603.721 251.208 603.945 247.359 604.06 243.504C604.519 228.036 603.923 212.566 604.235 197.092C604.539 181.973 606.482 166.871 604.332 151.853C602.556 139.452 598.046 128.802 592.862 118.593C587.874 108.771 582.445 99.1872 579.075 88.0144C578.107 84.8056 577.359 81.4805 577 78.0301C577.157 77.9573 577.284 78.0165 577.381 78.2082Z" fill="#C1DEE2"/>
<path fill-rule="evenodd" clip-rule="evenodd" d="M574.974 119.617C576.723 120.88 577.7 122.728 578.882 124.551C580.352 126.817 582.081 128.863 583.551 131.131C586.615 135.86 589.308 140.879 592.102 145.799C597.406 155.137 601.433 165.091 603.427 175.895C605.495 187.092 606.052 198.648 606.919 210.012C607.839 222.056 608.765 234.188 608.887 246.279C608.942 251.696 609.235 257.446 608.584 262.825C608.179 266.173 606.668 269.027 603.261 269C596.025 268.942 592.627 260.927 591.208 254.354C589.119 244.674 588.702 234.393 589.033 224.494C589.432 212.558 591.504 200.802 592.4 188.912C593.35 176.325 592.814 163.96 588.486 152.109C586.3 146.12 583.763 140.274 581.484 134.325C580.514 131.792 579.719 129.19 578.409 126.831C576.951 124.208 575.142 121.826 574 119C574.324 119.206 574.649 119.411 574.974 119.617Z" fill="#89C5CC"/>
<path fill-rule="evenodd" clip-rule="evenodd" d="M658.334 94.5177C658.556 94.3452 658.778 94.1728 659 94C658.361 96.6927 657.207 98.8799 656.324 101.341C655.531 103.554 655.129 106.058 654.595 108.477C653.34 114.158 651.89 119.711 650.706 125.44C648.36 136.777 648.804 148.99 650.342 161.568C651.795 173.45 654.092 185.313 655.187 197.192C656.095 207.043 656.485 217.202 655.619 226.601C655.031 232.984 653.103 240.606 647.848 239.962C645.374 239.659 644.084 236.681 643.564 233.32C642.729 227.922 642.554 222.246 642.229 216.878C641.502 204.896 641.358 192.951 641.214 181.092C641.078 169.904 640.705 158.494 641.452 147.587C642.173 137.063 644.428 127.58 647.653 118.83C649.351 114.22 650.97 109.502 652.878 105.108C653.793 103.001 654.911 101.139 655.827 99.033C656.563 97.3392 657.148 95.6011 658.334 94.5177Z" fill="#C1DEE2"/>
<path fill-rule="evenodd" clip-rule="evenodd" d="M577.209 154.302C578.166 152.695 580.272 157.993 580.593 158.66C580.457 158.328 580.321 157.997 580.184 157.667C582.083 160.825 583.821 164.113 584.901 167.734C585.97 171.319 586.888 174.977 587.891 178.587C589.774 185.361 592.202 191.943 593.907 198.778C595.569 205.438 595.988 211.986 595.585 218.875C595.167 226.035 594.911 233.306 595.399 240.462C595.632 243.88 596.743 247.064 597.504 250.354C598.266 253.648 598.866 256.986 599.767 260.239C599.974 259.815 600 261.232 600 261.339C599.994 262.152 599.881 262.833 599.619 263.604C598.948 265.586 597.691 267.269 595.778 267.816C592.322 268.803 589.112 265.659 587.998 262.339C586.399 257.575 585.517 252.311 584.755 247.304C584.057 242.713 583.891 238.094 584.099 233.44C584.508 224.261 586.169 215.202 586.618 206.026C587.107 196.036 585.128 186.649 583.471 176.925C582.673 172.239 581.91 167.598 580.356 163.134C579.727 161.326 578.907 159.731 578.048 158.061C577.558 157.112 576.569 155.418 577.209 154.302Z" fill="#C1DEE2"/>
<path fill-rule="evenodd" clip-rule="evenodd" d="M605.252 138.697C604.856 150.142 604.172 161.5 602.646 172.824C601.089 184.38 599.3 195.897 597.802 207.463C596.343 218.722 594.815 230.168 595.018 241.585C595.168 249.993 593.774 264.219 603.113 268.369C612.572 272.572 614.601 254.623 615.222 248.699C616.412 237.333 616.027 225.847 615.449 214.419C614.856 202.689 613.866 191.02 612.64 179.334C611.277 166.353 610.208 153.314 609.349 140.296C608.925 133.857 608.82 127.429 608.937 120.988C609.048 114.911 608.817 108.77 606.656 103C606.543 103.082 606.431 103.164 606.318 103.246" fill="#69A1AC"/>
<path fill-rule="evenodd" clip-rule="evenodd" d="M654.083 174.955C652.382 177.433 650.667 179.887 649.061 182.512C646.186 187.209 643.587 192.432 642.805 199.147C641.169 213.2 642.481 228.379 642.798 242.863C642.863 245.822 642.489 248.693 643.655 251.51C644.713 254.064 646.691 256.01 648.576 256C652.611 255.977 651.995 246.095 652.002 241.746C652.014 234.123 651.159 226.422 651.233 218.806C651.306 211.26 651.765 203.694 652.859 196.528C653.967 189.275 655.589 182.309 657.729 175.81C658.026 174.908 660.158 167.937 658.144 169.139" fill="#89C5CC"/>
<path fill-rule="evenodd" clip-rule="evenodd" d="M636.262 100C633.609 100 633.625 113.226 633.546 114.925C633.257 121.055 633.325 127.188 633.143 133.319C632.744 146.701 632.254 160.2 630.243 173.426C629.161 180.547 627.907 187.636 626.557 194.702C625.204 201.789 623.387 208.867 622.497 216.044C621.642 222.943 622.125 229.977 622.242 236.91C622.359 243.885 622.57 250.874 623.484 257.788C623.709 259.494 623.974 261.195 624.257 262.891C624.492 264.305 624.355 266.058 624.754 267.401C625.393 269.552 628.133 270.256 629.978 269.92C634.97 269.009 638.159 262.74 639.865 258.16C642.043 252.311 643.199 245.967 644.339 239.804C645.631 232.821 646.388 225.732 646.743 218.623C647.466 204.175 646.539 189.712 645.504 175.31C644.928 167.301 644.263 159.327 643.246 151.367C642.232 143.441 640.932 135.55 640.086 127.601C639.471 121.825 638.865 116.04 638.467 110.241C638.371 108.859 638.291 100 636.262 100" fill="#69A1AC"/>
<path fill-rule="evenodd" clip-rule="evenodd" d="M632.941 196.139C632.508 182.253 626.927 121.259 625.657 104.467C625.339 100.264 622.282 82.7646 621.885 78C620.81 79.3467 620.901 100.309 620.913 105.126C620.926 109.891 620.335 114.576 620.031 119.315C619.721 124.151 612.572 186.601 611.645 191.247C609.799 200.491 608.564 209.976 607.611 219.428C606.683 228.639 605.24 238.358 606.482 247.618C606.767 249.75 607.219 251.848 607.955 253.806C608.749 255.922 609.294 257.879 609.932 260.093C610.958 263.659 612.815 266.789 615.668 268.262C621.517 271.281 624.658 264.447 626.251 258.497C628.793 248.995 630.426 239.338 631.191 229.359C632.037 218.318 633.287 207.255 632.941 196.139" fill="#89C5CC"/>
<rect x="571" y="237" width="91" height="91" rx="2" fill="white"/>
<rect x="561" y="247" width="10" height="113" rx="2" fill="#C5CFD6"/>
<rect x="611" y="247" width="10" height="113" rx="2" fill="#C5CFD6"/>
<rect x="662" y="247" width="10" height="113" rx="2" fill="#C5CFD6"/>
<path fill-rule="evenodd" clip-rule="evenodd" d="M199.945 151.618C207.034 155.894 213.999 157.96 217.269 157.117C225.468 155.002 226.221 124.988 219.878 113.156C213.534 101.324 180.923 96.1664 179.279 119.61C178.708 127.747 182.123 135.008 187.167 140.933L178.122 183.119H204.395L199.945 151.618Z" fill="#B28B67"/>
<path fill-rule="evenodd" clip-rule="evenodd" d="M187.974 114.105C203.135 114.213 213.684 113.574 219.721 111.914C219.445 106.772 214.104 100.959 200.016 100.959C184.342 100.959 175.933 110.101 175.933 120.678C175.933 130.34 182.148 142.108 186.88 142.587C188.106 142.319 189.152 140.841 190.193 138.804C188.244 137.856 186.88 135.62 186.88 132.728C186.88 129.948 189.33 127.25 192.353 127.25C193.456 127.25 194.482 127.609 195.341 128.2C197.328 124.999 199.817 122.608 203.3 122.869L201.111 116.296L187.974 115.2V114.105Z" fill="#191847"/>
<path fill-rule="evenodd" clip-rule="evenodd" d="M307.524 356.94C305.487 379.223 307.523 427.12 308.619 440.937C309.307 449.62 321.134 447.347 322.238 440.397C322.425 439.22 323.187 435.084 324.324 428.912C329.899 398.65 344.491 319.446 344.517 300.188C344.529 291.357 324.882 284.295 317.022 294.962C310.56 290.42 301.388 289.202 295.733 298.376C291.451 305.321 281.279 325.037 270.431 348.061C260.927 368.23 246.077 417.191 246.077 417.191L258.685 422.955C258.685 422.955 289.827 372.85 309.435 337.72C308.784 343.765 308.137 350.237 307.524 356.94Z" fill="#B28B67"/>
<path fill-rule="evenodd" clip-rule="evenodd" d="M246.979 399.065L290.25 296.487C300.616 279.8 329.679 299.882 326.144 309.561C318.119 331.533 277.302 402.668 274.911 409.214L246.979 399.065Z" fill="#1F28CF"/>
<path fill-rule="evenodd" clip-rule="evenodd" d="M345.611 308.197C345.611 337.272 332.876 405.616 332.867 412.019L302.016 410.978C302.016 410.978 310.105 321.845 308.839 321.241C306.939 320.335 230.955 331.765 208.166 332.628C175.304 333.873 161.71 313.698 160.607 275.414L224.261 275.414C224.261 275.414 305.906 285.166 331.582 288.98C342.575 290.612 345.611 300.187 345.611 308.197Z" fill="#2B44FF"/>
<path fill-rule="evenodd" clip-rule="evenodd" d="M247.45 413.396C246.527 412.674 245.175 412.828 244.519 413.798C243.209 415.734 241.276 418.798 240.813 420.656C240.097 423.531 239.68 429.286 239.68 429.286C243.013 430.117 299.589 444.233 299.589 444.233C299.589 444.233 303.849 437.09 298.971 435.219C294.093 433.348 290.889 432.021 290.889 432.021L266.062 412.591C265.619 412.244 264.976 412.332 264.641 412.785L261.711 416.762C261.711 416.762 256.512 417.775 253.6 417.048C251.77 416.592 249.147 414.722 247.45 413.396Z" fill="#E4E4E4"/>
<path fill-rule="evenodd" clip-rule="evenodd" d="M309.792 423.256C308.722 422.78 307.447 423.256 307.045 424.356C306.242 426.551 305.107 429.992 305.107 431.907C305.107 434.87 306.094 440.555 306.094 440.555C309.529 440.555 367.837 440.555 367.837 440.555C367.837 440.555 370.244 432.593 365.059 431.958C359.873 431.323 356.444 430.812 356.444 430.812L327.657 417.97C327.143 417.74 326.54 417.981 326.325 418.502L324.443 423.07C324.443 423.07 319.643 425.311 316.642 425.311C314.756 425.311 311.759 424.132 309.792 423.256Z" fill="#E4E4E4"/>
<rect x="306.202" y="440.555" width="58.0192" height="7.66829" rx="3.83414" fill="#2F3676"/>
<path d="M146.375 291.712C146.375 286.189 150.853 281.712 156.375 281.712H275.403C280.926 281.712 285.403 286.189 285.403 291.712V346.345H150.375C148.166 346.345 146.375 344.554 146.375 342.345V291.712Z" fill="#2F3676"/>
<path fill-rule="evenodd" clip-rule="evenodd" d="M274.456 281.712H277.66C282.558 281.712 286.736 285.26 287.529 290.093L311.676 437.269H299.978" fill="#2F3676"/>
<path fill-rule="evenodd" clip-rule="evenodd" d="M306.202 459.178C317.085 459.178 325.907 450.35 325.907 439.46C325.907 428.569 317.085 419.741 306.202 419.741C295.32 419.741 286.498 428.569 286.498 439.46C286.498 450.35 295.32 459.178 306.202 459.178Z" fill="#191847"/>
<path fill-rule="evenodd" clip-rule="evenodd" d="M243.804 373.731C243.804 419.712 206.555 456.987 160.607 456.987C114.658 456.987 77.4092 419.712 77.4092 373.731C77.4092 327.75 114.658 290.476 160.607 290.476C206.555 290.476 243.804 327.75 243.804 373.731ZM228.478 373.731C228.478 411.242 198.091 441.651 160.607 441.651C123.122 441.651 92.735 411.242 92.735 373.731C92.735 336.221 123.122 305.812 160.607 305.812C198.091 305.812 228.478 336.221 228.478 373.731Z" fill="#191847"/>
<rect x="156.228" y="301.43" width="8.75761" height="144.602" fill="#191847"/>
<rect width="8.7607" height="144.551" rx="2" transform="matrix(0.706859 0.707355 -0.706859 0.707355 208.599 319.508)" fill="#191847"/>
<rect x="232.857" y="369.349" width="8.76376" height="144.501" rx="2" transform="rotate(90 232.857 369.349)" fill="#191847"/>
<rect width="8.7607" height="144.551" rx="2" transform="matrix(-0.706859 0.707355 -0.706859 -0.707355 214.792 421.758)" fill="#191847"/>
<path fill-rule="evenodd" clip-rule="evenodd" d="M313.299 224.665L270.077 230.565L277.832 249.943L312.903 236.029C328.019 237.522 335.329 237.162 334.831 234.951C334.412 233.087 332.805 232.524 331.325 232.006C330.172 231.602 329.096 231.225 328.719 230.281C327.856 228.125 332.77 223.655 337.613 219.615C342.456 215.575 339.205 214.832 337.161 214.891C329.899 216.595 321.945 219.853 313.299 224.665ZM103.023 330.907C106.231 324.395 134.301 240.576 134.301 240.576L158.272 240.667C158.272 240.667 118.844 329.455 117.156 333.643C114.962 339.084 118.688 346.988 121.215 352.348C121.606 353.177 121.968 353.945 122.275 354.634C118.769 356.204 117.085 354.306 115.31 352.306C113.304 350.046 111.182 347.655 106.187 349.981C104.257 350.879 102.431 351.942 100.646 352.98C94.4832 356.565 88.8214 359.858 81.1193 355.102C79.8982 354.348 78.5601 351.509 81.7931 349.291C89.8477 343.764 101.455 334.091 103.023 330.907Z" fill="#997659"/>
<path fill-rule="evenodd" clip-rule="evenodd" d="M199.961 164.496L218.729 165.748C223.352 207.596 248.529 234.029 304.901 225.08L312.39 278.972C259.702 285.786 213.495 264.677 204.025 207.525C201.574 192.73 199.638 177.333 199.961 164.496Z" fill="#AFB9C5"/>
<path fill-rule="evenodd" clip-rule="evenodd" d="M106.311 320.053C119.342 250.67 146.846 196.992 188.824 159.019H190.625H190.686L190.701 159.037L219.138 165.554C219.138 199.737 226.737 225.278 234.044 249.834C237.199 260.438 240.299 270.859 242.709 281.712H165.909C164.827 294.146 164.163 306.927 163.817 320.053H106.311Z" fill="#C5CFD6"/>
<path fill-rule="evenodd" clip-rule="evenodd" d="M165.909 281.712C168.112 256.396 172.045 232.514 178.547 210.066C177.121 234.072 176.726 263.853 181.518 281.712H165.909Z" fill="black" fill-opacity="0.1"/>
<path fill-rule="evenodd" clip-rule="evenodd" d="M508.517 82.4923C501.417 86.7714 494.442 88.839 491.168 87.9949C482.957 85.8785 482.202 55.8414 488.555 43.9999C494.908 32.1583 527.568 26.997 529.214 50.4589C529.785 58.6018 526.366 65.8688 521.314 71.7985L530.373 114.018H504.061L508.517 82.4923Z" fill="#B28B67"/>
<path fill-rule="evenodd" clip-rule="evenodd" d="M507.201 53.0501C504.925 49.6613 502.74 47.0764 499.898 45.5754C488.331 45.7582 486.976 43.6845 486.976 36.6951C488.845 35.3582 495.437 33.1071 502.82 32.4738C506.586 31.3961 511.047 31.5988 515.345 33.3966C520.65 34.9019 525.143 38.1437 527.127 44.213C534.306 56.6023 528.857 69.4991 521.514 73.9047C519.559 71.5889 517.853 69.3447 516.331 67.1963C517.554 66.0019 518.313 64.3349 518.313 62.4907C518.313 58.8577 515.368 55.9127 511.735 55.9127C511.468 55.9127 511.205 55.9286 510.946 55.9595C510.782 60.5017 510.11 75.8687 508.343 81.2066C506.259 87.4996 494.102 89.0448 489.862 89.0448C486.2 89.0448 486.325 85.5769 486.414 83.0915C486.427 82.7336 486.439 82.396 486.439 82.0921C486.439 81.4572 487.265 81.4589 488.198 81.4607C489.409 81.4631 490.802 81.4659 490.802 80.0758C490.802 78.5605 488.708 77.3982 486.834 76.3581C485.665 75.7092 484.582 75.1079 484.146 74.4981C482.772 72.5744 482.309 69.9797 484.382 69.9797C485.515 69.9797 487.07 70.6331 488.941 71.4191C491.765 72.6058 495.309 74.0949 499.209 74.0949C505.65 74.0949 507.182 53.3108 507.201 53.0501Z" fill="#191847"/>
<path fill-rule="evenodd" clip-rule="evenodd" d="M547.878 206.597L506.684 341.534L486.728 456.29H471.081L492.168 206.597H547.878Z" fill="#997659"/>
<path fill-rule="evenodd" clip-rule="evenodd" d="M562.615 206.597C559.817 280.685 563.11 318.9 563.736 325.632C564.363 332.363 572.938 376.008 593.239 458.549L576.566 452.812C544.482 377.11 533.55 337.766 529.87 327.825C526.19 317.885 516.417 277.475 500.55 206.597H562.615Z" fill="#B28B67"/>
<path fill-rule="evenodd" clip-rule="evenodd" d="M590.264 451.421C591.335 450.943 592.61 451.42 593.012 452.521C593.815 454.719 594.95 458.165 594.95 460.082C594.95 463.049 593.964 468.741 593.964 468.741C590.529 468.741 532.22 468.741 532.22 468.741C532.22 468.741 529.814 460.769 534.999 460.133C540.184 459.497 543.614 458.985 543.614 458.985L572.4 446.127C572.915 445.897 573.518 446.138 573.732 446.66L575.614 451.234C575.614 451.234 580.414 453.478 583.416 453.478C585.301 453.478 588.297 452.298 590.264 451.421Z" fill="#E4E4E4"/>
<path fill-rule="evenodd" clip-rule="evenodd" d="M487.362 451.421C488.433 450.943 489.708 451.42 490.11 452.521C490.913 454.719 492.048 458.165 492.048 460.082C492.048 463.049 491.062 468.741 491.062 468.741C487.626 468.741 429.318 468.741 429.318 468.741C429.318 468.741 426.912 460.769 432.097 460.133C437.282 459.497 440.712 458.985 440.712 458.985L469.498 446.127C470.013 445.897 470.616 446.138 470.83 446.66L472.712 451.234C472.712 451.234 477.512 453.478 480.514 453.478C482.399 453.478 485.395 452.298 487.362 451.421Z" fill="#E4E4E4"/>
<path fill-rule="evenodd" clip-rule="evenodd" d="M553.352 206.597L535.836 275.346H482.338L490.315 206.597H553.352Z" fill="#69A1AC"/>
<path fill-rule="evenodd" clip-rule="evenodd" d="M563.204 206.597C571.849 232.56 566.488 275.346 566.488 275.346H511.895L496.883 206.597H563.204Z" fill="#89C5CC"/>
<path fill-rule="evenodd" clip-rule="evenodd" d="M423.419 232.558L449.964 198.287L462.659 214.494L433.323 237.81C427.077 251.546 423.133 257.656 421.492 256.14C420.108 254.862 420.426 253.203 420.72 251.675C420.949 250.484 421.162 249.373 420.544 248.584C419.131 246.78 412.868 248.807 407.008 250.984C401.147 253.161 402.129 249.999 403.197 248.27C408.265 242.863 415.006 237.625 423.419 232.558ZM610.811 250.593C606.724 244.597 587.065 183.325 587.065 183.325L564.39 186.603C564.39 186.603 594.919 251.361 597.176 255.269C600.108 260.345 597.511 268.684 595.75 274.339C595.478 275.214 595.226 276.024 595.017 276.748C598.712 277.813 600.119 275.701 601.601 273.474C603.276 270.959 605.048 268.298 610.325 269.903C612.364 270.523 614.323 271.319 616.237 272.097C622.848 274.785 628.921 277.253 635.898 271.475C637.004 270.559 637.936 267.564 634.422 265.82C625.665 261.475 612.809 253.524 610.811 250.593Z" fill="#B28B67"/>
<path fill-rule="evenodd" clip-rule="evenodd" d="M509.235 97.3574L499.621 97.0694C489.123 139.645 466.051 180.232 430.406 218.831L466.027 251.461C499.705 198.902 517.726 147.025 509.235 97.3574Z" fill="#191847"/>
<path fill-rule="evenodd" clip-rule="evenodd" d="M566.71 209.372L483.114 221.12C483.114 221.12 502.256 146.528 495.329 97.2438L520.019 89.9493C544.308 118.98 555.41 157.366 566.71 209.372Z" fill="#DDE3E9"/>
<path fill-rule="evenodd" clip-rule="evenodd" d="M609.734 239.794C586.122 138.121 520.573 89.8714 520.573 89.8714L520.555 89.892C520.551 89.8865 520.547 89.8811 520.543 89.8756L518.897 90.107C515.957 90.6237 509.948 91.7378 509.948 91.7378L506.298 109.976C509.799 141.901 513.013 239.691 513.013 239.691L567.732 232C568.259 236.431 568.683 240.939 568.989 245.521L609.734 239.794Z" fill="#2F3676"/>
<path fill-rule="evenodd" clip-rule="evenodd" d="M567.782 232.429C565.516 213.132 561.268 195.31 556.119 179.366C557.353 198.971 557.515 222.747 552.538 234.571L567.782 232.429Z" fill="black" fill-opacity="0.1"/>
<path fill-rule="evenodd" clip-rule="evenodd" d="M550.953 200.535L522.17 191.793L523.932 204.333L550.953 200.535Z" fill="white" fill-opacity="0.2"/>
<defs>
<clipPath id="clip0">
<rect width="721.978" height="306.85" fill="white" transform="translate(30.8811 15.8)"/>
</clipPath>
</defs>
</svg>
