<svg width="650" height="633" viewBox="0 0 650 633" fill="none" xmlns="http://www.w3.org/2000/svg">
<g opacity="0.504511">
<path fill-rule="evenodd" clip-rule="evenodd" d="M601.83 459.518C609.902 510.992 414.142 544.567 245.647 521.136C77.1517 497.705 -0.145874 406.204 80.2572 357.449C160.66 308.694 593.758 408.044 601.83 459.518Z" fill="#F2F2F2"/>
</g>
<path fill-rule="evenodd" clip-rule="evenodd" d="M359.665 245.024C362.711 243.039 367.437 244.304 370.503 245.475C371.684 245.927 374.704 247.372 376.943 248.999C376.647 247.871 376.383 246.734 376.153 245.588C375.205 240.874 374.553 236.07 374.239 231.295C374.157 230.049 374.264 228.658 374.372 227.248C374.408 226.77 374.445 226.29 374.474 225.813C374.352 225.701 374.269 225.545 374.234 225.334C374.221 225.422 374.214 225.492 374.208 225.545C374.199 225.631 374.195 225.675 374.179 225.679C374.163 225.684 374.135 225.647 374.077 225.572C374.055 225.543 374.029 225.509 373.997 225.469C371.731 222.579 369.828 219.322 369.567 215.742C369.346 212.706 372.271 206.961 376.417 210.938C378.272 212.714 377.791 225.188 375.005 225.953C375.749 230.086 376.685 234.212 377.857 238.286C378.033 238.26 378.212 238.258 378.389 238.278C378.372 237.265 378.37 236.16 378.419 235.78C378.837 232.506 382.043 225.859 387.148 227.15C391.07 228.142 388.666 232.224 387.331 234.011C385.182 236.888 382.751 238.134 379.673 239.63C379.612 240.248 379.144 240.607 378.592 240.724C380.653 247.303 383.362 253.72 386.906 259.782L387 259.396C387.45 257.557 387.974 255.411 388.307 254.961C390.044 252.603 393.889 249.723 397.435 251.118C404.882 254.052 396.798 262.486 390.458 263.403C390.195 263.714 389.916 263.964 389.619 264.107C390.851 265.936 392.168 267.728 393.576 269.473C395.689 272.099 397.96 274.716 400.34 277.317C400.414 275.282 401.356 270.747 401.623 270.259C403.249 267.3 407.934 264.255 411.736 266.357C416.011 268.728 412.135 273.207 409.696 275.234C408.697 276.065 403.753 279.111 402.009 279.125C407.76 285.26 414.108 291.289 420.562 297.101C420.028 294.5 419.329 287.334 419.407 286.539C419.808 282.434 422.97 275.869 429.201 277.469C435.246 279.018 432.572 285.839 430.502 289.09C429.249 291.058 427.516 293.057 425.426 294.43C425.05 294.677 424.558 294.879 424.066 295.08C423.474 295.323 422.883 295.566 422.497 295.887C422.153 296.173 422.047 296.501 421.942 296.827C421.832 297.171 421.722 297.512 421.334 297.797C424.822 300.924 428.334 303.986 431.796 306.963C433.43 308.368 435.093 309.746 436.773 311.107C437.692 310.782 439.002 311.209 438.934 312.32C438.924 312.481 438.88 312.62 438.821 312.748C440.094 313.758 441.375 314.761 442.666 315.753C442.636 315.464 442.645 315.056 442.704 314.493C441.775 315.621 441.814 313.978 441.843 312.726C441.854 312.283 441.863 311.89 441.828 311.684C441.692 310.879 441.515 310.082 441.338 309.287C440.961 307.587 440.586 305.892 440.605 304.138C440.645 300.414 443.409 294.172 449.226 296.39C454.575 298.425 452.629 303.944 450.611 307.404C449.334 309.593 447.586 311.548 445.759 313.42C445.434 313.754 445.072 314.206 444.714 314.654C444.183 315.319 443.659 315.974 443.272 316.218C448.238 320.016 453.321 323.703 458.405 327.39L458.405 327.39C460.682 329.041 462.959 330.692 465.226 332.354C465.324 331.989 465.406 331.628 465.476 331.289C465.334 331.426 465.141 331.49 464.894 331.477C464.828 331.198 464.733 330.827 464.618 330.381L464.618 330.38C463.218 324.934 458.954 308.347 470.499 311.562C478.957 313.924 472.987 328.367 466.678 333.419C470.507 336.24 474.298 339.097 478.002 342.04C480.681 344.168 483.282 346.37 485.783 348.646C484.489 345.699 483.269 341.886 484.07 338.85C485.235 334.433 490.696 330.263 496.028 332.776C502.675 335.923 497.562 340.221 492.766 344.251C490.318 346.309 487.952 348.297 487.278 350.026C495.23 357.49 502.018 365.781 506.555 375.226C511.488 385.498 516.068 399.299 513.535 410.791C514.003 405.738 512.003 399.393 510.598 394.938C510.407 394.331 510.227 393.759 510.065 393.231C507.955 386.32 504.956 379.596 501.005 373.303C494.676 363.224 486.315 354.667 476.663 346.899C474.466 347.552 472.079 348.763 470.102 349.765L470.101 349.765C468.889 350.38 467.831 350.916 467.065 351.198C463.372 352.558 456.281 354.507 453.928 350.224C451.615 346.012 457.52 343.656 461.179 342.712C464.716 341.801 467.904 341.911 471.203 342.658C466.094 338.792 460.861 335.049 455.628 331.306L455.627 331.305C454.665 330.617 453.703 329.929 452.741 329.24C451.411 330.17 449.942 331.516 448.382 332.945L448.382 332.945C443.432 337.479 437.567 342.851 432.329 338.462C424.424 331.839 439.542 325.107 445.983 325.633C446.774 325.697 447.539 325.839 448.285 326.032C441.716 321.273 435.25 316.416 429.134 311.217C428.036 311.388 426.289 312.766 424.19 314.422C419.473 318.144 412.979 323.267 408.088 319.233C404.557 316.321 405.766 311.786 409.179 309.193C412.605 306.588 417.573 306.592 421.795 307.47C423.621 307.847 425.305 308.567 426.874 309.445L426.968 309.449L427.069 309.454C421.051 304.284 414.996 298.998 409.164 293.532C409.063 293.56 408.958 293.588 408.854 293.618C408.501 293.986 407.911 294.121 407.37 294.04C407.074 294.126 406.772 294.215 406.464 294.306L406.457 294.308L406.456 294.308C401.837 295.669 395.9 297.419 391.296 296.664C387.907 296.109 384.833 293.757 387.701 290.862C390.033 288.508 396.36 288.846 399.445 289.404C400.951 289.676 402.59 290.466 404.235 291.258L404.235 291.258L404.235 291.258C404.926 291.591 405.618 291.924 406.301 292.219C406.478 291.914 406.788 291.717 407.141 291.623C401.382 286.13 395.887 280.447 390.903 274.517C389.394 274.716 387.721 275.282 385.996 275.866C381.843 277.269 377.387 278.776 374.188 275.531C369.467 270.74 378.347 267.943 382.568 268.398C383.994 268.552 385.399 268.897 386.756 269.352C383.129 264.47 380.359 259.251 378.414 253.771C378.395 253.779 378.377 253.787 378.36 253.795C378.35 253.8 378.34 253.805 378.33 253.809C378.312 253.818 378.293 253.826 378.271 253.834C378.289 253.826 378.306 253.817 378.323 253.808C378.332 253.803 378.342 253.798 378.352 253.792C378.371 253.782 378.39 253.772 378.41 253.761C378.216 253.213 378.03 252.662 377.852 252.11C377.523 251.953 377.214 251.838 377.067 251.79C378.985 252.919 370.893 253.471 369.378 253.575C366.028 253.803 361.54 253.888 359.082 251.545C357.018 249.578 357.139 246.67 359.665 245.024ZM513.895 410.807C513.753 412.472 513.4 413.997 512.742 415.254C513.235 413.823 513.614 412.335 513.895 410.807Z" fill="#F2F2F2"/>
<path opacity="0.2" fill-rule="evenodd" clip-rule="evenodd" d="M207.558 138.674C205.335 137.24 201.884 138.156 199.645 139.004C198.782 139.331 196.577 140.377 194.941 141.554C195.158 140.738 195.351 139.916 195.52 139.087C196.214 135.678 196.692 132.204 196.923 128.751C196.984 127.851 196.906 126.844 196.828 125.825L196.828 125.825C196.802 125.479 196.775 125.132 196.754 124.788C196.843 124.706 196.904 124.594 196.929 124.441C196.939 124.504 196.944 124.555 196.948 124.594C196.955 124.656 196.958 124.687 196.969 124.69C196.981 124.694 197.002 124.667 197.044 124.613C197.06 124.592 197.079 124.567 197.102 124.539C198.758 122.448 200.149 120.093 200.341 117.504C200.504 115.308 198.371 111.155 195.342 114.032C193.986 115.317 194.333 124.337 196.367 124.888C195.821 127.878 195.136 130.862 194.279 133.808C194.15 133.789 194.02 133.787 193.89 133.802C193.903 133.07 193.905 132.271 193.869 131.996C193.566 129.629 191.228 124.823 187.5 125.758C184.636 126.477 186.389 129.428 187.363 130.719C188.931 132.799 190.705 133.699 192.952 134.78C192.997 135.227 193.338 135.487 193.741 135.571C192.233 140.329 190.253 144.97 187.663 149.354L187.594 149.075L187.594 149.075C187.266 147.745 186.884 146.194 186.642 145.869C185.374 144.164 182.568 142.083 179.979 143.093C174.54 145.217 180.438 151.312 185.067 151.974C185.259 152.198 185.463 152.379 185.679 152.482C184.779 153.806 183.817 155.102 182.788 156.364C181.244 158.263 179.585 160.156 177.846 162.038C177.793 160.567 177.107 157.287 176.912 156.935C175.727 154.795 172.307 152.595 169.53 154.116C166.407 155.832 169.236 159.07 171.016 160.535C171.745 161.135 175.353 163.336 176.627 163.345C172.425 167.783 167.787 172.146 163.072 176.35C163.464 174.469 163.977 169.287 163.92 168.712C163.629 165.744 161.323 160.998 156.773 162.157C152.359 163.279 154.309 168.21 155.818 170.56C156.732 171.983 157.997 173.428 159.522 174.42C159.797 174.598 160.156 174.744 160.515 174.89C160.947 175.065 161.378 175.241 161.66 175.473C161.911 175.679 161.988 175.917 162.065 176.152C162.145 176.401 162.225 176.648 162.509 176.853C159.961 179.116 157.395 181.331 154.866 183.485C153.672 184.502 152.457 185.498 151.23 186.483C150.56 186.248 149.603 186.558 149.652 187.36C149.659 187.477 149.691 187.577 149.734 187.67C148.804 188.401 147.868 189.126 146.925 189.844C146.947 189.635 146.941 189.34 146.898 188.933C147.576 189.749 147.548 188.561 147.527 187.655C147.52 187.335 147.513 187.05 147.539 186.902C147.639 186.32 147.768 185.743 147.898 185.168C148.173 183.939 148.449 182.713 148.436 181.445C148.408 178.752 146.392 174.24 142.144 175.845C138.238 177.318 139.656 181.308 141.128 183.809C142.06 185.392 143.335 186.805 144.668 188.158C144.906 188.4 145.169 188.727 145.43 189.05C145.818 189.531 146.2 190.004 146.483 190.181C142.855 192.929 139.142 195.596 135.429 198.263C133.766 199.458 132.102 200.653 130.447 201.855C130.375 201.592 130.315 201.33 130.264 201.086C130.368 201.184 130.508 201.23 130.689 201.221C130.737 201.019 130.807 200.751 130.891 200.429L130.891 200.428C131.916 196.49 135.036 184.494 126.605 186.822C120.429 188.533 124.782 198.975 129.385 202.626C126.589 204.667 123.819 206.734 121.114 208.863C119.157 210.403 117.257 211.996 115.43 213.642C116.376 211.512 117.268 208.753 116.685 206.559C115.836 203.365 111.85 200.351 107.956 202.17C103.102 204.448 106.833 207.554 110.333 210.467C112.12 211.954 113.846 213.391 114.338 214.641C108.529 220.04 103.568 226.038 100.252 232.869C96.6453 240.298 93.2954 250.279 95.1397 258.588C94.8004 254.934 96.2636 250.346 97.2912 247.124C97.4311 246.685 97.5629 246.271 97.681 245.889C99.225 240.891 101.417 236.029 104.305 231.477C108.931 224.186 115.038 217.997 122.089 212.376C123.693 212.848 125.436 213.723 126.879 214.447L126.879 214.447C127.764 214.891 128.536 215.278 129.095 215.482C131.791 216.464 136.968 217.871 138.687 214.773C140.378 211.727 136.068 210.026 133.397 209.344C130.815 208.687 128.487 208.767 126.078 209.308C129.81 206.511 133.633 203.802 137.455 201.094L137.455 201.094L137.457 201.093C138.159 200.595 138.862 200.098 139.563 199.599C140.534 200.272 141.606 201.245 142.744 202.277C146.357 205.554 150.637 209.437 154.463 206.262C160.238 201.47 149.202 196.607 144.499 196.989C143.922 197.036 143.363 197.139 142.818 197.279C147.616 193.835 152.34 190.321 156.808 186.56C157.609 186.683 158.884 187.679 160.416 188.876C163.859 191.566 168.598 195.268 172.171 192.35C174.75 190.243 173.869 186.964 171.378 185.09C168.878 183.208 165.251 183.212 162.167 183.848C160.835 184.121 159.605 184.643 158.458 185.278C158.409 185.28 158.363 185.282 158.316 185.285C162.712 181.544 167.136 177.72 171.396 173.766C171.431 173.775 171.467 173.785 171.502 173.795C171.542 173.805 171.583 173.816 171.623 173.828C171.88 174.094 172.311 174.191 172.706 174.132C172.797 174.159 172.889 174.185 172.981 174.212C173.11 174.25 173.241 174.288 173.373 174.326C176.745 175.309 181.079 176.572 184.441 176.025C186.915 175.622 189.161 173.921 187.068 171.828C185.367 170.127 180.747 170.373 178.494 170.777C177.395 170.975 176.198 171.546 174.996 172.12L174.996 172.12C174.492 172.36 173.986 172.602 173.487 172.816C173.358 172.595 173.132 172.453 172.874 172.385C177.081 168.411 181.096 164.3 184.738 160.01C185.839 160.154 187.06 160.563 188.32 160.984C191.351 161.998 194.604 163.086 196.941 160.738C200.391 157.272 193.908 155.253 190.826 155.583C189.785 155.695 188.759 155.944 187.768 156.274C190.418 152.743 192.442 148.968 193.866 145.005C193.879 145.01 193.892 145.016 193.905 145.023L193.905 145.023C193.915 145.027 193.925 145.032 193.935 145.037C193.946 145.041 193.957 145.046 193.969 145.051C193.948 145.041 193.929 145.031 193.91 145.02C193.897 145.013 193.883 145.005 193.868 144.998C194.01 144.601 194.146 144.203 194.276 143.803C194.517 143.69 194.742 143.607 194.85 143.572C193.449 144.389 199.356 144.786 200.463 144.86C202.909 145.024 206.186 145.084 207.981 143.39C209.489 141.966 209.402 139.864 207.558 138.674ZM94.7735 258.26C94.8815 259.37 95.2026 260.382 95.8345 261.212C95.3706 260.264 95.0227 259.276 94.7735 258.26Z" fill="#C1DEE2"/>
<g opacity="0.7">
<path fill-rule="evenodd" clip-rule="evenodd" d="M419.822 244.77C433.474 244.062 450.359 252.031 451.815 266.871C452.873 277.653 452.546 288.405 454.183 299.172C455.492 307.776 458.261 316.036 462.038 323.874C465.67 331.411 473.203 337.827 475.162 345.879C476.411 351.01 475.712 358.227 473.99 363.245C471.896 369.347 473.009 368.865 477.182 373.985C485.359 384.018 492.723 394.307 497.93 406.29C505.43 423.55 510.348 443.725 507.564 462.618C507.21 465.017 506.79 473.627 503.486 474.229C499.796 474.902 501.522 469.978 501.719 468.387C502.974 458.238 504.09 449.367 502.575 439.059C496.732 399.288 468.201 373.085 449.623 339.331C448.602 337.59 446.446 333.445 444.947 330.711C442.58 326.393 440.201 318.179 436.997 314.977C430.963 308.947 436.511 321.071 437.686 323.385C439.173 326.313 440.808 329.425 442.332 331.99C449.302 343.882 457.082 356.862 464.28 369.121C433.147 376.214 411.221 338.785 402.866 314.178C395.982 293.905 387.746 246.505 419.822 244.77Z" fill="#69A1AC"/>
<path fill-rule="evenodd" clip-rule="evenodd" d="M602.805 207.121C579.983 208.932 565.331 223.992 558.511 245.056C554.835 256.407 554.413 268.068 552.37 279.734C549.298 297.284 542.686 310.585 529.764 323.089C525.762 326.961 522.812 330.937 520.716 335.191C516.554 339.438 512.931 344.244 510.269 350.12C506.869 357.624 505.907 366.628 509.832 374.109C510.888 376.121 513.521 380.158 516.25 381.992C506.033 403.752 500.415 427.584 501.048 451.386C501.431 465.753 502.132 480.127 502.951 494.477C503.171 498.33 504.426 504.693 506.31 498.231C508.035 492.32 505.872 483.041 505.672 476.867C504.698 446.786 503.866 419.435 516.248 391.331C517.547 388.385 518.924 385.463 520.357 382.565C520.442 382.516 520.52 382.457 520.599 382.4C520.653 382.442 520.703 382.487 520.758 382.529C520.849 382.365 520.975 382.171 521.121 381.954C521.532 381.529 521.891 380.993 522.233 380.395C523.331 378.873 524.574 377.084 524.581 376.105C524.581 376.098 524.577 376.086 524.577 376.078C532.242 363.565 541.022 351.742 549.99 340.149C549.923 340.234 559.718 326.897 558.204 334.272C557.474 337.827 550.269 344.595 547.359 348.36C540.922 356.735 533.363 367.348 527.082 377.61C526.237 378.096 525.043 380.48 524.179 382.257C523.702 383.157 523.257 384.064 522.82 384.855C545.077 392.208 562.39 377.396 574.196 360.168C574.21 360.147 574.223 360.126 574.236 360.106C577.829 355.346 581.509 350.619 586.107 346.856C593.777 340.576 601.992 339.468 611.036 336.378C635.7 327.951 646.186 295.987 649.516 272.27C653.274 245.513 634.894 204.483 602.805 207.121Z" fill="#89C5CC"/>
<path fill-rule="evenodd" clip-rule="evenodd" d="M557.723 132.19C534.299 156.569 522.982 190.383 514.022 222.172C504.014 257.676 497.403 293.728 497.149 330.642C496.983 354.895 496.323 379.299 497.739 403.523C498.241 412.126 499.099 420.745 500.462 429.255C500.575 429.955 503.626 448.958 506.545 444.53C508.205 442.012 503.417 424.817 503.056 421.953C501.021 405.822 500.548 389.573 500.647 373.326C500.81 346.575 500.021 319.962 502.733 293.31C503.137 289.33 503.457 285.151 504.402 281.258C505.406 277.119 504.127 278.926 507.396 277.287C510.573 275.694 514.498 275.922 517.794 273.924C530.866 265.997 537.553 245.635 542.758 232.275C548.711 216.998 552.329 200.706 555.219 184.628C557.341 172.816 558.858 161.075 559.716 149.11C559.987 145.339 560.003 141.396 560.744 137.688C560.944 136.688 561.945 134.919 561.909 134.033C561.832 132.158 560.701 131.056 560.608 129.481C559.627 130.363 558.665 131.267 557.723 132.19Z" fill="#89C5CC"/>
<path fill-rule="evenodd" clip-rule="evenodd" d="M430 457C430 497.317 462.683 530 503 530C543.317 530 576 497.317 576 457" fill="#89C5CC"/>
<path fill-rule="evenodd" clip-rule="evenodd" d="M553.028 393.085C571.095 391.753 591.271 406.329 599.986 421.497C607.012 433.726 605.828 449.785 601.489 462.778C598.583 471.476 592.241 483.878 581.665 483.999C568.433 484.15 567.795 467.796 567.539 458.236C567.199 445.525 565.593 434.453 555.577 425.789C554.341 424.72 553.043 423.719 551.746 422.718C550.594 421.829 549.443 420.941 548.334 420.005C548.157 419.855 547.978 419.706 547.8 419.556C544.258 416.579 540.539 413.453 540.086 408.546C539.43 401.436 543.443 400.156 549.571 401.477C549.769 401.52 550.306 401.723 551.036 402C554.166 403.186 560.844 405.718 559.581 402.692C559.105 401.552 557.368 400.648 555.175 399.971C549.501 399.354 542.733 398.638 540.787 399.066C519.792 403.672 511.617 432.755 509.446 451.233C509.212 453.227 509.023 455.228 508.857 457.232H505C505.268 452.393 505.621 447.562 506.43 442.776C509.525 424.473 519.2 397.591 540.42 394.62C541.203 394.51 544.083 394.491 547.571 394.696C549.224 393.772 551.076 393.213 553.028 393.085Z" fill="#69A1AC"/>
</g>
<g opacity="0.5">
<path fill-rule="evenodd" clip-rule="evenodd" d="M200.223 111.445C204.425 105.453 212.224 90.2348 218.138 88.0936C221.948 86.7146 220.837 100.98 220.884 103.7C221.067 114.224 220.043 124.681 218.778 135.116C216.498 153.937 209.045 170.697 198.822 186.715C193.562 194.957 187.391 203.3 178.845 208.442C174.912 210.811 170.179 211.207 166.294 213.248C161.769 215.623 164.233 213.703 162.194 218.417C159.363 224.963 158.457 233.408 157.147 240.392C151.132 272.455 136.568 441.945 139.093 474.558C139.317 477.449 135.287 478.14 135.085 474.611C134.016 455.9 143.27 326.322 147.94 283.947C152.609 241.571 157.334 204.134 162.071 189.474C167.819 171.687 178.199 150.298 186.84 133.711C190.854 126.006 195.229 118.565 200.223 111.445Z" fill="#69A1AC"/>
<path fill-rule="evenodd" clip-rule="evenodd" d="M231.414 319.278C242.349 311.25 254.186 326.401 244.29 334.43C238.82 338.868 233.101 337.29 229.882 333.591C227.792 336.139 225.836 338.803 223.956 341.052C218.229 347.909 212.817 354.928 207.644 362.111C196.898 377.035 187.689 392.801 178.06 408.278C168.558 423.554 159.132 438.908 150.519 454.571C143.223 467.841 133.498 483.452 131 498C134.79 467.146 149.172 437.49 166.298 410.291C183.285 383.314 202.779 353.853 229.081 332.564C226.404 328.627 226.33 323.008 231.414 319.278Z" fill="#C1DEE2"/>
<path fill-rule="evenodd" clip-rule="evenodd" d="M23.9132 244.031C30.0324 245.227 40.0312 259.07 45.0753 264.344C51.0699 270.612 56.5084 277.292 61.6349 284.292C72.6711 299.358 82.5411 315.376 90.9339 332.08C104.616 359.311 115.578 387.265 123.533 416.918C128.403 435.069 131.556 453.883 133.424 472.565C133.777 476.089 137.471 503.253 132.148 503.985C127.361 504.644 128.84 483.359 128.609 480.463C125.998 447.798 118.177 416.015 107.299 385.226C104.929 378.519 102.728 370.304 98.9381 364.268C96.2092 359.921 98.9186 361.437 94.1228 359.792C90.0049 358.378 85.3131 358.724 81.0963 356.993C71.9356 353.237 64.6006 345.944 58.1709 338.608C45.6758 324.351 35.774 308.928 30.6126 290.66C27.7495 280.532 25.1184 270.344 23.6583 259.902C23.2806 257.203 19.9718 243.26 23.9132 244.031Z" fill="#69A1AC"/>
<path fill-rule="evenodd" clip-rule="evenodd" d="M48.0614 13.716C71.1113 53.6904 90.0528 97.6012 102.283 142.076C109.694 169.023 114.876 196.675 120.025 224.126C127.997 266.632 135.538 309.134 137.683 352.395C139.841 395.906 144.108 446.092 129.861 488C136.978 445.452 130.202 400.162 129.002 357.35C128.429 336.912 126.768 316.674 124.588 296.355C122.473 276.645 119.018 257.029 115.801 237.474C114.234 227.95 112.588 218.441 110.912 208.937C110.411 206.101 110.2 197.687 108.401 195.75C106.591 193.8 97.3543 193.005 94.4544 191.574C88.6149 188.693 83.1221 184.6 78.2609 180.275C68.9418 171.984 60.8347 161.151 54.4359 150.472C39.6307 125.764 33.7116 95.61 34.0108 66.9942C34.0682 61.4382 43.0034 1.60995 39.4149 0.786066C39.631 0.533029 39.8353 0.271761 40.028 0C42.7448 4.54878 45.4108 9.1284 48.0614 13.716Z" fill="#89C5CC"/>
<path fill-rule="evenodd" clip-rule="evenodd" d="M296.846 157.887C297.202 157.374 299.517 153.807 298.351 154.035C300.724 153.57 295.087 157.969 301 155.27C298.192 157.922 299.813 161.366 299.85 164.935C299.911 170.73 298.942 176.476 297.851 182.146C296.126 191.109 293.557 199.823 289.828 208.159C281.701 226.326 267.901 243.814 251.518 255.172C243.43 260.779 235.504 262.689 226.28 265.27C220.453 266.901 219.991 269.915 216.898 275.569C210.46 287.345 204.136 299.078 198.457 311.251C191.677 325.788 185.095 340.34 178.886 355.132C157.969 404.957 140.945 456.578 132.005 510C131.786 478.519 139.069 446.095 148.255 416.088C154.947 394.226 163.658 373.151 172.95 352.29C175.201 347.236 178.613 340.735 179.57 335.155C180.239 331.245 178.192 327.486 177.255 323.367C173.601 307.33 173.863 289.363 177.071 273.24C180.609 255.461 190.839 247.209 208.145 244.691C214.474 243.769 222.519 244.107 228.322 241.408C234.645 238.47 237.253 228.81 240.849 222.61C250.506 205.953 261.98 189.979 275.155 175.945C278.803 172.059 282.726 168.473 286.888 165.15C289.513 163.053 295.058 160.47 296.846 157.887Z" fill="#89C5CC"/>
<path fill-rule="evenodd" clip-rule="evenodd" d="M97.845 481.729C97.3997 478.71 99.7396 476 102.791 476H164.209C167.26 476 169.6 478.71 169.155 481.729L164.408 513.918C162.961 523.73 154.541 531 144.622 531H122.378C112.459 531 104.039 523.73 102.592 513.918L97.845 481.729Z" fill="#C1DEE2"/>
</g>
<path fill-rule="evenodd" clip-rule="evenodd" d="M47.4177 492.456C47.4177 513.743 49.0976 531 71.6456 531C94.1935 531 95.8734 513.743 95.8734 492.456" fill="#F2F2F2"/>
<path fill-rule="evenodd" clip-rule="evenodd" d="M78.3534 479.174C77.5269 480.603 76.79 482.061 76.139 483.54C76.116 480.493 76.2845 477.424 76.7446 474.313C77.531 468.983 78.7322 463.682 79.8609 458.388C80.6721 454.584 80.6208 447.752 83.6994 444.72C84.5436 444.065 84.7468 445.351 84.7468 445.908C84.7575 446.026 84.7445 443.632 83.9251 444.049C79.0544 446.564 77.4763 454.474 75.9169 458.434C73.6418 464.215 71.7061 470.124 70.909 476.138C70.7076 477.657 70.598 479.176 70.5727 480.692C70.4071 480.287 70.2516 479.878 70.0796 479.474C67.2684 472.881 63.4747 466.447 58.7431 460.514C57.5784 459.054 42.9342 444.649 41.7878 446.854C41.9009 447.174 42.1377 447.44 42.4988 447.651C42.52 447.675 42.5206 447.662 42.5083 447.626C43.3683 449.016 45.8137 451.161 46.5754 452.379C48.4923 455.442 49.9821 458.693 51.4961 461.882C54.6948 468.622 57.6621 475.429 60.5386 482.25C61.2084 483.839 61.9065 485.419 62.6187 486.994C55.2769 476.405 45.4826 466.791 32 461.287C36.6049 463.63 39.624 468.037 42.7339 471.412C46.4846 475.483 50.4351 479.444 54.1929 483.51C58.6253 488.307 63.8405 493.358 68.1038 498.666C72.2333 507.336 76.2462 516.015 78.7234 525.128C77.7084 521.98 78.6438 517.628 78.4701 514.324C78.3322 511.693 78.0247 509.084 77.6035 506.48C78.1243 507.655 78.5732 508.83 78.7764 509.924C78.5908 508.09 78.377 506.268 78.1472 504.455C78.7369 502.758 79.316 501.175 79.7072 499.87C81.7118 493.179 84.0988 486.602 87.3495 480.193C90.3574 474.264 93.8077 468.41 97.5673 462.735C99.321 460.089 101.099 457.453 102.866 454.812C104.022 453.083 105.123 450.316 106.733 448.659C96.3261 458.174 84.956 467.757 78.3534 479.174Z" fill="#F2F2F2"/>
<path fill-rule="evenodd" clip-rule="evenodd" d="M619.633 215.827C616.65 205.876 609.646 198.087 602.374 190.951C588.22 177.058 580.606 168.468 575.562 148.146C572.595 136.193 569.575 123.528 560.165 114.856C553.313 108.541 541.521 103.236 532.357 107.758C518.261 116.172 514.475 133.439 515.896 148.9C517.659 168.064 526.61 179.88 543.807 186.938C553.497 190.913 559.938 196.159 565.197 205.299C569.405 212.607 571.858 221.759 577.145 228.384C585.05 238.289 594.941 242.691 607.134 241.046C595.714 220.035 582.371 198.826 566.277 181.135C564.771 179.357 555.886 172.549 557.678 169.518C559.652 166.181 568.774 178.718 568.709 178.642C573.386 184.01 577.714 189.715 581.963 195.475C581.953 195.48 581.94 195.484 581.928 195.489C586.304 201.4 590.644 207.397 594.902 213.469C596.624 216.038 598.3 218.639 599.905 221.306C602.259 225.219 605.996 236.325 609.849 238.731C610.673 239.245 611.436 239.533 612.148 239.651C614.777 243.956 617.335 248.295 619.767 252.685C626.121 264.151 631.574 276.257 634.076 289.202C634.807 292.981 634.29 307.114 636.869 309.842C641.584 314.831 640.203 305.223 639.921 302.323C637.579 278.31 628.958 257.852 616.441 237.664C620.286 232.642 620.841 219.859 619.633 215.827Z" fill="#F2F2F2"/>
<path fill-rule="evenodd" clip-rule="evenodd" d="M458.131 227.43C463.102 221.573 475.052 220.579 482.361 220.971C491.404 221.456 500.694 223.658 509.298 226.32C523.471 230.704 537.244 238.706 549.727 246.451C551.231 247.384 569.764 258.529 568.124 260.485C566.498 262.423 548.305 249.184 544.25 246.902C535.597 242.032 527.662 236.272 518.124 233.055C508.249 229.724 497.805 228.405 487.42 228.496C486.087 228.508 481.74 227.579 481.646 229.551C481.554 231.479 488.748 230.473 490.016 230.485C495.255 230.533 500.527 231.026 505.691 231.934C515.368 233.635 524.465 237.061 532.753 242.317C530.44 247.694 524.897 250.173 519.081 248.828C514.055 247.664 509.156 244.796 504.234 243.966C500.845 243.395 497.451 243.735 494.164 244.69C485.494 247.209 480.494 252.371 470.961 248.781C463.489 245.966 450.991 235.853 458.131 227.43Z" fill="#F2F2F2"/>
<path fill-rule="evenodd" clip-rule="evenodd" d="M436.753 133.051C425.714 132.246 413.388 141.056 408.063 150.223C403.771 157.615 404.494 167.321 407.145 175.173C408.921 180.431 412.795 187.926 419.257 187.999C427.341 188.091 427.73 178.207 427.887 172.428C428.095 164.746 429.076 158.054 435.195 152.818C435.95 152.171 436.743 151.566 437.536 150.961C438.239 150.424 438.943 149.887 439.62 149.322C439.728 149.231 439.837 149.141 439.946 149.05C442.11 147.251 444.383 145.361 444.659 142.396C445.06 138.099 442.608 137.325 438.864 138.124C438.743 138.149 438.415 138.272 437.969 138.44C436.057 139.157 431.977 140.687 432.749 138.858C433.039 138.169 434.101 137.623 435.441 137.213C438.907 136.84 443.042 136.408 444.231 136.666C457.058 139.45 462.052 157.028 463.379 168.196C463.529 169.46 463.649 170.729 463.753 172H466.105C465.94 169.015 465.726 166.036 465.221 163.084C463.331 152.022 457.42 135.775 444.455 133.979C443.977 133.912 442.217 133.901 440.086 134.025C439.076 133.467 437.945 133.129 436.753 133.051Z" fill="#F2F2F2"/>
<path fill-rule="evenodd" clip-rule="evenodd" d="M203.281 377.835C207.958 380.656 212.553 382.019 214.71 381.463C220.119 380.068 220.617 360.266 216.432 352.46C212.246 344.654 190.731 341.251 189.647 356.718C189.27 362.086 191.523 366.877 194.851 370.786L188.884 398.618H206.217L203.281 377.835Z" fill="#B28B67"/>
<path fill-rule="evenodd" clip-rule="evenodd" d="M218.068 355.965C217.896 354.953 217.477 353.829 217.138 352.872C216.701 351.638 216.041 350.525 215.314 349.477C213.945 347.502 212.303 345.719 210.491 344.24C207.179 341.537 202.964 339.978 198.819 340.484C196.727 340.74 194.695 341.539 192.966 342.868C191.404 344.07 189.901 345.838 187.878 345.965C185.677 346.103 183.659 344.159 181.894 342.958C179.903 341.605 177.786 340.618 175.46 340.235C171.563 339.593 167.902 340.91 165.216 344.11C162.358 347.515 160.28 352.508 162.157 357.019C162.506 357.858 162.955 358.565 163.599 359.151C164.19 359.688 165.092 360.26 165.332 361.118C165.586 362.031 164.826 363.208 164.531 364.032C164.109 365.212 163.762 366.45 163.886 367.732C164.088 369.838 165.411 371.849 166.807 373.233C168.228 374.642 169.977 375.449 171.846 375.822C173.093 376.07 174.368 376.207 175.636 376.114C176.265 376.068 176.82 375.893 177.43 375.754C178.023 375.618 178.354 375.776 178.858 376.101C181.195 377.613 183.708 378.198 186.406 377.974C188.684 377.784 191.309 377.231 193.167 375.67C195.23 373.935 195.189 371.544 194.704 368.988C195.218 369.244 196.641 369.402 195.791 368.385C195.454 367.982 194.818 367.818 194.385 367.581C193.882 367.305 193.371 366.949 192.98 366.499C191.402 364.682 192.996 360.985 194.979 360.376C197.926 359.471 198.586 363.642 200.69 364.721C201.9 365.341 203.165 364.493 204.071 363.627C205.285 362.468 206.112 360.931 206.827 359.368C207.415 358.08 207.963 356.775 208.562 355.493C208.842 354.895 209.812 353.204 209.325 352.527C211.436 352.106 213.787 352.984 215.605 354.135C216.356 354.611 216.929 355.136 217.33 355.976C217.416 356.156 217.603 356.691 217.837 356.713C218.274 356.754 218.111 356.219 218.068 355.965Z" fill="#191847"/>
<path fill-rule="evenodd" clip-rule="evenodd" d="M150.717 489.682C141.88 489.682 134.717 496.845 134.717 505.682V563.3C134.717 572.137 141.88 579.3 150.717 579.3H224.884C233.72 579.3 240.884 572.137 240.884 563.3V505.682C240.884 496.845 233.72 489.682 224.884 489.682H150.717ZM158.939 509.918C156.73 509.918 154.939 511.709 154.939 513.918V555.064C154.939 557.273 156.73 559.064 158.939 559.064H216.661C218.871 559.064 220.661 557.273 220.661 555.064V513.918C220.661 511.709 218.871 509.918 216.661 509.918H158.939Z" fill="#C5CFD6"/>
<path fill-rule="evenodd" clip-rule="evenodd" d="M312.499 575.686C298.259 558.286 288.625 545.386 283.595 536.987C274.982 522.605 267.933 509.808 265.709 504.92C260.404 493.263 277.921 487.804 281.885 493.242C287.885 501.471 300.7 527.367 320.328 570.929L312.499 575.686Z" fill="#B28B67"/>
<path fill-rule="evenodd" clip-rule="evenodd" d="M283.32 570.627L256.82 503.874C251.152 491.705 278.523 483.706 282.688 489.369C292.145 502.226 314.622 552.945 317.439 556.776L283.32 570.627Z" fill="#2F3676"/>
<path fill-rule="evenodd" clip-rule="evenodd" d="M212.741 557.24C217.903 549.705 236.679 524.354 246.906 513.865C249.845 510.851 252.713 507.958 255.425 505.262C263.486 497.249 279.54 510.717 271.493 518.016C251.454 536.193 222.215 560.731 219.772 562.919C216.348 565.985 209.497 561.976 212.741 557.24Z" fill="#B28B67"/>
<path fill-rule="evenodd" clip-rule="evenodd" d="M216.448 554.623C215.737 553.692 214.395 553.465 213.51 554.231C212.385 555.205 211.015 556.495 210.478 557.426C209.501 559.119 208.191 562.693 208.191 562.693C210.153 563.827 243.468 583.074 243.468 583.074C243.468 583.074 247.468 579.319 244.714 577.245C241.961 575.171 240.17 573.746 240.17 573.746L228.161 557.19C227.831 556.733 227.189 556.641 226.742 556.984L224.438 558.76C224.438 558.76 220.957 558.456 219.242 557.465C218.34 556.943 217.264 555.692 216.448 554.623Z" fill="#E4E4E4"/>
<path fill-rule="evenodd" clip-rule="evenodd" d="M308.932 572.517C307.851 572.067 306.575 572.541 306.191 573.647C305.703 575.053 305.161 576.856 305.161 577.931C305.161 579.886 305.812 583.636 305.812 583.636C308.079 583.636 346.547 583.636 346.547 583.636C346.547 583.636 348.135 578.384 344.714 577.965C341.293 577.546 339.03 577.208 339.03 577.208L320.358 568.879C319.844 568.649 319.241 568.89 319.026 569.411L317.918 572.101C317.918 572.101 314.751 573.579 312.771 573.579C311.729 573.579 310.173 573.034 308.932 572.517Z" fill="#E4E4E4"/>
<path fill-rule="evenodd" clip-rule="evenodd" d="M247.284 507.208C247.284 507.208 214.246 501.822 203.025 499.842C181.703 496.08 175.485 484.598 179.162 459.545L218.447 459.545C226.246 461.799 283.616 487.421 283.616 487.421C290.497 490.839 289.216 500.918 287.958 504.239C287.881 504.442 253.156 563.915 253.156 563.915L221.018 543.428L247.344 509.622C247.344 509.622 248.387 507.52 247.284 507.208Z" fill="#5C63AB"/>
<path fill-rule="evenodd" clip-rule="evenodd" d="M142.227 491.061C144.343 486.764 154.917 431.466 154.917 431.466L170.732 431.525C170.732 431.525 152.665 490.103 151.551 492.866C150.103 496.455 152.562 501.67 154.229 505.206C154.487 505.753 154.726 506.26 154.928 506.714C152.615 507.75 151.504 506.498 150.333 505.178C149.009 503.688 147.61 502.11 144.314 503.644C143.041 504.237 141.836 504.938 140.659 505.623C136.593 507.988 132.857 510.161 127.776 507.023C126.97 506.526 126.087 504.653 128.22 503.189C133.534 499.543 141.192 493.161 142.227 491.061ZM275.421 469.514L254.962 449.542L248.167 461.308L269.442 473.859C274.776 482.268 277.909 485.902 278.841 484.76C279.626 483.796 279.266 482.741 278.935 481.768C278.676 481.011 278.435 480.304 278.766 479.731C279.522 478.422 283.794 479.171 287.817 480.056C291.84 480.941 290.909 478.964 290.054 477.931C286.252 474.861 281.374 472.055 275.421 469.514Z" fill="#B28B67"/>
<path fill-rule="evenodd" clip-rule="evenodd" d="M203.108 386.571L209.353 385.499C219.191 420.3 269.738 444.022 272.841 457.031C273.979 461.802 270.548 464.214 272.321 465.667L264.203 471.613C262.828 470.009 259.895 472.944 253.769 470.891C247.643 468.837 203.108 427.778 203.108 386.571Z" fill="#DB2721"/>
<path fill-rule="evenodd" clip-rule="evenodd" d="M193.109 379.383C190.905 379.229 188.994 380.891 188.84 383.094L188.621 386.222C176.868 395.272 147.738 422.319 140.148 472.666C139.35 477.955 140.792 480.788 141.944 483.051C142.733 484.6 143.385 485.882 143.092 487.501L153.716 490.436C153.716 489.24 155.055 488.33 156.782 487.157C159.294 485.451 162.627 483.186 163.86 478.673C165.028 474.394 166.738 469.051 168.782 463.106C168.975 470.979 170.467 478.219 173.717 484.216C181.826 499.177 228.684 482.77 233.58 467.507C236.192 459.363 232.486 452.525 227.583 443.482C221.36 432.002 213.21 416.969 213.613 391.198L214.056 384.859C214.21 382.655 212.548 380.744 210.345 380.589L193.109 379.383Z" fill="#FF4133"/>
<path fill-rule="evenodd" clip-rule="evenodd" d="M406.859 332.23C402.176 335.053 397.574 336.417 395.413 335.86C389.996 334.464 389.498 314.647 393.69 306.835C397.881 299.022 419.428 295.617 420.514 311.096C420.891 316.468 418.635 321.263 415.302 325.175L421.278 353.029H403.919L406.859 332.23Z" fill="#B28B67"/>
<path fill-rule="evenodd" clip-rule="evenodd" d="M394.823 303.805C394.975 302.861 394.674 302.398 398.47 299.739C402.265 297.079 408.393 293.943 414.565 295.308C422.575 297.079 425.756 302.363 428.845 304.931C431.63 307.247 434.423 307.517 436.079 310.39C437.735 313.264 438.616 321.53 437.176 324.817C435.19 329.35 431.273 330.571 428.415 331.877C423.511 334.117 416.581 331.751 416.413 331.359C415.114 328.328 408.124 319.777 403.919 316.184C400.828 313.542 394.109 308.236 394.823 303.805Z" fill="#5C63AB"/>
<mask id="mask0" mask-type="alpha" maskUnits="userSpaceOnUse" x="394" y="294" width="44" height="39">
<path fill-rule="evenodd" clip-rule="evenodd" d="M394.823 303.805C394.975 302.861 394.674 302.398 398.47 299.739C402.265 297.079 408.393 293.943 414.565 295.308C422.575 297.079 425.756 302.363 428.845 304.931C431.63 307.247 434.423 307.517 436.079 310.39C437.735 313.264 438.616 321.53 437.176 324.817C435.19 329.35 431.273 330.571 428.415 331.877C423.511 334.117 416.581 331.751 416.413 331.359C415.114 328.328 408.124 319.777 403.919 316.184C400.828 313.542 394.109 308.236 394.823 303.805Z" fill="white"/>
</mask>
<g mask="url(#mask0)">
<path fill-rule="evenodd" clip-rule="evenodd" d="M418.65 325.705C426.951 315.468 428.904 303.121 428.904 303.121L431.405 304.703C431.405 304.703 428.329 318.195 418.65 325.705ZM415.492 331.33C428.925 319.526 432.129 306.262 432.129 306.262L435.021 307.115C435.021 307.115 431.036 321.948 415.492 331.33Z" fill="black" fill-opacity="0.2"/>
</g>
<path fill-rule="evenodd" clip-rule="evenodd" d="M432.828 414.107L405.65 503.131L392.484 578.84H382.161L396.073 414.107H432.828Z" fill="#997659"/>
<path fill-rule="evenodd" clip-rule="evenodd" d="M442.55 414.107C440.704 462.986 442.877 488.198 443.29 492.639C443.703 497.08 449.361 525.875 462.754 580.331L451.754 576.546C430.587 526.602 423.375 500.645 420.947 494.087C418.519 487.528 412.071 460.868 401.604 414.107H442.55Z" fill="#B28B67"/>
<path fill-rule="evenodd" clip-rule="evenodd" d="M460.111 575.922C461.193 575.47 462.47 575.945 462.854 577.052C463.342 578.46 463.883 580.266 463.883 581.342C463.883 583.299 463.232 587.054 463.232 587.054C460.966 587.054 422.498 587.054 422.498 587.054C422.498 587.054 420.91 581.795 424.331 581.376C427.752 580.956 430.015 580.618 430.015 580.618L448.686 572.278C449.201 572.048 449.804 572.289 450.018 572.811L451.127 575.504C451.127 575.504 454.293 576.985 456.273 576.985C457.315 576.985 458.871 576.439 460.111 575.922Z" fill="#E4E4E4"/>
<path fill-rule="evenodd" clip-rule="evenodd" d="M392.222 575.922C393.304 575.47 394.581 575.945 394.965 577.052C395.453 578.46 395.994 580.266 395.994 581.342C395.994 583.299 395.343 587.054 395.343 587.054C393.077 587.054 354.609 587.054 354.609 587.054C354.609 587.054 353.021 581.795 356.442 581.376C359.863 580.956 362.126 580.618 362.126 580.618L380.797 572.278C381.312 572.048 381.915 572.289 382.129 572.811L383.238 575.504C383.238 575.504 386.405 576.985 388.385 576.985C389.426 576.985 390.982 576.439 392.222 575.922Z" fill="#E4E4E4"/>
<path fill-rule="evenodd" clip-rule="evenodd" d="M436.439 414.107L424.883 459.464H389.588L394.851 414.107H436.439Z" fill="#69A1AC"/>
<path fill-rule="evenodd" clip-rule="evenodd" d="M442.939 414.107C448.642 431.236 445.105 459.464 445.105 459.464H409.088L399.184 414.107H442.939Z" fill="#89C5CC"/>
<path fill-rule="evenodd" clip-rule="evenodd" d="M333.071 341.997L361.364 346.317L356.052 358.818L333.201 349.384C323.265 350.183 318.473 349.867 318.824 348.436C319.121 347.23 320.182 346.882 321.159 346.562C321.92 346.313 322.63 346.08 322.889 345.471C323.48 344.08 320.307 341.121 317.176 338.442C314.045 335.763 316.187 335.317 317.527 335.379C322.272 336.567 327.454 338.773 333.071 341.997ZM349.984 413.718L370.478 393.76L377.28 405.513L355.971 418.057C350.627 426.46 347.489 430.09 346.556 428.949C345.769 427.987 346.13 426.933 346.463 425.961C346.721 425.204 346.963 424.498 346.632 423.925C345.875 422.618 341.597 423.368 337.568 424.253C333.539 425.138 334.472 423.162 335.328 422.131C339.137 419.062 344.022 416.258 349.984 413.718Z" fill="#B28B67"/>
<path fill-rule="evenodd" clip-rule="evenodd" d="M399.627 343.67C390.439 368.577 374.943 388.857 351.454 410.977L362.892 420.705C390.496 405.809 404.95 397.13 409.423 374.19C410.546 368.433 409.409 350.741 409.251 341.371L399.627 343.67Z" fill="#2026A2"/>
<path fill-rule="evenodd" clip-rule="evenodd" d="M445.252 415.938L390.1 423.689C390.1 423.689 400.822 364.006 398.24 342.688C398.152 341.963 399.31 340.502 399.925 340.585C406.67 341.503 413.619 337.266 413.619 337.266C429.643 356.419 437.797 381.627 445.252 415.938Z" fill="#F2F2F2"/>
<path fill-rule="evenodd" clip-rule="evenodd" d="M404.285 371.235C400.855 409.328 405.496 439.465 424.513 436.793L453.919 432.66C454.186 400.672 435.806 358.954 421.347 338.642C420.795 337.866 419.648 336.419 417.468 336.725L408.924 337.926C408.922 337.938 408.919 337.95 408.917 337.961C406.349 338.344 403.53 338.836 400.478 339.368C384.765 342.11 362.855 345.933 336.97 341.476L336.097 356.453C360.47 367.664 384.671 375.601 404.285 371.235Z" fill="#1F28CF"/>
</svg>
