<svg width="500" height="318" viewBox="0 0 500 318" fill="none" xmlns="http://www.w3.org/2000/svg">
<g clip-path="url(#clip0)">
<path d="M375.574 198.237L359.625 200.303L358.812 200.408L337.585 203.158L240.691 215.714C236.547 212.852 232.637 209.908 229.006 206.894L339.89 200.346L359.069 199.212L359.874 199.165L375.574 198.237Z" fill="#E6E6E6"/>
<path d="M305.217 120.172L220.972 131.089C223.417 129.012 225.969 126.881 228.629 124.697L305.217 120.172Z" fill="#E6E6E6"/>
<path d="M500 188.931C498.41 191.553 496.7 194.119 494.869 196.629L421.675 187.145L381.404 181.925L421.018 184.267L500 188.931Z" fill="#E6E6E6"/>
<path d="M465.619 225.249C438.677 244.529 402.679 256.301 363.135 256.301C330.79 256.301 293.614 245.232 262.992 229.141C265.413 222.869 268.787 217.785 273.479 215.21C273.596 215.144 273.716 215.078 273.837 215.019C275.84 213.99 278.052 213.431 280.305 213.384C307.903 212.607 304.794 243.678 339.389 200.956C360.904 174.387 385.276 165.244 401.936 168.2C402.243 168.254 402.547 168.312 402.85 168.374C412.505 170.378 419.413 176.554 421.407 185.809C426.849 211.054 410.912 231.25 440.065 225.036C448.5 223.282 457.214 223.355 465.619 225.249Z" fill="#48BB78"/>
<path d="M383.888 255.27C370.33 247.718 361.89 237.408 358.801 224.626C356.508 215.135 357.167 204.456 360.76 192.884C363.423 184.352 367.416 176.294 372.592 169.005C400.049 130.171 402.528 104.868 399.772 90.4785C396.75 74.7011 386.932 68.1486 386.833 68.0843L387.257 67.4331C387.358 67.4989 397.435 74.2037 400.529 90.3011C402.313 99.5814 401.474 110.163 398.035 121.753C393.754 136.177 385.408 152.225 373.227 169.453C368.098 176.675 364.141 184.66 361.502 193.114C355.61 212.093 354.776 238.165 384.267 254.592L383.888 255.27Z" fill="#3F3D56"/>
<path d="M359.903 181.811C349.215 175.857 349.512 166.422 351.644 159.556C352.589 156.527 354.006 153.667 355.844 151.079C365.463 137.475 366.332 128.637 365.368 123.619C364.32 118.17 360.959 115.932 360.925 115.91L361.349 115.259C361.498 115.356 365.022 117.702 366.131 123.472C367.576 130.987 364.328 140.426 356.479 151.528C354.689 154.048 353.307 156.835 352.386 159.786C350.34 166.378 350.048 175.433 360.282 181.132L359.903 181.811Z" fill="#3F3D56"/>
<path d="M407.993 98.6967L407.615 98.0182C417.848 92.3181 417.557 83.2635 415.51 76.6716C414.589 73.721 413.208 70.934 411.418 68.4133C403.568 57.3119 400.321 47.8728 401.765 40.3582C402.875 34.5873 406.398 32.2418 406.547 32.1449L406.972 32.7958C406.938 32.8181 403.56 35.0847 402.523 40.5354C401.569 45.5508 402.448 54.3809 412.053 67.965C413.89 70.5523 415.307 73.4129 416.252 76.4414C418.384 83.3079 418.682 92.7429 407.993 98.6967Z" fill="#3F3D56"/>
<path d="M430.815 60.0513C429.125 62.6398 426.476 64.4519 423.45 65.0888C420.424 65.7257 417.268 65.1353 414.677 63.4475C412.087 61.7596 410.273 59.1127 409.636 56.0888C408.998 53.065 409.589 49.912 411.278 47.3235L411.282 47.3184C414.801 41.929 432.517 36.1198 432.517 36.1198C432.517 36.1198 434.334 54.6619 430.815 60.0513Z" fill="#48BB78"/>
<path d="M426.539 23.9316C424.85 26.5201 422.2 28.3321 419.174 28.969C416.148 29.6059 412.992 29.0155 410.401 27.3277C407.811 25.6399 405.997 22.9929 405.36 19.9691C404.722 16.9453 405.313 13.7923 407.002 11.2037L407.006 11.1987C410.525 5.80926 428.241 0 428.241 0C428.241 0 430.058 18.5422 426.539 23.9316Z" fill="#48BB78"/>
<path d="M425.986 133.268C425.239 133.093 407.635 129.004 401.765 131.796C399.295 132.972 397.298 134.952 396.104 137.412C394.91 139.871 394.589 142.664 395.194 145.33C395.799 147.996 397.295 150.377 399.434 152.082C401.574 153.786 404.23 154.712 406.966 154.707C407.842 154.708 408.716 154.611 409.57 154.42C410.453 154.222 411.311 153.927 412.128 153.538C417.998 150.742 425.912 134.507 426.246 133.816L426.46 133.381L425.986 133.268ZM411.794 152.835C410.458 153.471 409.009 153.838 407.531 153.915C406.052 153.991 404.573 153.776 403.178 153.282C401.783 152.787 400.499 152.023 399.4 151.033C398.3 150.043 397.407 148.846 396.77 147.51C396.134 146.175 395.767 144.728 395.69 143.251C395.613 141.774 395.829 140.296 396.323 138.902C396.818 137.508 397.583 136.225 398.574 135.127C399.565 134.028 400.763 133.135 402.099 132.499C403.468 131.847 405.559 131.602 407.946 131.602C414.476 131.602 423.206 133.447 425.329 133.917C424.003 136.573 416.902 150.404 411.794 152.835V152.835Z" fill="#3F3D56"/>
<path d="M373.007 67.2864C370.005 67.2913 367.11 66.1718 364.894 64.1488C360.089 59.7715 357.237 41.9385 357.118 41.1814L357.043 40.7028L357.527 40.7335C358.292 40.7822 376.327 41.9781 381.132 46.3554C382.929 47.9912 384.189 50.1321 384.745 52.4967C385.302 54.8612 385.129 57.3387 384.25 59.6034C383.371 61.8681 381.827 63.8141 379.82 65.1853C377.813 66.5566 375.438 67.2891 373.007 67.2864H373.007ZM357.966 41.544C358.464 44.4683 361.238 59.767 365.417 63.575C367.627 65.5863 370.545 66.6386 373.531 66.5004C376.517 66.3623 379.326 65.0449 381.339 62.8381C383.353 60.6313 384.408 57.7157 384.27 54.7323C384.133 51.749 382.816 48.9423 380.608 46.9292V46.9292C376.428 43.1216 360.926 41.7697 357.966 41.544V41.544Z" fill="#3F3D56"/>
<path d="M356.77 95.1902C357.901 96.2212 358.819 97.4647 359.469 98.8499C360.12 100.235 360.491 101.735 360.562 103.263C360.632 104.792 360.401 106.319 359.88 107.758C359.36 109.197 358.561 110.52 357.53 111.651C356.498 112.781 355.253 113.698 353.867 114.348C352.481 114.998 350.98 115.369 349.45 115.439C347.92 115.51 346.392 115.278 344.951 114.759C343.511 114.239 342.187 113.441 341.056 112.41C336.297 108.074 333.402 89.6691 333.402 89.6691C333.402 89.6691 352.011 90.8545 356.77 95.1902Z" fill="#48BB78"/>
<path d="M392.51 95.6183C392.188 94.1365 391.369 92.8088 390.19 91.8548C389.01 90.9007 387.54 90.3774 386.022 90.3712C385.544 90.373 385.067 90.425 384.6 90.5266C381.125 91.28 374.948 98.8419 374.687 99.1604L374.38 99.5371L374.816 99.7546C375.158 99.9255 382.598 103.607 386.493 103.607C386.803 103.611 387.113 103.581 387.418 103.518C389.141 103.144 390.645 102.102 391.6 100.621C392.555 99.1398 392.882 97.3405 392.51 95.6183H392.51ZM390.947 100.201C390.532 100.852 389.991 101.413 389.357 101.853C388.722 102.292 388.006 102.601 387.251 102.761C384.46 103.367 377.439 100.147 375.605 99.273C376.911 97.7194 381.972 91.8898 384.767 91.2839C385.902 91.0382 387.086 91.1347 388.167 91.561C389.248 91.9873 390.178 92.7244 390.839 93.679C391.501 94.6336 391.864 95.7628 391.883 96.9238C391.903 98.0847 391.577 99.2253 390.947 100.201V100.201Z" fill="#3F3D56"/>
<path d="M110.5 318C171.527 318 221 315.538 221 312.5C221 309.462 171.527 307 110.5 307C49.4725 307 0 309.462 0 312.5C0 315.538 49.4725 318 110.5 318Z" fill="#E6E6E6"/>
<path d="M104 163.834L127.545 140.787C128.312 140.037 129.265 139.495 130.311 139.216C131.357 138.936 132.459 138.928 133.509 139.193C134.559 139.458 135.52 139.986 136.298 140.725C137.075 141.464 137.643 142.389 137.943 143.409V143.409C138.253 144.458 138.269 145.568 137.991 146.625C137.713 147.682 137.151 148.646 136.362 149.418L121.331 164.132L142.31 180.5L142.299 180.516C142.404 180.511 142.507 180.5 142.614 180.5C143.875 180.5 145.109 180.866 146.158 181.551C147.208 182.236 148.026 183.211 148.511 184.351C148.995 185.491 149.123 186.747 148.88 187.958C148.636 189.17 148.031 190.284 147.141 191.159C146.251 192.034 145.116 192.632 143.879 192.876C142.642 193.121 141.359 193.001 140.192 192.532C139.025 192.064 138.025 191.267 137.32 190.243C136.615 189.219 136.236 188.013 136.23 186.778L104 163.834Z" fill="#A0616A"/>
<path d="M173.033 307L180 304.459L173.283 277L163 280.749L173.033 307Z" fill="#A0616A"/>
<path d="M195.997 305.875L174.239 313.928L171.101 305.594L184.75 300.543C186.901 299.747 189.282 299.83 191.37 300.775C193.459 301.72 195.083 303.448 195.886 305.58L195.997 305.875V305.875Z" fill="#2F2E41"/>
<path d="M111.001 305L118.454 304.999L122 277L111 277.001L111.001 305Z" fill="#A0616A"/>
<path d="M132.682 311.606L109.458 311.607L109.457 302.711L124.027 302.711C126.322 302.711 128.524 303.615 130.147 305.224C131.77 306.833 132.682 309.015 132.682 311.291L132.682 311.606Z" fill="#2F2E41"/>
<path d="M129.799 172.616C129.799 172.616 147.691 169.633 153.654 176.792L179 294.017L164.687 295.807C164.687 295.807 159.916 234.957 136.061 218.85C136.061 218.85 118.767 272.541 121.748 297L109.225 295.807C109.225 295.807 105.348 192.899 129.799 172.616Z" fill="#2F2E41"/>
<path d="M167.046 214.902L169.11 212.242L168.771 211.989L170.163 210.196C170.489 209.776 170.727 209.298 170.864 208.788C171.001 208.278 171.035 207.747 170.963 207.225C170.891 206.702 170.715 206.198 170.445 205.743C170.175 205.287 169.816 204.888 169.389 204.568L169.389 204.568L164.382 200.822C163.955 200.502 163.468 200.268 162.949 200.133C162.43 199.999 161.889 199.966 161.357 200.036C160.824 200.107 160.312 200.279 159.847 200.545C159.383 200.81 158.977 201.162 158.651 201.582L158.651 201.582L146.837 216.804C146.511 217.224 146.273 217.702 146.136 218.212C145.999 218.722 145.965 219.253 146.037 219.775C146.109 220.298 146.285 220.802 146.555 221.257C146.825 221.713 147.184 222.112 147.611 222.432L147.611 222.432L152.618 226.178C153.48 226.824 154.569 227.106 155.643 226.964C156.718 226.821 157.691 226.265 158.349 225.418L158.349 225.418L163.869 218.306L164.208 218.559L166.272 215.899L165.933 215.646L166.707 214.649L167.046 214.902Z" fill="#E6E6E6"/>
<path d="M163 210C164.105 210 165 208.881 165 207.5C165 206.119 164.105 205 163 205C161.895 205 161 206.119 161 207.5C161 208.881 161.895 210 163 210Z" fill="white"/>
<path d="M134 126C141.732 126 148 119.732 148 112C148 104.268 141.732 98 134 98C126.268 98 120 104.268 120 112C120 119.732 126.268 126 134 126Z" fill="#A0616A"/>
<path d="M120 138.781C120 138.781 133.459 123.447 144.471 135.832C151.557 143.801 155.304 154.031 154.981 164.522L154.565 178L129.177 174.167L120 138.781Z" fill="#CCCCCC"/>
<path d="M139.418 134.001C138.473 134.013 137.542 134.23 136.69 134.636C135.839 135.042 135.086 135.628 134.485 136.353C133.884 137.077 133.449 137.924 133.211 138.832C132.972 139.741 132.936 140.691 133.104 141.615L146.82 217.078L146.744 217.182C146.197 217.923 145.823 218.777 145.65 219.68C145.476 220.583 145.508 221.513 145.742 222.403C145.976 223.292 146.407 224.118 147.003 224.821C147.599 225.524 148.345 226.086 149.188 226.466C150.558 227.067 152.098 227.164 153.533 226.74C154.968 226.315 156.205 225.397 157.021 224.15C157.832 222.892 158.155 221.384 157.93 219.907C157.704 218.43 156.946 217.085 155.796 216.123L155.707 216.048L145.955 139.651C145.756 138.09 144.992 136.654 143.804 135.614C142.616 134.573 141.087 134 139.504 134C139.476 134 139.446 134 139.418 134.001Z" fill="#A0616A"/>
<path d="M136.324 114.369L142.496 107.239C144.087 105.402 145.75 103.4 145.975 101C146.222 98.3694 144.59 95.8121 142.359 94.331C140.128 92.8498 137.388 92.2924 134.701 92.0879C129.719 91.7085 124.476 92.5159 120.38 95.3233C116.284 98.1307 113.604 103.199 114.603 108C115.389 111.781 118.287 115.402 117.161 119.099C115.928 123.144 110.875 124.385 106.749 125.591C99.823 127.616 93.2098 131.602 89.5802 137.729C85.9507 143.857 85.9665 152.306 90.8048 157.57C93.9378 160.978 98.663 162.702 103.335 162.961C108.007 163.221 112.658 162.142 117.089 160.666C121.17 159.307 125.206 157.559 128.419 154.742C131.632 151.925 133.946 147.895 133.846 143.67C133.751 139.644 131.551 135.977 130.647 132.048C129.935 128.759 130.122 125.343 131.19 122.147C132.257 118.951 134.168 116.089 136.728 113.851" fill="#2F2E41"/>
<path d="M126.984 90.7807L130.816 90.045C131.133 89.9842 131.459 89.985 131.775 90.0474C132.092 90.1098 132.392 90.2326 132.66 90.4087C132.928 90.5849 133.158 90.8109 133.337 91.0739C133.515 91.3369 133.639 91.6318 133.701 91.9417L139 109.338L130.345 111L125.046 93.6034C124.92 92.9776 125.054 92.3286 125.418 91.7992C125.781 91.2699 126.345 90.9035 126.984 90.7807Z" fill="#48BB78"/>
<path d="M135 120C138.866 120 142 116.866 142 113C142 109.134 138.866 106 135 106C131.134 106 128 109.134 128 113C128 116.866 131.134 120 135 120Z" fill="white"/>
<path d="M135 117C137.209 117 139 115.209 139 113C139 110.791 137.209 109 135 109C132.791 109 131 110.791 131 113C131 115.209 132.791 117 135 117Z" fill="#48BB78"/>
</g>
<defs>
<clipPath id="clip0">
<rect width="500" height="318" fill="white"/>
</clipPath>
</defs>
</svg>
