<svg width="233" height="32" viewBox="0 0 233 32" fill="none" xmlns="http://www.w3.org/2000/svg">
<path d="M12.091 16.971L16.282 11.064V24H20.605V1.56H17.998L11.101 11.922L3.511 1.56H0.805V24H5.062V10.305L10.441 17.202L12.091 16.971ZM26.9915 5.718C27.6735 5.718 28.2455 5.487 28.7075 5.025C29.1915 4.563 29.4335 3.991 29.4335 3.309C29.4335 2.627 29.1915 2.055 28.7075 1.593C28.2455 1.131 27.6735 0.899998 26.9915 0.899998C26.3315 0.899998 25.7705 1.131 25.3085 1.593C24.8465 2.055 24.6155 2.627 24.6155 3.309C24.6155 3.991 24.8465 4.563 25.3085 5.025C25.7705 5.487 26.3315 5.718 26.9915 5.718ZM29.1695 24V7.995H24.8795V24H29.1695ZM35.7443 24L38.9453 19.182L41.9153 24H46.6343L41.7173 16.476L47.1623 7.995H42.4763L39.1763 13.11L35.5463 7.467L31.5533 8.688L36.4373 15.849L30.9923 24H35.7443ZM53.8865 8.028V3.474L49.6295 4.233V8.028H47.4845V11.328H49.6295V18.885C49.6295 20.711 50.1905 22.13 51.3125 23.142C52.4345 24.154 53.9965 24.66 55.9985 24.66C56.5265 24.66 57.1095 24.561 57.7475 24.363C58.4075 24.165 58.9025 23.934 59.2325 23.67L57.9785 20.568C57.3845 20.854 56.8015 20.997 56.2295 20.997C55.4815 20.997 54.8985 20.733 54.4805 20.205C54.0845 19.677 53.8865 18.984 53.8865 18.126V11.328H58.1105L56.7905 8.028H53.8865ZM62.7589 12.582C63.3749 12.296 64.1229 12.054 65.0029 11.856C65.8829 11.636 66.6859 11.526 67.4119 11.526C68.2039 11.526 68.8199 11.757 69.2599 12.219C69.7219 12.659 69.9639 13.286 69.9859 14.1H66.8509C65.0029 14.1 63.5289 14.551 62.4289 15.453C61.3289 16.333 60.7789 17.587 60.7789 19.215C60.7789 20.799 61.2629 22.064 62.2309 23.01C63.1989 23.934 64.6399 24.396 66.5539 24.396C68.0279 24.396 69.4359 23.692 70.7779 22.284L71.5039 24H74.3089V13.473C74.3089 12.351 73.9899 11.339 73.3519 10.437C72.7359 9.535 71.8999 8.831 70.8439 8.325C69.7879 7.819 68.6219 7.566 67.3459 7.566C66.5979 7.566 65.5969 7.72 64.3429 8.028C63.0889 8.314 62.1759 8.644 61.6039 9.018L62.7589 12.582ZM64.4419 19.215C64.4419 18.599 64.6509 18.071 65.0689 17.631C65.5089 17.191 66.0809 16.971 66.7849 16.971H70.0189V19.413C68.9409 20.469 67.7639 20.997 66.4879 20.997C65.8939 20.997 65.3989 20.821 65.0029 20.469C64.6289 20.117 64.4419 19.699 64.4419 19.215ZM84.9326 7.566C87.4186 7.566 89.3766 8.325 90.8066 9.843C92.2586 11.339 92.9846 13.374 92.9846 15.948C92.9846 17.62 92.6546 19.094 91.9946 20.37C91.3566 21.646 90.4216 22.636 89.1896 23.34C87.9576 24.044 86.4946 24.396 84.8006 24.396C83.8986 24.396 82.9416 24.143 81.9296 23.637V30.897L77.6726 31.227V7.995H79.8506L80.7086 9.084C82.0066 8.072 83.4146 7.566 84.9326 7.566ZM84.7676 20.733C85.9336 20.733 86.8576 20.293 87.5396 19.413C88.2216 18.511 88.5626 17.356 88.5626 15.948C88.5626 14.54 88.2216 13.407 87.5396 12.549C86.8796 11.669 85.9556 11.229 84.7676 11.229C83.8436 11.229 82.8976 11.548 81.9296 12.186V19.809C82.8316 20.425 83.7776 20.733 84.7676 20.733ZM109.643 15.948C109.643 14.386 109.379 12.978 108.851 11.724C108.323 10.448 107.509 9.436 106.409 8.688C105.309 7.94 103.956 7.566 102.35 7.566C100.7 7.566 99.2701 7.918 98.0601 8.622C96.8501 9.304 95.9151 10.283 95.2551 11.559C94.6171 12.835 94.2981 14.32 94.2981 16.014C94.2981 18.632 95.0791 20.689 96.6411 22.185C98.2251 23.659 100.535 24.396 103.571 24.396C104.869 24.396 105.991 24.231 106.937 23.901C107.883 23.549 108.763 23.054 109.577 22.416L108.323 19.314C107.509 19.776 106.75 20.128 106.046 20.37C105.342 20.612 104.55 20.733 103.67 20.733C102.152 20.733 101.019 20.436 100.271 19.842C99.5451 19.248 99.0721 18.39 98.8521 17.268H109.643V15.948ZM98.8851 14.397C99.0611 13.363 99.4461 12.582 100.04 12.054C100.634 11.504 101.371 11.229 102.251 11.229C103.131 11.229 103.846 11.493 104.396 12.021C104.968 12.549 105.364 13.341 105.584 14.397H98.8851Z" fill="#48BB78"/>
<path d="M124.218 16.971L128.409 11.064V24H132.732V1.56H130.125L123.228 11.922L115.638 1.56H112.932V24H117.189V10.305L122.568 17.202L124.218 16.971ZM138.557 12.582C139.173 12.296 139.921 12.054 140.801 11.856C141.681 11.636 142.484 11.526 143.21 11.526C144.002 11.526 144.618 11.757 145.058 12.219C145.52 12.659 145.762 13.286 145.784 14.1H142.649C140.801 14.1 139.327 14.551 138.227 15.453C137.127 16.333 136.577 17.587 136.577 19.215C136.577 20.799 137.061 22.064 138.029 23.01C138.997 23.934 140.438 24.396 142.352 24.396C143.826 24.396 145.234 23.692 146.576 22.284L147.302 24H150.107V13.473C150.107 12.351 149.788 11.339 149.15 10.437C148.534 9.535 147.698 8.831 146.642 8.325C145.586 7.819 144.42 7.566 143.144 7.566C142.396 7.566 141.395 7.72 140.141 8.028C138.887 8.314 137.974 8.644 137.402 9.018L138.557 12.582ZM140.24 19.215C140.24 18.599 140.449 18.071 140.867 17.631C141.307 17.191 141.879 16.971 142.583 16.971H145.817V19.413C144.739 20.469 143.562 20.997 142.286 20.997C141.692 20.997 141.197 20.821 140.801 20.469C140.427 20.117 140.24 19.699 140.24 19.215ZM157.563 12.912C158.355 12.34 159.081 11.889 159.741 11.559C160.401 11.207 161.105 11.031 161.853 11.031C162.579 11.031 163.14 11.306 163.536 11.856C163.954 12.406 164.163 13.176 164.163 14.166V24H168.453V13.968C168.453 11.922 168.046 10.327 167.232 9.183C166.418 8.039 164.999 7.467 162.975 7.467C162.095 7.467 161.094 7.665 159.972 8.061C158.85 8.457 157.794 9.007 156.804 9.711L156.078 7.995H153.273V24H157.563V12.912ZM173.185 12.582C173.801 12.296 174.549 12.054 175.429 11.856C176.309 11.636 177.112 11.526 177.838 11.526C178.63 11.526 179.246 11.757 179.686 12.219C180.148 12.659 180.39 13.286 180.412 14.1H177.277C175.429 14.1 173.955 14.551 172.855 15.453C171.755 16.333 171.205 17.587 171.205 19.215C171.205 20.799 171.689 22.064 172.657 23.01C173.625 23.934 175.066 24.396 176.98 24.396C178.454 24.396 179.862 23.692 181.204 22.284L181.93 24H184.735V13.473C184.735 12.351 184.416 11.339 183.778 10.437C183.162 9.535 182.326 8.831 181.27 8.325C180.214 7.819 179.048 7.566 177.772 7.566C177.024 7.566 176.023 7.72 174.769 8.028C173.515 8.314 172.602 8.644 172.03 9.018L173.185 12.582ZM174.868 19.215C174.868 18.599 175.077 18.071 175.495 17.631C175.935 17.191 176.507 16.971 177.211 16.971H180.445V19.413C179.367 20.469 178.19 20.997 176.914 20.997C176.32 20.997 175.825 20.821 175.429 20.469C175.055 20.117 174.868 19.699 174.868 19.215ZM202.817 7.995V24.759C202.817 26.959 202.047 28.642 200.507 29.808C198.967 30.996 196.899 31.59 194.303 31.59C193.489 31.59 192.389 31.414 191.003 31.062C189.617 30.732 188.539 30.303 187.769 29.775L189.056 26.739C190.046 27.223 190.948 27.575 191.762 27.795C192.576 28.015 193.39 28.136 194.204 28.158C195.502 28.136 196.536 27.817 197.306 27.201C198.098 26.585 198.494 25.76 198.494 24.726V23.373C197.394 24.055 196.217 24.396 194.963 24.396C192.477 24.396 190.508 23.648 189.056 22.152C187.626 20.634 186.911 18.588 186.911 16.014C186.911 14.342 187.23 12.868 187.868 11.592C188.528 10.316 189.474 9.326 190.706 8.622C191.938 7.918 193.401 7.566 195.095 7.566C195.821 7.566 196.591 7.742 197.405 8.094C198.241 8.446 198.978 8.897 199.616 9.447L200.573 7.995H202.817ZM195.128 20.733C195.7 20.733 196.25 20.623 196.778 20.403C197.328 20.183 197.9 19.853 198.494 19.413V12.582C197.922 12.098 197.372 11.757 196.844 11.559C196.316 11.339 195.744 11.229 195.128 11.229C193.962 11.229 193.038 11.68 192.356 12.582C191.674 13.462 191.333 14.606 191.333 16.014C191.333 17.422 191.663 18.566 192.323 19.446C193.005 20.304 193.94 20.733 195.128 20.733ZM220.682 15.948C220.682 14.386 220.418 12.978 219.89 11.724C219.362 10.448 218.548 9.436 217.448 8.688C216.348 7.94 214.995 7.566 213.389 7.566C211.739 7.566 210.309 7.918 209.099 8.622C207.889 9.304 206.954 10.283 206.294 11.559C205.656 12.835 205.337 14.32 205.337 16.014C205.337 18.632 206.118 20.689 207.68 22.185C209.264 23.659 211.574 24.396 214.61 24.396C215.908 24.396 217.03 24.231 217.976 23.901C218.922 23.549 219.802 23.054 220.616 22.416L219.362 19.314C218.548 19.776 217.789 20.128 217.085 20.37C216.381 20.612 215.589 20.733 214.709 20.733C213.191 20.733 212.058 20.436 211.31 19.842C210.584 19.248 210.111 18.39 209.891 17.268H220.682V15.948ZM209.924 14.397C210.1 13.363 210.485 12.582 211.079 12.054C211.673 11.504 212.41 11.229 213.29 11.229C214.17 11.229 214.885 11.493 215.435 12.021C216.007 12.549 216.403 13.341 216.623 14.397H209.924ZM227.27 14.232C228.194 13.418 229.184 12.747 230.24 12.219C231.318 11.691 232.22 11.427 232.946 11.427L232.088 7.995C231.296 7.995 230.383 8.27 229.349 8.82C228.315 9.37 227.413 9.986 226.643 10.668L225.224 7.995H222.98V24H227.27V14.232Z" fill="#1A202C"/>
</svg>
