<svg width="154" height="49" viewBox="0 0 154 49" fill="none" xmlns="http://www.w3.org/2000/svg">
<path d="M16.3136 34.4016L10.7911 16.4063H10.6499C10.8486 20.0671 10.948 22.5093 10.948 23.7331V34.4016H6.60211V11.4642H13.2229L18.6513 29.0046H18.7454L24.5033 11.4642H31.1241V34.4016H26.5899V23.5448C26.5899 23.0323 26.5952 22.4413 26.6056 21.7719C26.6266 21.1025 26.6998 19.3244 26.8253 16.4377H26.6841L20.7693 34.4016H16.3136ZM36.3328 12.3271C36.3328 10.7687 37.201 9.98947 38.9372 9.98947C40.6735 9.98947 41.5416 10.7687 41.5416 12.3271C41.5416 13.0697 41.322 13.6502 40.8827 14.0686C40.4538 14.4765 39.8053 14.6805 38.9372 14.6805C37.201 14.6805 36.3328 13.896 36.3328 12.3271ZM41.322 34.4016H36.5368V16.8613H41.322V34.4016ZM49.9509 25.4432L44.3029 16.8613H49.7313L53.1358 22.4466L56.5717 16.8613H62.0001L56.2893 25.4432L62.2668 34.4016H56.8227L53.1358 28.3927L49.4332 34.4016H44.0048L49.9509 25.4432Z" fill="#38C172"/>
<path d="M77.6107 12.6607C75.9828 13.1962 74.7189 14.0852 73.8193 15.3276C72.941 16.5486 72.5019 18.0694 72.5019 19.8902C72.5019 20.7042 72.5768 21.2611 72.7268 21.561C72.8767 21.8609 72.9517 22.043 72.9517 22.1073C70.6597 22.1073 69.5137 21.1326 69.5137 19.1833C69.5137 17.8552 70.0171 16.5272 71.0238 15.1991C72.052 13.8496 73.3587 12.7571 74.9438 11.9217C76.5504 11.0649 78.1462 10.6364 79.7314 10.6364C80.524 10.6364 81.3379 10.7864 82.1734 11.0863L81.4343 28.0194L88.5032 11.0863H93.1301L89.7563 34.7348H85.1294L87.1858 20.3079L81.1452 34.7348H76.7432L77.3858 20.2437L72.0199 34.7348H69.4494L77.6107 12.6607ZM96.4431 34.9276C95.2221 34.9276 94.2046 34.5099 93.3906 33.6745C92.5766 32.8391 92.1697 31.5324 92.1697 29.7545C92.1697 28.1693 92.4803 26.5092 93.1015 24.7741C93.7441 23.0176 94.6866 21.5396 95.929 20.34C97.1928 19.1191 98.6923 18.5086 100.427 18.5086C101.306 18.5086 101.959 18.6585 102.387 18.9584C102.816 19.2583 103.03 19.6546 103.03 20.1473V20.3722L103.383 18.6692H108.01L105.697 29.5938C105.611 29.9151 105.568 30.2579 105.568 30.622C105.568 31.5431 106.007 32.0037 106.886 32.0037C107.486 32.0037 108 31.7252 108.428 31.1682C108.878 30.6113 109.231 29.883 109.488 28.9833H110.838C110.045 31.2968 109.06 32.8712 107.882 33.7066C106.725 34.5206 105.558 34.9276 104.379 34.9276C103.48 34.9276 102.752 34.6813 102.195 34.1886C101.659 33.6745 101.338 32.9355 101.231 31.9715C100.609 32.8498 99.9133 33.5674 99.1421 34.1243C98.3924 34.6598 97.4927 34.9276 96.4431 34.9276ZM98.5316 31.8109C99.0671 31.8109 99.592 31.5645 100.106 31.0719C100.642 30.5578 101.006 29.8616 101.199 28.9833L102.741 21.7217C102.741 21.4432 102.634 21.1755 102.419 20.9184C102.205 20.6399 101.873 20.5007 101.423 20.5007C100.567 20.5007 99.7954 21.0041 99.11 22.0109C98.4245 22.9962 97.889 24.1958 97.5034 25.6096C97.1179 27.0019 96.9251 28.2336 96.9251 29.3046C96.9251 30.3757 97.075 31.0611 97.3749 31.361C97.6962 31.6609 98.0818 31.8109 98.5316 31.8109ZM121.581 34.9276C120.253 34.9276 119.247 34.617 118.561 33.9958C117.876 33.3532 117.533 32.4428 117.533 31.2646C117.533 30.7505 117.597 30.1936 117.726 29.5938L117.983 28.3407C118.068 27.9766 118.111 27.5803 118.111 27.1519C118.111 26.1237 117.726 25.6096 116.955 25.6096C116.612 25.6096 116.248 25.7059 115.862 25.8987C115.498 26.0915 115.07 26.3914 114.577 26.7984L112.906 34.7348H108.279L112.938 12.8856L117.694 12.243L115.284 23.5532L121.485 18.6692H124.666L118.24 23.1355C118.561 23.0498 118.915 23.0069 119.3 23.0069C120.457 23.0069 121.335 23.3604 121.935 24.0673C122.535 24.7741 122.835 25.6738 122.835 26.7663C122.835 27.2161 122.792 27.6231 122.706 27.9873L122.353 29.5938C122.246 29.9794 122.192 30.3221 122.192 30.622C122.192 31.4146 122.61 31.8109 123.445 31.8109C124.088 31.8109 124.602 31.5859 124.987 31.1361C125.373 30.6649 125.759 29.9473 126.144 28.9833H127.494C126.166 32.9462 124.195 34.9276 121.581 34.9276ZM130.725 34.9276C129.14 34.9276 127.908 34.5206 127.03 33.7066C126.152 32.8712 125.713 31.5752 125.713 29.8187C125.713 28.3407 126.002 26.7127 126.58 24.9348C127.159 23.1569 128.101 21.6253 129.408 20.34C130.715 19.0334 132.375 18.38 134.388 18.38C136.745 18.38 137.923 19.4082 137.923 21.4646C137.923 22.6642 137.58 23.7674 136.894 24.7741C136.209 25.7809 135.299 26.5949 134.163 27.2161C133.028 27.8159 131.818 28.1586 130.532 28.2443C130.49 28.8869 130.468 29.3153 130.468 29.5296C130.468 30.5792 130.65 31.2968 131.014 31.6823C131.379 32.0465 131.968 32.2286 132.782 32.2286C133.938 32.2286 134.924 31.9608 135.738 31.4253C136.573 30.8898 137.484 30.0758 138.469 28.9833H139.561C137.184 32.9462 134.238 34.9276 130.725 34.9276ZM130.79 26.702C131.582 26.6592 132.332 26.3807 133.039 25.8666C133.767 25.3525 134.345 24.6992 134.774 23.9066C135.224 23.114 135.449 22.2786 135.449 21.4004C135.449 20.5221 135.181 20.083 134.645 20.083C133.874 20.083 133.114 20.7578 132.364 22.1073C131.636 23.4568 131.111 24.9884 130.79 26.702ZM140.647 18.6692H145.274L144.856 20.6614C145.585 20.0187 146.238 19.5261 146.816 19.1833C147.416 18.8406 148.059 18.6692 148.744 18.6692C149.43 18.6692 149.965 18.9049 150.351 19.3761C150.758 19.8474 150.961 20.415 150.961 21.0791C150.961 21.7003 150.758 22.2465 150.351 22.7178C149.944 23.189 149.376 23.4246 148.648 23.4246C148.176 23.4246 147.855 23.3175 147.684 23.1033C147.534 22.8677 147.416 22.5357 147.33 22.1073C147.266 21.8288 147.202 21.6253 147.138 21.4968C147.073 21.3682 146.955 21.304 146.784 21.304C146.334 21.304 145.949 21.4004 145.627 21.5932C145.327 21.7645 144.931 22.0751 144.438 22.525L141.868 34.7348H137.241L140.647 18.6692Z" fill="#606F7B"/>
</svg>
