<svg width="160" height="160" viewBox="0 0 160 160" fill="none" xmlns="http://www.w3.org/2000/svg">
<rect width="160" height="160" rx="8" fill="#CBD5E0"/>
<path d="M34.6178 60C34.0845 59.7067 33.4711 59.4867 32.7778 59.34C32.0845 59.1933 31.4978 59.12 31.0178 59.12C29.7111 59.12 28.5578 59.4267 27.5578 60.04C26.5711 60.64 25.8045 61.48 25.2578 62.56C24.7245 63.64 24.4578 64.8733 24.4578 66.26C24.4578 67.5933 24.7045 68.7933 25.1978 69.86C25.6911 70.9133 26.4245 71.7467 27.3978 72.36C28.3711 72.9733 29.5445 73.28 30.9178 73.28C31.5045 73.28 32.1578 73.2 32.8778 73.04C33.6111 72.88 34.2311 72.6667 34.7378 72.4L33.7578 70.48C32.7578 70.8933 31.7645 71.1 30.7778 71.1C30.0311 71.1 29.3845 70.8867 28.8378 70.46C28.2911 70.02 27.8711 69.4333 27.5778 68.7C27.2978 67.9533 27.1578 67.1333 27.1578 66.24C27.1578 65.24 27.3178 64.3667 27.6378 63.62C27.9711 62.8733 28.4245 62.3 28.9978 61.9C29.5711 61.5 30.2178 61.3 30.9378 61.3C31.3911 61.3 31.7711 61.3333 32.0778 61.4C32.3845 61.4533 32.7978 61.56 33.3178 61.72L33.8178 61.86L34.6178 60ZM38.9269 73V58.88L36.3469 59.1V73H38.9269ZM42.6027 61.92C43.016 61.92 43.3627 61.78 43.6427 61.5C43.936 61.22 44.0827 60.8733 44.0827 60.46C44.0827 60.0467 43.936 59.7 43.6427 59.42C43.3627 59.14 43.016 59 42.6027 59C42.2027 59 41.8627 59.14 41.5827 59.42C41.3027 59.7 41.1627 60.0467 41.1627 60.46C41.1627 60.8733 41.3027 61.22 41.5827 61.5C41.8627 61.78 42.2027 61.92 42.6027 61.92ZM43.9227 73V63.3H41.3227V73H43.9227ZM54.0473 64.06C53.594 63.7533 53.034 63.5067 52.3673 63.32C51.7007 63.1333 51.1407 63.04 50.6873 63.04C49.6473 63.04 48.734 63.2533 47.9473 63.68C47.174 64.0933 46.574 64.6867 46.1473 65.46C45.734 66.2333 45.5273 67.1333 45.5273 68.16C45.5273 69.1867 45.734 70.0867 46.1473 70.86C46.574 71.62 47.174 72.2067 47.9473 72.62C48.734 73.0333 49.6473 73.24 50.6873 73.24C51.1807 73.24 51.7607 73.1533 52.4273 72.98C53.094 72.8067 53.634 72.56 54.0473 72.24L53.3073 70.36C52.8007 70.5867 52.3473 70.7533 51.9473 70.86C51.5473 70.9667 51.134 71.02 50.7073 71.02C49.974 71.02 49.374 70.7533 48.9073 70.22C48.4407 69.6867 48.2073 69 48.2073 68.16C48.2073 67.32 48.4407 66.6267 48.9073 66.08C49.3873 65.5333 49.9873 65.26 50.7073 65.26C51.134 65.26 51.5473 65.3133 51.9473 65.42C52.3473 65.5267 52.8007 65.6933 53.3073 65.92L54.0473 64.06ZM58.3409 73V69.82L59.3809 68.9L61.8209 73H64.8009L61.2409 67.24L63.9609 64.86L62.5009 63.02L58.3409 66.84V58.88L55.7609 59.1V73H58.3409ZM76.5652 73C78.0318 73 79.1985 72.6467 80.0652 71.94C80.9318 71.22 81.3652 70.24 81.3652 69C81.3652 67.48 80.6652 66.3533 79.2652 65.62C80.2385 64.86 80.7252 64.0533 80.7252 63.2C80.7252 61.8933 80.3318 60.9333 79.5452 60.32C78.7585 59.7067 77.6652 59.4 76.2652 59.4H70.9852V73H76.5652ZM75.8852 61.56C76.5785 61.56 77.0985 61.6867 77.4452 61.94C77.8052 62.1933 77.9852 62.6267 77.9852 63.24C77.9852 63.8 77.7585 64.2267 77.3052 64.52C76.8518 64.8 76.2452 64.94 75.4852 64.94H73.5652V61.56H75.8852ZM76.5452 67.04C77.1985 67.04 77.7118 67.2133 78.0852 67.56C78.4718 67.9067 78.6652 68.3933 78.6652 69.02C78.6652 69.6067 78.4585 70.06 78.0452 70.38C77.6318 70.7 77.0718 70.86 76.3652 70.86H73.5652V67.04H76.5452ZM89.4833 70.02C89.0033 70.3667 88.5633 70.6467 88.1633 70.86C87.7633 71.06 87.3366 71.16 86.8833 71.16C86.4433 71.16 86.0966 70.9933 85.8433 70.66C85.6033 70.3267 85.4833 69.86 85.4833 69.26V63.3H82.8833V69.38C82.8833 70.62 83.1299 71.5867 83.6233 72.28C84.1166 72.9733 84.9766 73.32 86.2033 73.32C86.7366 73.32 87.3433 73.2 88.0233 72.96C88.7033 72.72 89.3433 72.3867 89.9433 71.96L90.3833 73H92.0833V63.3H89.4833V70.02ZM95.5714 61.92C95.9847 61.92 96.3314 61.78 96.6114 61.5C96.9047 61.22 97.0514 60.8733 97.0514 60.46C97.0514 60.0467 96.9047 59.7 96.6114 59.42C96.3314 59.14 95.9847 59 95.5714 59C95.1714 59 94.8314 59.14 94.5514 59.42C94.2714 59.7 94.1314 60.0467 94.1314 60.46C94.1314 60.8733 94.2714 61.22 94.5514 61.5C94.8314 61.78 95.1714 61.92 95.5714 61.92ZM96.8914 73V63.3H94.2914V73H96.8914ZM101.876 73V58.88L99.2961 59.1V73H101.876ZM113.312 58.88V73H111.952L111.352 72.12C110.499 72.8667 109.565 73.24 108.552 73.24C107.045 73.24 105.852 72.7867 104.972 71.88C104.105 70.96 103.672 69.72 103.672 68.16C103.672 67.1467 103.865 66.2533 104.252 65.48C104.652 64.7067 105.225 64.1067 105.972 63.68C106.719 63.2533 107.605 63.04 108.632 63.04C108.952 63.04 109.292 63.1 109.652 63.22C110.012 63.3267 110.359 63.48 110.692 63.68V59.1L113.312 58.88ZM106.352 68.16C106.352 69.0133 106.552 69.7067 106.952 70.24C107.365 70.76 107.932 71.02 108.652 71.02C108.999 71.02 109.332 70.9533 109.652 70.82C109.985 70.6867 110.332 70.4867 110.692 70.22V66.08C110.345 65.7867 110.012 65.58 109.692 65.46C109.372 65.3267 109.025 65.26 108.652 65.26C107.945 65.26 107.385 65.5333 106.972 66.08C106.559 66.6133 106.352 67.3067 106.352 68.16ZM121.489 61.92C121.903 61.92 122.249 61.78 122.529 61.5C122.823 61.22 122.969 60.8733 122.969 60.46C122.969 60.0467 122.823 59.7 122.529 59.42C122.249 59.14 121.903 59 121.489 59C121.089 59 120.749 59.14 120.469 59.42C120.189 59.7 120.049 60.0467 120.049 60.46C120.049 60.8733 120.189 61.22 120.469 61.5C120.749 61.78 121.089 61.92 121.489 61.92ZM122.809 73V63.3H120.209V73H122.809ZM127.614 66.28C128.094 65.9333 128.534 65.66 128.934 65.46C129.334 65.2467 129.761 65.14 130.214 65.14C130.654 65.14 130.994 65.3067 131.234 65.64C131.487 65.9733 131.614 66.44 131.614 67.04V73H134.214V66.92C134.214 65.68 133.967 64.7133 133.474 64.02C132.981 63.3267 132.121 62.98 130.894 62.98C130.361 62.98 129.754 63.1 129.074 63.34C128.394 63.58 127.754 63.9133 127.154 64.34L126.714 63.3H125.014V73H127.614V66.28ZM36.4987 95.98H30.4988V84.4H27.9188V98H36.8988L36.4987 95.98ZM47.9577 93.12C47.9577 94.1467 47.7443 95.0467 47.3177 95.82C46.891 96.5933 46.2843 97.1933 45.4977 97.62C44.7243 98.0333 43.8177 98.24 42.7777 98.24C41.7377 98.24 40.8243 98.0333 40.0377 97.62C39.2643 97.2067 38.6643 96.62 38.2377 95.86C37.811 95.0867 37.5977 94.1867 37.5977 93.16C37.5977 92.1333 37.811 91.2333 38.2377 90.46C38.6643 89.6867 39.2643 89.0933 40.0377 88.68C40.8243 88.2533 41.7377 88.04 42.7777 88.04C43.8177 88.04 44.7243 88.2467 45.4977 88.66C46.2843 89.0733 46.891 89.6667 47.3177 90.44C47.7443 91.2 47.9577 92.0933 47.9577 93.12ZM42.7777 96.02C43.4977 96.02 44.091 95.7467 44.5577 95.2C45.0377 94.6533 45.2777 93.96 45.2777 93.12C45.2777 92.28 45.0443 91.5933 44.5777 91.06C44.111 90.5267 43.511 90.26 42.7777 90.26C42.0577 90.26 41.4577 90.5333 40.9777 91.08C40.511 91.6267 40.2777 92.32 40.2777 93.16C40.2777 94 40.511 94.6867 40.9777 95.22C41.4443 95.7533 42.0443 96.02 42.7777 96.02ZM59.5048 98L62.6048 88.3H59.8648L58.4848 93.94L56.9848 88.3H54.1248L52.7248 93.94L51.2248 87.94L48.6648 88.7L51.5648 98H53.7648L55.5048 92.06L57.3248 98H59.5048ZM72.6008 93.12C72.6008 92.1733 72.4408 91.32 72.1208 90.56C71.8008 89.7867 71.3074 89.1733 70.6408 88.72C69.9741 88.2667 69.1541 88.04 68.1808 88.04C67.1808 88.04 66.3141 88.2533 65.5808 88.68C64.8474 89.0933 64.2808 89.6867 63.8808 90.46C63.4941 91.2333 63.3008 92.1333 63.3008 93.16C63.3008 94.7467 63.7741 95.9933 64.7208 96.9C65.6808 97.7933 67.0808 98.24 68.9208 98.24C69.7074 98.24 70.3874 98.14 70.9608 97.94C71.5341 97.7267 72.0674 97.4267 72.5608 97.04L71.8008 95.16C71.3074 95.44 70.8474 95.6533 70.4208 95.8C69.9941 95.9467 69.5141 96.02 68.9808 96.02C68.0608 96.02 67.3741 95.84 66.9208 95.48C66.4808 95.12 66.1941 94.6 66.0608 93.92H72.6008V93.12ZM66.0808 92.18C66.1874 91.5533 66.4208 91.08 66.7808 90.76C67.1408 90.4267 67.5874 90.26 68.1208 90.26C68.6541 90.26 69.0874 90.42 69.4208 90.74C69.7674 91.06 70.0074 91.54 70.1408 92.18H66.0808ZM76.7938 92.08C77.3538 91.5867 77.9538 91.18 78.5938 90.86C79.2471 90.54 79.7938 90.38 80.2338 90.38L79.7138 88.3C79.2338 88.3 78.6804 88.4667 78.0538 88.8C77.4271 89.1333 76.8804 89.5067 76.4138 89.92L75.5538 88.3H74.1938V98H76.7938V92.08ZM86.6297 98H89.2097V92.84H91.6497L94.5297 98H97.2897L93.9497 92.16C94.6564 91.8133 95.2164 91.3333 95.6297 90.72C96.0564 90.1067 96.2697 89.3933 96.2697 88.58C96.2697 87.22 95.763 86.1867 94.7497 85.48C93.7497 84.76 92.463 84.4 90.8897 84.4H86.6297V98ZM90.8097 86.56C92.623 86.56 93.5297 87.2733 93.5297 88.7C93.5297 89.3933 93.283 89.9067 92.7897 90.24C92.3097 90.56 91.663 90.72 90.8497 90.72H89.2097V86.56H90.8097ZM99.8683 86.92C100.282 86.92 100.628 86.78 100.908 86.5C101.202 86.22 101.348 85.8733 101.348 85.46C101.348 85.0467 101.202 84.7 100.908 84.42C100.628 84.14 100.282 84 99.8683 84C99.4683 84 99.1283 84.14 98.8483 84.42C98.5683 84.7 98.4283 85.0467 98.4283 85.46C98.4283 85.8733 98.5683 86.22 98.8483 86.5C99.1283 86.78 99.4683 86.92 99.8683 86.92ZM101.188 98V88.3H98.5883V98H101.188ZM112.433 88.3V98.46C112.433 99.7933 111.966 100.813 111.033 101.52C110.1 102.24 108.846 102.6 107.273 102.6C106.78 102.6 106.113 102.493 105.273 102.28C104.433 102.08 103.78 101.82 103.313 101.5L104.093 99.66C104.693 99.9533 105.24 100.167 105.733 100.3C106.226 100.433 106.72 100.507 107.213 100.52C108 100.507 108.626 100.313 109.093 99.94C109.573 99.5667 109.813 99.0667 109.813 98.44V97.62C109.146 98.0333 108.433 98.24 107.673 98.24C106.166 98.24 104.973 97.7867 104.093 96.88C103.226 95.96 102.793 94.72 102.793 93.16C102.793 92.1467 102.986 91.2533 103.373 90.48C103.773 89.7067 104.346 89.1067 105.093 88.68C105.84 88.2533 106.726 88.04 107.753 88.04C108.193 88.04 108.66 88.1467 109.153 88.36C109.66 88.5733 110.106 88.8467 110.493 89.18L111.073 88.3H112.433ZM107.773 96.02C108.12 96.02 108.453 95.9533 108.773 95.82C109.106 95.6867 109.453 95.4867 109.813 95.22V91.08C109.466 90.7867 109.133 90.58 108.813 90.46C108.493 90.3267 108.146 90.26 107.773 90.26C107.066 90.26 106.506 90.5333 106.093 91.08C105.68 91.6133 105.473 92.3067 105.473 93.16C105.473 94.0133 105.673 94.7067 106.073 95.24C106.486 95.76 107.053 96.02 107.773 96.02ZM120.82 87.98C122.047 87.98 122.907 88.3267 123.4 89.02C123.893 89.7133 124.14 90.68 124.14 91.92V98H121.54V92.04C121.54 91.44 121.413 90.9733 121.16 90.64C120.92 90.3067 120.58 90.14 120.14 90.14C119.687 90.14 119.26 90.2467 118.86 90.46C118.46 90.66 118.02 90.9333 117.54 91.28V98H114.96V84.1L117.54 83.88V89.04C118.087 88.7067 118.653 88.4467 119.24 88.26C119.827 88.0733 120.353 87.98 120.82 87.98ZM129.244 88.32V85.56L126.664 86.02V88.32H125.364V90.32H126.664V94.9C126.664 96.0067 127.004 96.8667 127.684 97.48C128.364 98.0933 129.311 98.4 130.524 98.4C130.844 98.4 131.197 98.34 131.584 98.22C131.984 98.1 132.284 97.96 132.484 97.8L131.724 95.92C131.364 96.0933 131.011 96.18 130.664 96.18C130.211 96.18 129.857 96.02 129.604 95.7C129.364 95.38 129.244 94.96 129.244 94.44V90.32H131.804L131.004 88.32H129.244Z" fill="#718096"/>
</svg>
