<svg width="160" height="160" viewBox="0 0 160 160" fill="none" xmlns="http://www.w3.org/2000/svg">
<rect width="160" height="160" rx="8" fill="#CBD5E0"/>
<path d="M77.0312 86.9922C77.0443 85.0911 77.2005 83.7826 77.5 83.0664C77.8125 82.3372 78.6328 81.3737 79.9609 80.1758C81.25 78.6523 82.168 77.4805 82.7148 76.6602C83.2617 75.8398 83.5352 74.8503 83.5352 73.6914C83.5352 72.3112 83.1641 71.25 82.4219 70.5078C81.6927 69.7656 80.6445 69.3945 79.2773 69.3945C78.0924 69.3945 77.0833 69.7201 76.25 70.3711C75.4297 71.0091 75.0195 71.9531 75.0195 73.2031H71.3477L71.2891 73.0859C71.25 70.9896 71.9857 69.3099 73.4961 68.0469C75.0065 66.7839 76.9336 66.1523 79.2773 66.1523C81.8424 66.1523 83.8346 66.8099 85.2539 68.125C86.6732 69.4271 87.3828 71.25 87.3828 73.5938C87.3828 75.2734 86.9206 76.8099 85.9961 78.2031C85.0846 79.5964 83.8737 81.0221 82.3633 82.4805C81.6732 83.1836 81.25 83.8151 81.0938 84.375C80.9505 84.9349 80.8789 85.8073 80.8789 86.9922H77.0312ZM80.9961 95H76.9922V90.9375H80.9961V95Z" fill="#718096"/>
</svg>
