<svg width="95" height="17" viewBox="0 0 95 17" fill="none" xmlns="http://www.w3.org/2000/svg">
<rect width="95" height="17" rx="8.5" fill="#606F7B"/>
<path d="M14.5469 13H13.416L9.12109 6.42578V13H7.99023V4.46875H9.12109L13.4277 11.0723V4.46875H14.5469V13ZM16.0879 9.77148C16.0879 9.15039 16.209 8.5918 16.4512 8.0957C16.6973 7.59961 17.0371 7.2168 17.4707 6.94727C17.9082 6.67773 18.4062 6.54297 18.9648 6.54297C19.8281 6.54297 20.5254 6.8418 21.0566 7.43945C21.5918 8.03711 21.8594 8.83203 21.8594 9.82422V9.90039C21.8594 10.5176 21.7402 11.0723 21.502 11.5645C21.2676 12.0527 20.9297 12.4336 20.4883 12.707C20.0508 12.9805 19.5469 13.1172 18.9766 13.1172C18.1172 13.1172 17.4199 12.8184 16.8848 12.2207C16.3535 11.623 16.0879 10.832 16.0879 9.84766V9.77148ZM17.1777 9.90039C17.1777 10.6035 17.3398 11.168 17.6641 11.5938C17.9922 12.0195 18.4297 12.2324 18.9766 12.2324C19.5273 12.2324 19.9648 12.0176 20.2891 11.5879C20.6133 11.1543 20.7754 10.5488 20.7754 9.77148C20.7754 9.07617 20.6094 8.51367 20.2773 8.08398C19.9492 7.65039 19.5117 7.43359 18.9648 7.43359C18.4297 7.43359 17.998 7.64648 17.6699 8.07227C17.3418 8.49805 17.1777 9.10742 17.1777 9.90039ZM24.6895 5.125V6.66016H25.873V7.49805H24.6895V11.4297C24.6895 11.6836 24.7422 11.875 24.8477 12.0039C24.9531 12.1289 25.1328 12.1914 25.3867 12.1914C25.5117 12.1914 25.6836 12.168 25.9023 12.1211V13C25.6172 13.0781 25.3398 13.1172 25.0703 13.1172C24.5859 13.1172 24.2207 12.9707 23.9746 12.6777C23.7285 12.3848 23.6055 11.9688 23.6055 11.4297V7.49805H22.4512V6.66016H23.6055V5.125H24.6895ZM30.291 13V4.46875H33.0801C34.0059 4.46875 34.7012 4.66016 35.166 5.04297C35.6348 5.42578 35.8691 5.99219 35.8691 6.74219C35.8691 7.14062 35.7559 7.49414 35.5293 7.80273C35.3027 8.10742 34.9941 8.34375 34.6035 8.51172C35.0645 8.64062 35.4277 8.88672 35.6934 9.25C35.9629 9.60938 36.0977 10.0391 36.0977 10.5391C36.0977 11.3047 35.8496 11.9062 35.3535 12.3438C34.8574 12.7812 34.1562 13 33.25 13H30.291ZM31.416 9.00977V12.0801H33.2734C33.7969 12.0801 34.209 11.9453 34.5098 11.6758C34.8145 11.4023 34.9668 11.0273 34.9668 10.5508C34.9668 9.52344 34.4082 9.00977 33.291 9.00977H31.416ZM31.416 8.10742H33.1152C33.6074 8.10742 34 7.98438 34.293 7.73828C34.5898 7.49219 34.7383 7.1582 34.7383 6.73633C34.7383 6.26758 34.6016 5.92773 34.3281 5.7168C34.0547 5.50195 33.6387 5.39453 33.0801 5.39453H31.416V8.10742ZM41.5117 12.373C41.0898 12.8691 40.4707 13.1172 39.6543 13.1172C38.9785 13.1172 38.4629 12.9219 38.1074 12.5312C37.7559 12.1367 37.5781 11.5547 37.5742 10.7852V6.66016H38.6582V10.7559C38.6582 11.7168 39.0488 12.1973 39.8301 12.1973C40.6582 12.1973 41.209 11.8887 41.4824 11.2715V6.66016H42.5664V13H41.5352L41.5117 12.373ZM45.3965 13H44.3125V6.66016H45.3965V13ZM44.2246 4.97852C44.2246 4.80273 44.2773 4.6543 44.3828 4.5332C44.4922 4.41211 44.6523 4.35156 44.8633 4.35156C45.0742 4.35156 45.2344 4.41211 45.3438 4.5332C45.4531 4.6543 45.5078 4.80273 45.5078 4.97852C45.5078 5.1543 45.4531 5.30078 45.3438 5.41797C45.2344 5.53516 45.0742 5.59375 44.8633 5.59375C44.6523 5.59375 44.4922 5.53516 44.3828 5.41797C44.2773 5.30078 44.2246 5.1543 44.2246 4.97852ZM48.3145 13H47.2305V4H48.3145V13ZM51.5254 5.125V6.66016H52.709V7.49805H51.5254V11.4297C51.5254 11.6836 51.5781 11.875 51.6836 12.0039C51.7891 12.1289 51.9688 12.1914 52.2227 12.1914C52.3477 12.1914 52.5195 12.168 52.7383 12.1211V13C52.4531 13.0781 52.1758 13.1172 51.9062 13.1172C51.4219 13.1172 51.0566 12.9707 50.8105 12.6777C50.5645 12.3848 50.4414 11.9688 50.4414 11.4297V7.49805H49.2871V6.66016H50.4414V5.125H51.5254ZM59.7285 8.75195L61.9551 4.46875H63.2324L60.291 9.81836V13H59.166V9.81836L56.2246 4.46875H57.5137L59.7285 8.75195ZM66.4082 13.1172C65.5488 13.1172 64.8496 12.8359 64.3105 12.2734C63.7715 11.707 63.502 10.9512 63.502 10.0059V9.80664C63.502 9.17773 63.6211 8.61719 63.8594 8.125C64.1016 7.62891 64.4375 7.24219 64.8672 6.96484C65.3008 6.68359 65.7695 6.54297 66.2734 6.54297C67.0977 6.54297 67.7383 6.81445 68.1953 7.35742C68.6523 7.90039 68.8809 8.67773 68.8809 9.68945V10.1406H64.5859C64.6016 10.7656 64.7832 11.2715 65.1309 11.6582C65.4824 12.041 65.9277 12.2324 66.4668 12.2324C66.8496 12.2324 67.1738 12.1543 67.4395 11.998C67.7051 11.8418 67.9375 11.6348 68.1367 11.377L68.7988 11.8926C68.2676 12.709 67.4707 13.1172 66.4082 13.1172ZM66.2734 7.43359C65.8359 7.43359 65.4688 7.59375 65.1719 7.91406C64.875 8.23047 64.6914 8.67578 64.6211 9.25H67.7969V9.16797C67.7656 8.61719 67.6172 8.19141 67.3516 7.89062C67.0859 7.58594 66.7266 7.43359 66.2734 7.43359ZM71.6113 5.125V6.66016H72.7949V7.49805H71.6113V11.4297C71.6113 11.6836 71.6641 11.875 71.7695 12.0039C71.875 12.1289 72.0547 12.1914 72.3086 12.1914C72.4336 12.1914 72.6055 12.168 72.8242 12.1211V13C72.5391 13.0781 72.2617 13.1172 71.9922 13.1172C71.5078 13.1172 71.1426 12.9707 70.8965 12.6777C70.6504 12.3848 70.5273 11.9688 70.5273 11.4297V7.49805H69.373V6.66016H70.5273V5.125H71.6113Z" fill="white"/>
<path d="M80.97 7.25L80.11 5.82L80.82 5.11L82.25 5.97C82.51 5.82 82.8 5.7 83.1 5.62L83.5 4H84.5L84.9 5.62C85.2 5.7 85.49 5.82 85.75 5.97L87.18 5.11L87.89 5.82L87.03 7.25C87.18 7.51 87.3 7.8 87.38 8.1L89 8.5V9.5L87.38 9.9C87.3 10.2 87.18 10.49 87.03 10.75L87.89 12.18L87.18 12.89L85.75 12.03C85.49 12.18 85.2 12.3 84.9 12.38L84.5 14H83.5L83.1 12.38C82.8 12.3 82.51 12.18 82.25 12.03L80.82 12.89L80.11 12.18L80.97 10.75C80.82 10.49 80.7 10.2 80.62 9.9L79 9.5V8.5L80.62 8.1C80.7 7.8 80.82 7.51 80.97 7.25V7.25ZM84 10.5C84.3978 10.5 84.7794 10.342 85.0607 10.0607C85.342 9.77936 85.5 9.39782 85.5 9C85.5 8.60218 85.342 8.22064 85.0607 7.93934C84.7794 7.65804 84.3978 7.5 84 7.5C83.6022 7.5 83.2206 7.65804 82.9393 7.93934C82.658 8.22064 82.5 8.60218 82.5 9C82.5 9.39782 82.658 9.77936 82.9393 10.0607C83.2206 10.342 83.6022 10.5 84 10.5V10.5Z" fill="white"/>
</svg>
