<svg width="35" height="35" viewBox="0 0 35 35" fill="none" xmlns="http://www.w3.org/2000/svg">
<rect x="4" y="7" width="27" height="21" fill="white"/>
<path d="M19.25 15.75V8.75H15.75V15.75H8.75V19.25H15.75V26.25H19.25V19.25H26.25V15.75H19.25ZM17.5 35C12.8587 35 8.40752 33.1563 5.12563 29.8744C1.84374 26.5925 0 22.1413 0 17.5C0 12.8587 1.84374 8.40752 5.12563 5.12563C8.40752 1.84374 12.8587 0 17.5 0C22.1413 0 26.5925 1.84374 29.8744 5.12563C33.1563 8.40752 35 12.8587 35 17.5C35 22.1413 33.1563 26.5925 29.8744 29.8744C26.5925 33.1563 22.1413 35 17.5 35Z" fill="#48BB78"/>
</svg>
