<svg width="450" height="376" viewBox="0 0 450 376" fill="none" xmlns="http://www.w3.org/2000/svg">
<g clip-path="url(#clip0)">
<path opacity="0.3" d="M319.821 375.076C345.211 375.076 365.793 373.047 365.793 370.544C365.793 368.042 345.211 366.013 319.821 366.013C294.432 366.013 273.85 368.042 273.85 370.544C273.85 373.047 294.432 375.076 319.821 375.076Z" fill="#48BB78"/>
<path opacity="0.3" d="M197.016 5.48647C217.263 -2.03953 241.912 4.4331 262.962 13.8731C329.073 43.5288 377.237 99.8237 415.503 157.176C429.358 177.943 442.519 199.625 447.727 222.808C458.333 269.995 430.672 318.844 383.629 335.962C367.631 341.79 350.055 344.179 332.453 345.51C301.152 347.881 268.744 346.94 237.694 338.159C215.551 331.883 194.605 321.789 174.514 310.637C118.408 279.475 67.1692 239.008 30.2743 189.575C14.0927 167.894 0.403406 143.451 0.00895232 118.435C-0.385501 93.4183 15.9171 68.2808 42.74 64.027C53.8295 62.2699 65.56 64.0987 77.0036 65.9813C93.8531 68.756 110.931 71.674 127.588 70.4638C144.796 69.2042 167.177 62.4806 170.314 46.0524C173.636 28.4141 176.796 13.0035 197.016 5.48647Z" fill="#48BB78"/>
<path d="M109.38 344.614C109.38 344.614 131.012 343.309 128.462 358.469C128.462 358.469 128.968 361.158 126.539 362.364C126.539 362.364 126.503 361.239 124.32 361.62C123.545 361.753 122.756 361.792 121.971 361.736C120.91 361.663 119.902 361.246 119.098 360.549V360.549C119.098 360.549 113.016 358.038 110.653 348.096C110.653 348.096 108.901 345.931 108.972 345.371L112.621 346.931C112.621 346.931 111.375 349.567 112.357 351.754C112.357 351.754 112.473 347.03 113.177 347.137C113.316 347.16 115.073 348.034 115.073 348.034C115.073 348.034 112.926 352.619 114.544 355.954C114.544 355.954 113.93 350.302 115.741 348.365L118.314 349.867C118.314 349.867 115.804 354.605 117.507 358.469C117.507 358.469 117.059 352.538 118.852 350.23L121.182 352.023C121.182 352.023 118.825 356.694 120.264 359.903C120.264 359.903 120.447 352.996 121.685 352.476C121.685 352.476 123.724 354.269 124.033 355.013C124.033 355.013 122.42 358.401 123.419 360.19C123.419 360.19 124.033 355.591 124.54 355.569C124.54 355.569 126.566 358.617 126.781 360.705C126.781 360.705 126.691 357.599 125.028 355.277C125.028 355.277 126.992 355.613 128.139 356.886C128.139 356.886 127.821 354.73 124.531 354.542C124.531 354.542 122.854 352.234 122.402 352.09C122.402 352.09 125.678 351.817 127.664 352.7C127.664 352.7 125.916 350.665 121.801 351.588L119.502 349.715C119.502 349.715 123.818 349.123 125.642 349.777C125.642 349.777 123.54 347.984 118.883 349.289L116.382 347.792C116.382 347.792 120.057 346.998 122.249 347.285C122.249 347.285 119.936 346.039 115.647 347.388L113.854 346.586C113.854 346.586 116.543 346.057 117.337 345.972C118.13 345.887 118.166 345.671 118.166 345.671C116.46 345.386 114.707 345.58 113.105 346.232C113.105 346.232 109.313 344.874 109.38 344.614Z" fill="#48BB78"/>
<path opacity="0.3" d="M124.28 366.273C132.736 366.273 139.592 365.115 139.592 363.686C139.592 362.258 132.736 361.1 124.28 361.1C115.823 361.1 108.968 362.258 108.968 363.686C108.968 365.115 115.823 366.273 124.28 366.273Z" fill="#48BB78"/>
<path d="M80.4014 334.416C80.4014 334.416 92.5981 333.681 91.1592 342.229C91.2352 342.662 91.1715 343.108 90.9773 343.503C90.7832 343.898 90.4686 344.221 90.0789 344.425C90.0789 344.425 90.0565 343.793 88.8283 344.008C88.3918 344.083 87.9477 344.104 87.506 344.071C86.9062 344.034 86.3355 343.799 85.8834 343.403V343.403C85.8834 343.403 82.4588 341.982 81.1141 336.379C81.1141 336.379 80.1279 335.156 80.1638 334.842L82.2257 335.738C82.2257 335.738 81.522 337.226 82.0733 338.459C82.0733 338.459 82.1406 335.792 82.5216 335.855C82.6022 335.855 83.5929 336.37 83.5929 336.37C83.5929 336.37 82.3826 338.957 83.297 340.853C83.297 340.853 82.9474 337.666 83.9694 336.572L85.4172 337.419C85.4172 337.419 84.0052 340.109 84.969 342.269C84.969 342.269 84.7224 338.925 85.7265 337.625L87.0398 338.647C87.0398 338.647 85.6951 341.279 86.5244 343.089C86.5244 343.089 86.6275 339.194 87.3267 338.903C87.3267 338.903 88.4742 339.916 88.649 340.333C88.649 340.333 87.7526 342.242 88.3039 343.251C88.3039 343.251 88.649 340.66 88.9359 340.647C88.9359 340.647 90.0789 342.363 90.1955 343.542C90.1383 342.453 89.7984 341.398 89.2093 340.481C89.8688 340.601 90.4783 340.913 90.962 341.377C90.962 341.377 90.7872 340.162 88.9269 340.055C88.9269 340.055 87.9812 338.75 87.7301 338.674C87.7301 338.674 89.5769 338.517 90.6975 339.015C90.6975 339.015 89.7114 337.867 87.3895 338.387L86.094 337.33C86.094 337.33 88.528 336.998 89.559 337.365C89.559 337.365 88.3711 336.352 85.7444 337.092L84.3369 336.245C85.4212 336.008 86.5317 335.913 87.6405 335.962C87.6405 335.962 86.3406 335.259 83.9201 336.021L82.9115 335.572C82.9115 335.572 84.4311 335.272 84.8748 335.227C85.3186 335.182 85.3455 335.057 85.3455 335.057C84.3826 334.897 83.3943 335.008 82.4902 335.375C82.4902 335.375 80.3655 334.564 80.4014 334.416Z" fill="#48BB78"/>
<path opacity="0.3" d="M88.8014 346.626C93.5693 346.626 97.4345 345.972 97.4345 345.165C97.4345 344.358 93.5693 343.704 88.8014 343.704C84.0334 343.704 80.1682 344.358 80.1682 345.165C80.1682 345.972 84.0334 346.626 88.8014 346.626Z" fill="#48BB78"/>
<path d="M380.46 342.632C380.46 342.632 395.184 341.736 393.459 352.046C393.547 352.569 393.468 353.108 393.233 353.584C392.998 354.06 392.619 354.45 392.15 354.699C392.15 354.699 392.123 353.933 390.639 354.193C390.111 354.283 389.574 354.308 389.039 354.269C388.317 354.222 387.63 353.938 387.085 353.462V353.462C387.085 353.462 382.943 351.754 381.334 344.986C381.334 344.986 380.141 343.511 380.191 343.134L382.674 344.192C382.674 344.192 381.827 345.985 382.495 347.478C382.495 347.478 382.575 344.26 383.05 344.34C383.149 344.34 384.341 344.959 384.341 344.959C384.341 344.959 382.88 348.097 383.983 350.338C383.983 350.338 383.566 346.492 384.799 345.174L386.547 346.192C386.547 346.192 384.839 349.419 386 352.05C386 352.05 385.7 348.016 386.896 346.443L388.483 347.68C388.483 347.68 386.879 350.858 387.856 353.059C387.856 353.059 387.986 348.361 388.828 348.002C388.828 348.002 390.213 349.226 390.424 349.728C390.424 349.728 389.326 352.037 390.007 353.256C390.007 353.256 390.424 350.118 390.769 350.118C390.769 350.118 392.15 352.193 392.293 353.614C392.227 352.301 391.817 351.027 391.105 349.921C391.902 350.072 392.637 350.452 393.221 351.015C393.221 351.015 393.006 349.549 390.76 349.419C390.76 349.419 389.622 347.846 389.317 347.751C389.317 347.751 391.558 347.563 392.903 348.164C392.903 348.164 391.711 346.783 388.909 347.411L387.345 346.133C387.345 346.133 390.281 345.73 391.527 346.174C391.527 346.174 390.092 344.95 386.923 345.842L385.22 344.824C385.22 344.824 387.721 344.286 389.214 344.479C389.214 344.479 387.641 343.632 384.731 344.551L383.512 344.004C383.512 344.004 385.346 343.641 385.883 343.587C386.421 343.533 386.448 343.381 386.448 343.381C385.288 343.187 384.096 343.319 383.006 343.762C383.006 343.762 380.415 342.803 380.46 342.632Z" fill="#48BB78"/>
<path opacity="0.3" d="M390.599 357.38C396.355 357.38 401.021 356.591 401.021 355.618C401.021 354.645 396.355 353.856 390.599 353.856C384.843 353.856 380.177 354.645 380.177 355.618C380.177 356.591 384.843 357.38 390.599 357.38Z" fill="#48BB78"/>
<path d="M365.789 233.812C365.506 232.234 365.343 230.637 365.3 229.034C365.3 227.111 362.687 225.408 362.687 225.408C362.687 225.408 361.073 221.674 359.997 221.123C358.922 220.571 355.6 215.685 355.6 215.685C355.562 214.722 355.211 213.797 354.601 213.05C353.605 211.742 352.697 210.37 351.88 208.944C351.431 208.397 351.656 208.012 350.983 204.825C350.947 204.659 350.907 204.497 350.858 204.345C350.858 204.273 350.813 204.21 350.786 204.139C351.499 203.423 351.997 202.521 352.221 201.535C352.446 200.55 352.388 199.521 352.054 198.567C351.934 198.188 351.714 197.847 351.418 197.581C350.66 196.962 349.45 197.218 348.67 196.631L349.5 192.964C349.697 192.068 349.8 190.933 349.015 190.449C348.721 190.31 348.411 190.206 348.092 190.14C346.747 189.692 345.967 188.271 345.618 186.904C345.282 185.587 345.19 184.219 345.349 182.87C345.501 181.57 345.882 180.306 346.021 179.001C346.274 176.589 345.693 174.162 344.376 172.125C343.864 171.246 343.109 170.533 342.202 170.072C341.373 169.7 340.409 169.624 339.634 169.176C337.966 168.113 338.051 165.59 336.72 164.142C335.389 162.694 333.031 162.699 331.09 163.196C329.149 163.694 327.217 164.541 325.227 164.33C323.945 164.187 322.744 163.604 321.457 163.47C321.089 163.435 320.718 163.451 320.355 163.519V163.479C319.404 163.649 318.53 164.178 318.306 165.079C318.256 165.293 318.235 165.513 318.244 165.733C318.244 166.258 318.369 166.805 318.378 167.307C318.395 167.506 318.371 167.707 318.309 167.897C318.246 168.087 318.146 168.263 318.015 168.414C317.759 168.687 317.383 168.831 317.118 169.113C317.011 169.221 316.926 169.35 316.87 169.492C316.813 169.633 316.787 169.785 316.791 169.938C316.791 170.736 317.786 171.439 318.454 171.762H318.481C318.302 171.941 318.123 172.13 317.957 172.322C316.042 174.485 314.986 177.274 314.989 180.162C315.006 182.495 315.703 184.772 316.997 186.714C318.29 188.655 320.122 190.177 322.269 191.09L322.175 191.382C321.986 191.958 321.766 192.524 321.516 193.076C321.052 192.92 320.56 192.867 320.073 192.922C319.587 192.976 319.119 193.136 318.701 193.39C317.419 194.286 314.913 194.215 314.245 194.049C313.577 193.883 306.625 193.004 306.065 193.224C305.504 193.444 304.397 192.458 303.676 193.775C302.954 195.093 302.618 195.806 301.883 196.138C301.148 196.469 299.879 197.509 300.049 197.729C300.22 197.948 298.212 199.266 298.212 199.266C298.212 199.266 296.486 201.059 295.486 201.297C294.487 201.534 292.371 202.893 292.371 202.893L289.919 204.811C289.919 204.811 288.086 205.089 288.642 203.825C289.197 202.561 287.637 200.97 287.637 200.97C287.637 200.97 284.522 194.654 284.522 193.35C284.522 192.045 281.963 186.482 281.963 186.482L281.649 186.451L281.506 186.043C281.035 184.721 280.425 183.098 279.959 182.148C279.063 180.333 278.511 180.144 278.511 180.144C278.511 180.144 267.718 172.04 260.707 174.51C253.697 176.98 273.504 184.34 275.284 185.111C275.907 185.38 276.355 186.249 276.669 187.267C275.09 188.028 273.761 189.224 272.837 190.714C272.837 190.714 277.122 200.212 277.234 202.574C277.346 204.937 280.183 211.539 280.183 211.539C280.183 211.539 281.241 216.43 286.97 216.152C286.97 216.152 294.872 217.604 296.598 216.152C298.324 214.699 299.879 213.561 300.717 213.395C301.334 213.192 301.875 212.81 302.273 212.297C302.273 212.297 299.659 228.77 298.377 230.2C297.095 231.629 285.768 250.124 289.834 253.432C293.054 255.925 296.457 258.173 300.013 260.156C300.359 260.326 301.394 258.6 302.873 257.377C302.873 257.686 302.873 258 302.873 258.331C302.9 264.911 303.77 274.916 304.971 277.157C306.764 280.452 306.029 286.822 306.029 286.822C306.972 287.265 307.995 287.511 309.037 287.543C309.09 287.758 309.153 287.992 309.211 288.216C310.193 291.923 311.784 297.656 312.596 299.18C313.819 301.488 314.707 308.794 314.707 308.794C314.707 308.794 315.433 315.966 315.155 316.975C315.048 317.356 315.518 320.341 316.258 324.147C315.81 329.297 314.958 339.226 314.814 342.816C314.814 342.883 314.814 342.951 314.814 343.013V343.076C314.817 343.116 314.817 343.157 314.814 343.197C314.814 343.278 314.814 343.35 314.814 343.417C314.801 343.643 314.81 343.869 314.841 344.094C314.897 344.436 314.871 344.786 314.765 345.116C314.448 346.108 314.045 347.071 313.559 347.993C313.355 348.446 313.175 348.91 313.021 349.383C312.573 349.58 312.026 350.06 311.722 351.23C311.166 353.372 310.332 359.298 310.332 359.298C310.332 359.298 309.996 362.924 309.332 363.749C308.669 364.574 307.988 369.733 312.726 370.392C317.464 371.051 319.512 367.882 319.512 367.882L319.346 353.502V353.475C319.442 353.354 319.525 353.224 319.593 353.085V353.049C319.624 352.982 319.66 352.911 319.691 352.83L319.732 352.722L319.803 352.547C319.801 352.527 319.801 352.506 319.803 352.485C320.263 351.107 320.401 349.643 320.207 348.204V348.132V348.02C320.207 347.984 320.207 347.944 320.207 347.908V347.684C320.207 347.657 320.207 347.626 320.207 347.599C320.207 347.503 320.216 347.405 320.234 347.303C320.234 347.303 320.234 347.267 320.234 347.249L320.261 347.074V346.998C320.261 346.94 320.261 346.882 320.296 346.819C320.295 346.804 320.295 346.789 320.296 346.774C320.341 346.568 320.395 346.326 320.453 346.129V346.079L320.521 345.864C320.588 345.636 320.664 345.416 320.745 345.174V345.129C320.745 345.057 320.794 344.986 320.821 344.918V344.891C320.902 344.672 320.987 344.443 321.067 344.255L321.09 344.197L321.162 344.017L321.184 343.964L321.354 343.565L322.668 347.621C322.668 347.621 323.394 350.642 323.004 351.355C322.614 352.068 323.452 355.035 324.003 355.089L323.488 358.823C323.209 360.882 323.043 362.954 322.99 365.031C322.955 365.269 322.919 365.479 322.892 365.623C322.533 367.537 323.394 370.504 323.394 370.504C327.787 375.699 333.022 370.907 333.022 370.907C333.022 370.907 333.632 368.16 333.022 367.613C332.412 367.066 332.686 365.085 332.686 365.085C332.686 365.085 332.964 360.194 333.018 356.626C333.071 353.058 330.1 349.903 330.1 349.903L329.934 350.051C329.391 348.652 328.773 347.021 328.903 346.29C329.127 345.026 328.289 331.682 328.289 331.682C328.598 328.104 328.664 324.51 328.486 320.924V320.924C328.558 320.319 328.625 319.723 328.692 319.131C329.028 316.262 329.302 313.81 329.409 312.524V312.371C329.436 312.026 329.45 311.78 329.445 311.663C329.445 311.215 329.445 310.704 329.49 310.144C329.593 308.602 329.835 306.885 329.835 306.885L331.001 299.798C331.001 299.798 331.897 296.338 333.175 294.419L333.327 294.177C333.376 294.092 333.426 293.998 333.479 293.899L333.502 293.859C333.551 293.765 333.605 293.666 333.654 293.563L333.677 293.523C333.856 293.169 334.049 292.761 334.25 292.313C334.25 292.277 334.282 292.245 334.295 292.209L334.448 291.869C334.448 291.824 334.483 291.779 334.506 291.734C334.528 291.69 334.6 291.506 334.649 291.394C334.671 291.349 334.691 291.302 334.707 291.255C334.766 291.12 334.829 290.981 334.887 290.838L334.972 290.632C335.012 290.529 335.057 290.425 335.102 290.322L335.21 290.049C335.241 289.982 335.268 289.914 335.295 289.847L335.416 289.538C335.416 289.493 335.456 289.444 335.474 289.399C335.792 288.606 336.097 287.821 336.37 287.108C336.456 286.884 336.541 286.66 336.617 286.463C339.468 286.638 341.404 286.795 341.404 286.795C341.404 286.795 342.301 280.371 342.014 276.144C341.826 273.258 342.363 269.627 342.718 267.628C342.758 267.408 342.794 267.211 342.83 267.032L342.906 267.094C344.3 268.193 345.299 264.566 345.299 264.566C345.299 264.566 344.923 261.182 344.403 257.081L344.349 256.673C345.153 256.844 345.965 256.968 346.783 257.045C346.783 257.045 347.231 257.004 347.845 256.928C349.544 257.912 351.337 258.723 353.198 259.349L356.16 253.88C356.717 252.747 357.37 251.662 358.11 250.639C359.007 249.541 362.171 246.027 362.118 245.368C362.064 244.709 363.175 240.917 364.287 239.214C365.399 237.51 365.842 234.086 365.789 233.812ZM353.435 237.986C352.265 238.479 351.154 241.226 351.1 242.051C351.046 242.876 349.818 246.498 348.54 246.937C347.361 247.34 345.111 249.411 344.753 249.743C344.385 249.774 343.968 249.824 343.533 249.895C343.045 246.43 342.561 243.562 342.251 242.983C341.355 241.334 343.233 236.063 343.233 236.063C343.233 236.063 343.417 230.737 344.578 229.473C345.739 228.209 345.474 225.022 345.474 225.022C345.474 225.022 345.752 223.705 345.864 223.104C345.976 222.503 347.518 223.104 347.532 223.104C347.532 223.104 350.535 224.749 350.983 227.219C351.431 229.689 354.713 233.974 354.713 233.974C354.713 233.974 354.211 235.457 354.713 236.215C355.215 236.973 354.605 237.492 353.435 237.986V237.986Z" fill="url(#paint0_linear)"/>
<path d="M272.962 191.05C273.876 189.543 275.213 188.339 276.808 187.588C278.402 186.837 280.183 186.572 281.927 186.828V193.242H278.032L274.983 192.471L272.962 191.05Z" fill="#4C4981"/>
<path opacity="0.1" d="M272.962 191.05C273.876 189.543 275.213 188.339 276.808 187.588C278.402 186.837 280.183 186.572 281.927 186.828V193.242H278.032L274.983 192.471L272.962 191.05Z" fill="black"/>
<path d="M282.218 188.527L277.444 191.871C277.444 191.871 277.404 191.203 277.283 190.288C277.045 188.558 276.512 185.963 275.36 185.461C273.607 184.69 254.095 177.347 261.016 174.878C267.937 172.408 278.556 180.503 278.556 180.503C278.556 180.503 279.103 180.691 279.977 182.498C280.425 183.448 281.039 185.066 281.501 186.389C281.927 187.581 282.218 188.527 282.218 188.527Z" fill="#AE6E79"/>
<path d="M320.355 193.677L320.897 193.421L322.421 195.161L321.175 197.819L319.05 196.967L319.543 194.842L320.355 193.677Z" fill="#4C4981"/>
<path d="M313.133 349.356C313.133 349.356 311.762 349.195 311.215 351.333C310.668 353.471 309.843 359.401 309.843 359.401C309.843 359.401 309.516 363.018 308.857 363.843C308.198 364.668 307.544 369.818 312.201 370.473C316.858 371.127 318.889 367.967 318.889 367.967L318.723 353.592L313.133 349.356Z" fill="#444053"/>
<path d="M329.387 350.001C329.387 350.001 332.318 353.139 332.265 356.698C332.211 360.257 331.933 365.139 331.933 365.139C331.933 365.139 331.664 367.115 332.265 367.662C332.865 368.209 332.265 370.952 332.265 370.952C332.265 370.952 327.11 375.735 322.78 370.549C322.78 370.549 321.937 367.586 322.287 365.677C322.636 363.767 323.613 355.183 323.613 355.183L329.387 350.001Z" fill="#444053"/>
<path d="M336.648 284.455C336.648 284.455 333.69 292.729 332.426 294.648C331.162 296.566 330.292 300.027 330.292 300.027L329.14 307.096C328.915 308.676 328.787 310.269 328.755 311.865C328.809 313.456 325.904 336.639 325.904 336.639L321.301 342.507C321.301 342.507 319.275 346.617 319.602 348.334C319.929 350.051 319.382 352.776 318.705 353.596C318.705 353.596 318.598 358.975 318.432 360.172C318.266 361.369 319.037 364.78 318.432 365.381C317.827 365.981 309.772 365.712 309.552 364.722C309.332 363.731 310.538 358.966 310.538 358.966L311.251 354.363C311.251 354.363 312.676 351.844 312.349 351.019C312.022 350.194 312.95 348.28 313.004 348.114C313.057 347.949 314.541 345.264 314.268 344.224C313.994 343.184 315.993 321.067 315.993 321.067L321.637 281.438L336.648 284.455Z" fill="#AE6E79"/>
<path opacity="0.1" d="M336.648 284.455C336.648 284.455 336.2 285.701 335.586 287.337C334.609 289.919 333.201 293.474 332.426 294.648C331.166 296.567 330.288 300.027 330.288 300.027L329.136 307.1C328.913 308.681 328.786 310.274 328.755 311.87C328.755 312.497 328.334 316.5 327.796 321.112C326.966 328.163 325.904 336.644 325.904 336.644L321.301 342.511C321.301 342.511 321.067 342.96 320.776 343.668C320.198 345.013 319.382 347.196 319.602 348.321C319.929 350.02 319.382 352.758 318.705 353.583C318.705 353.583 318.593 358.962 318.432 360.159C318.27 361.356 319.037 364.762 318.432 365.367C317.827 365.972 309.772 365.699 309.552 364.713C309.332 363.727 310.538 358.957 310.538 358.957L311.251 354.35C311.251 354.35 312.676 351.83 312.345 351.006C312.013 350.181 312.95 348.267 313.004 348.101C313.057 347.935 314.541 345.25 314.268 344.21C314.057 343.417 315.164 330.431 315.68 324.272C315.854 322.336 315.966 321.076 315.966 321.076L320.821 286.983L321.215 284.235L321.61 281.447L336.648 284.455Z" fill="black"/>
<path d="M331.718 366.891C331.767 367.496 323.985 368.375 322.874 367.716C321.762 367.057 322.874 358.89 322.874 358.89L323.38 355.165C322.838 355.107 322.013 352.148 322.394 351.436C322.775 350.723 322.067 347.711 322.067 347.711L320.776 343.677L319.987 341.207C318.705 338.378 316.85 330.31 315.698 324.286C314.971 320.502 314.51 317.522 314.613 317.141C314.886 316.155 314.165 308.974 314.165 308.974C314.165 308.974 313.268 301.681 312.085 299.381C311.282 297.857 309.718 292.133 308.75 288.44C308.257 286.544 307.916 285.181 307.916 285.181C307.916 285.181 316.2 284.486 321.224 284.244C323.533 284.132 325.155 284.119 324.967 284.307C324.779 284.495 324.73 285.499 324.739 286.952C324.761 290.712 325.285 297.328 325.841 299.108C326.608 301.573 327.374 308.969 327.047 309.686C326.72 310.404 326.827 315.168 326.827 315.168C327.392 317.104 327.717 319.102 327.796 321.117C327.971 324.686 327.908 328.264 327.607 331.825C327.607 331.825 328.428 345.147 328.208 346.406C327.988 347.666 329.961 351.615 329.961 352.381C329.961 353.148 330.507 358.357 330.507 358.357C330.507 358.357 331.682 366.29 331.718 366.891Z" fill="#AE6E79"/>
<path d="M336.043 206.779L335.102 207.796L334.488 208.46L330.902 212.315L321.637 213.359L316.706 212.041L315.487 211.714C315.487 211.714 315.487 209.24 315.706 206.272C316.02 202.467 316.769 197.845 318.557 196.586C319.453 195.885 320.168 194.979 320.642 193.946C320.999 193.233 321.299 192.492 321.538 191.731C321.574 191.633 321.601 191.539 321.632 191.44C322.036 190.112 322.326 188.752 322.502 187.374C322.502 187.374 323.685 186.72 325.33 185.958C329.62 183.954 337.029 181.189 334.452 187.374C334.073 188.28 333.75 189.208 333.484 190.154C333.443 190.292 333.408 190.431 333.376 190.566C332.516 194.008 333.085 196.097 333.726 197.249C333.834 197.449 333.959 197.639 334.098 197.818C334.273 198.059 334.483 198.272 334.721 198.45L335.788 205.223L335.877 205.784L336.043 206.779Z" fill="#AE6E79"/>
<path opacity="0.1" d="M334.456 187.706C333.968 188.881 334.694 186.747 334.456 187.706C332.502 189.096 327.899 193.054 325.312 193.054C323.564 193.054 323.04 192.735 321.542 192.059C321.996 190.64 322.318 189.183 322.506 187.706C322.506 187.706 338.02 179.154 334.456 187.706Z" fill="black"/>
<path d="M338.405 180.503C338.403 183.455 337.309 186.302 335.334 188.495C333.358 190.689 330.641 192.075 327.706 192.386C327.293 192.426 326.877 192.453 326.455 192.453C324.092 192.453 321.781 191.752 319.816 190.439C317.851 189.126 316.319 187.26 315.415 185.076C314.51 182.892 314.274 180.49 314.735 178.172C315.196 175.853 316.334 173.724 318.005 172.053C319.677 170.382 321.806 169.243 324.124 168.782C326.442 168.321 328.845 168.558 331.028 169.462C333.212 170.367 335.078 171.899 336.391 173.864C337.705 175.829 338.405 178.139 338.405 180.503V180.503Z" fill="#AE6E79"/>
<path opacity="0.1" d="M340.104 233.476L338.401 237.918C338.401 237.918 337.016 237.977 334.855 238.044C327.562 238.277 311.493 238.573 310.776 236.699C310.615 236.224 310.53 235.726 310.525 235.224C310.431 232.369 311.762 227.985 311.762 227.985C311.762 227.985 312.528 219.213 312.528 218.832C312.528 218.451 311.87 212.306 311.87 212.306L313.187 207.375L316.858 204.798C316.858 204.798 318.503 207.321 319.49 207.536C320.476 207.752 321.794 208.966 321.794 208.966C321.794 208.966 325.025 210.939 326.07 209.84C327.114 208.742 335.223 203.919 335.223 203.919L339.499 208.635L340.104 233.476Z" fill="black"/>
<path d="M340.104 234.158L338.401 238.595C338.401 238.595 337.016 238.658 334.855 238.725H334.645C333.712 238.757 332.646 238.788 331.507 238.811C325.711 238.945 317.728 238.981 313.555 238.362C311.986 238.138 310.96 237.815 310.789 237.376C310.695 237.112 310.629 236.838 310.592 236.56C310.565 236.354 310.547 236.112 310.538 235.901C310.444 233.046 311.775 228.662 311.775 228.662C311.775 228.662 312.542 219.89 312.542 219.509C312.542 219.128 311.883 212.983 311.883 212.983L313.201 208.052L315.724 206.286L316.872 205.479C317.258 206.057 317.678 206.611 318.131 207.138C318.485 207.613 318.958 207.985 319.503 208.218C320.494 208.438 321.807 209.648 321.807 209.648C321.807 209.648 325.039 211.62 326.083 210.522C326.877 209.684 331.807 206.667 334.084 205.291C334.784 204.865 335.236 204.601 335.236 204.601L335.81 205.237L339.513 209.316L340.104 234.158Z" fill="white"/>
<path opacity="0.1" d="M282.218 188.527L277.444 191.87C277.444 191.87 277.404 191.203 277.283 190.288C279.641 189.293 281.075 187.092 281.487 186.388C281.927 187.581 282.218 188.527 282.218 188.527Z" fill="black"/>
<path d="M298.991 199.876L297.951 199.598C297.951 199.598 296.248 201.391 295.262 201.629C294.276 201.866 292.196 203.215 292.196 203.215L289.78 205.134C289.78 205.134 287.987 205.412 288.52 204.148C289.054 202.884 287.534 201.297 287.534 201.297C287.534 201.297 284.464 194.995 284.464 193.677C284.464 192.359 281.927 186.828 281.927 186.828C281.927 186.828 278.744 193.022 272.935 191.05C272.935 191.05 277.157 200.53 277.265 202.888C277.373 205.246 280.17 211.822 280.17 211.822C280.17 211.822 281.214 216.703 286.857 216.43C286.857 216.43 294.643 217.877 296.342 216.43C298.041 214.982 299.574 213.843 300.376 213.677C301.179 213.512 301.909 212.584 301.909 212.584V206.066L298.991 199.876Z" fill="#4C4981"/>
<path opacity="0.1" d="M289.233 206.066C289.233 206.066 290.605 211.167 289.726 211.714L289.233 206.066Z" fill="black"/>
<path opacity="0.1" d="M334.855 238.703C327.562 238.936 311.493 239.227 310.776 237.358C310.615 236.883 310.53 236.385 310.525 235.883L334.349 237.138L334.855 238.703Z" fill="black"/>
<path opacity="0.1" d="M336.648 284.455C336.648 284.455 336.2 285.701 335.586 287.337C332.56 287.153 328.553 286.961 324.748 286.934C323.403 286.934 322.085 286.934 320.839 286.979C318.194 287.059 315.908 287.274 314.451 287.687C312.61 288.254 310.684 288.502 308.759 288.422C308.266 286.526 307.925 285.163 307.925 285.163C307.925 285.163 316.209 284.468 321.233 284.226L321.628 281.438L336.648 284.455Z" fill="black"/>
<path d="M343.063 264.392L342.13 266.364C342.13 266.364 342 266.951 341.835 267.883C341.485 269.892 340.938 273.513 341.144 276.4C341.418 280.622 340.539 287.032 340.539 287.032C340.539 287.032 320.368 285.334 314.451 287.032C308.535 288.731 305.621 287.032 305.621 287.032C305.621 287.032 306.338 280.676 304.581 277.386C303.384 275.145 302.542 265.14 302.515 258.56C302.515 255.525 302.667 253.226 303.048 252.76C304.254 251.28 309.404 236.479 309.404 236.479L310.579 236.542L313.716 236.708L331.556 237.649L334.358 237.797L334.654 238.694L343.063 264.392Z" fill="#444053"/>
<path d="M351.942 257.811L352.108 259.568C352.108 259.568 343.273 256.691 343.722 253.154C344.17 249.618 343.722 250.016 343.722 250.016L350.822 250.617L351.942 257.811Z" fill="#4C4981"/>
<path opacity="0.1" d="M351.942 257.811L352.108 259.568C352.108 259.568 343.273 256.691 343.722 253.154C344.17 249.618 343.722 250.016 343.722 250.016L350.822 250.617L351.942 257.811Z" fill="black"/>
<path opacity="0.1" d="M295.128 207.483C296.03 208.249 297.093 208.802 298.238 209.101C297.907 209.029 297.598 208.875 297.342 208.653C296.71 208.204 296.109 207.716 295.5 207.241C295.007 206.855 294.392 206.214 293.787 206.057C294.184 206.578 294.633 207.055 295.128 207.483V207.483Z" fill="black"/>
<path opacity="0.1" d="M295.262 209.791C295.546 210.112 295.776 210.477 295.943 210.871C296.226 211.987 296.209 213.158 295.894 214.265L294.478 210.849C294.231 210.266 293.985 209.684 293.689 209.128C293.559 208.89 292.743 207.9 292.837 207.693C293.088 207.111 294.998 209.464 295.262 209.791Z" fill="black"/>
<path opacity="0.1" d="M334.784 228.707C335.749 228.59 336.652 228.168 337.361 227.501C335.904 227.685 334.524 228.259 333.089 228.559C331.758 228.868 330.361 228.74 329.109 228.192C330.758 228.998 333.027 229.025 334.784 228.707Z" fill="black"/>
<path opacity="0.1" d="M330.664 218.671C330.403 218.71 330.137 218.644 329.925 218.487C328.831 217.86 327.752 217.205 326.688 216.524C325.653 215.856 324.402 215.179 323.519 214.336C325.693 216.3 327.719 217.958 330.664 218.671Z" fill="black"/>
<path opacity="0.1" d="M333.703 230.298C334.278 230.324 334.853 230.278 335.416 230.159C335.985 230.041 336.488 229.711 336.823 229.236C336.62 229.189 336.406 229.223 336.227 229.33C334.49 230.061 332.583 230.289 330.723 229.989C331.615 230.37 332.758 230.294 333.703 230.298Z" fill="black"/>
<path opacity="0.1" d="M323.322 255.75C322.181 256.094 321.008 256.323 319.821 256.435C318.898 256.478 317.972 256.46 317.051 256.382L312.569 256.099L310.327 255.956C310.063 255.956 308.983 255.956 309.516 255.422C309.785 255.162 311.282 255.328 311.668 255.315C312.412 255.291 313.159 255.277 313.909 255.274C315.393 255.274 316.881 255.274 318.364 255.364C320.027 255.445 321.663 255.57 323.322 255.75Z" fill="black"/>
<path opacity="0.1" d="M318.127 257.968C317.365 257.937 316.383 258.389 315.599 258.488C314.721 258.592 313.837 258.626 312.954 258.591C311.207 258.549 309.481 258.197 307.858 257.551C311.278 257.726 314.707 257.829 318.127 257.968Z" fill="black"/>
<path opacity="0.1" d="M308.526 260.317C308.857 260.384 309.184 260.474 309.503 260.586C311.394 261.124 313.407 260.649 315.33 260.174C314.85 260.895 313.985 261.205 313.12 261.402C311.713 261.758 310.246 261.812 308.817 261.559C308.369 261.469 307.244 261.308 307.024 260.841C306.656 260.156 308.104 260.25 308.526 260.317Z" fill="black"/>
<path opacity="0.1" d="M319.131 263.854C319.698 263.97 320.258 264.119 320.808 264.302C322.937 264.831 325.147 264.105 327.285 263.616C329.855 263.032 332.491 262.788 335.124 262.89C334.654 262.89 333.905 263.302 333.444 263.441C332.838 263.625 332.224 263.795 331.61 263.948C330.405 264.244 329.181 264.486 327.948 264.66C325.46 265.02 322.941 265.13 320.431 264.988C319.284 264.925 317.293 265.041 316.312 264.463C317.16 263.959 318.15 263.745 319.131 263.854Z" fill="black"/>
<path opacity="0.1" d="M319.933 196.25C319.933 196.25 320.041 201.297 319.221 203.601C318.961 204.318 318.557 205.64 318.118 207.124C317.638 208.769 317.114 210.611 316.711 212.055C316.307 213.498 316.038 214.466 316.038 214.466C316.038 214.466 314.187 229.545 313.707 236.731C313.707 236.856 313.707 236.986 313.68 237.107C313.654 237.511 313.609 237.932 313.541 238.367C312.475 245.503 306.32 256.507 304.254 257.386C303.609 257.681 303.021 258.086 302.515 258.582C302.515 255.548 302.667 253.248 303.048 252.782C304.254 251.303 309.404 236.502 309.404 236.502L310.579 236.565C310.552 236.359 310.534 236.116 310.525 235.906C310.431 233.05 311.762 228.667 311.762 228.667C311.762 228.667 312.528 219.895 312.528 219.514C312.528 219.133 311.869 212.987 311.869 212.987L313.187 208.056L315.711 206.29C316.025 202.485 316.773 197.863 318.562 196.604C319.457 195.903 320.172 194.998 320.646 193.964C321 194.013 320.355 193.699 320.355 193.699L319.933 196.25Z" fill="black"/>
<path d="M320.897 193.421C320.44 193.265 319.954 193.212 319.475 193.266C318.995 193.321 318.533 193.481 318.123 193.735C316.858 194.631 314.393 194.555 313.734 194.394C313.075 194.232 306.226 193.349 305.666 193.569C305.106 193.789 304.021 192.803 303.308 194.12C302.595 195.438 302.268 196.146 301.555 196.474C300.843 196.801 299.579 197.845 299.763 198.065C299.946 198.285 297.97 199.598 297.97 199.598L301.968 212.597C301.968 212.597 299.39 229.039 298.131 230.464C296.871 231.889 285.688 250.361 289.691 253.652C292.859 256.143 296.213 258.391 299.722 260.375C300.17 260.595 301.748 257.636 303.94 256.704C306.132 255.772 312.932 243.436 313.353 236.421C313.775 229.406 315.711 213.785 315.711 213.785C315.711 213.785 318.069 205.232 318.889 202.928C319.709 200.624 319.602 195.577 319.602 195.577L320.897 193.421Z" fill="#4C4981"/>
<path opacity="0.1" d="M343.063 264.392L342.13 266.364C342.13 266.364 342 266.951 341.835 267.883C341.668 267.862 341.512 267.792 341.386 267.682C340.015 266.583 331.973 258.309 331.574 250.962C331.292 245.543 331.426 240.872 331.516 238.792C331.543 238.138 331.57 237.743 331.57 237.658C331.57 237.658 337.818 230.092 337.106 227.411C336.393 224.731 334.748 210.378 334.748 210.378L334.506 208.496L334.089 205.313L333.094 197.612L334.125 197.854C334.3 198.095 334.51 198.308 334.748 198.486L335.815 205.259L339.517 209.338L340.122 234.171L338.419 238.609C338.419 238.609 337.034 238.671 334.873 238.739H334.663L343.063 264.392Z" fill="black"/>
<path d="M346.514 223.4C346.514 223.4 344.981 222.795 344.874 223.4C344.766 224.005 344.488 225.314 344.488 225.314C344.488 225.314 344.761 228.496 343.592 229.756C342.422 231.015 342.247 236.332 342.247 236.332C342.247 236.332 340.4 241.594 341.274 243.239C341.592 243.835 342.085 246.825 342.579 250.411C342.892 252.652 343.202 255.113 343.475 257.363C343.973 261.451 344.345 264.835 344.345 264.835C344.345 264.835 343.354 268.453 341.982 267.354C340.611 266.256 332.569 257.982 332.175 250.635C331.906 245.476 332.013 240.993 332.103 238.783C332.139 237.847 332.175 237.318 332.175 237.318C332.175 237.318 338.423 229.751 337.711 227.066C336.998 224.381 335.353 210.033 335.353 210.033L335.066 207.814L334.757 205.43L334.685 204.905L333.694 197.285C333.869 197.325 340.019 198.715 340.83 199.526C341.642 200.338 346.658 201.499 346.658 201.499C347.414 201.704 348.102 202.108 348.649 202.67C349.196 203.231 349.583 203.929 349.768 204.69C349.818 204.843 349.854 205.004 349.889 205.17C350.548 208.352 350.338 208.733 350.786 209.285C351.234 209.836 346.514 223.4 346.514 223.4Z" fill="#4C4981"/>
<path opacity="0.1" d="M343.511 257.359C341.27 256.91 337.944 255.875 338.02 253.589C338.087 251.451 340.66 250.68 342.61 250.406C342.924 252.639 343.233 255.108 343.511 257.359Z" fill="black"/>
<path d="M350.463 256.22C350.373 256.413 350.015 256.579 349.504 256.727C348.305 257.012 347.087 257.211 345.86 257.323C345.86 257.323 338.239 256.718 338.347 253.262C338.428 250.783 341.87 250.124 343.802 249.976C344.23 249.936 344.659 249.918 345.089 249.922C345.089 249.922 350.79 255.512 350.463 256.22Z" fill="#AE6E79"/>
<path opacity="0.1" d="M350.463 256.22C350.374 256.413 350.015 256.579 349.504 256.727C347.518 254.069 344.748 250.658 343.39 250.357L343.802 249.976C344.23 249.936 344.659 249.918 345.089 249.922C345.089 249.922 350.79 255.512 350.463 256.22Z" fill="black"/>
<path d="M348.545 208.917L350.786 209.249C351.595 210.674 352.493 212.047 353.475 213.359C354.078 214.108 354.423 215.03 354.462 215.99C354.462 215.99 357.752 220.867 358.792 221.414C359.832 221.961 361.423 225.69 361.423 225.69C361.423 225.69 364 227.389 364 229.308C364.046 230.907 364.211 232.502 364.493 234.077C364.552 234.35 364.112 237.752 363.014 239.456C361.916 241.159 360.818 244.915 360.876 245.588C360.934 246.26 357.805 249.756 356.931 250.85C356.202 251.873 355.56 252.956 355.013 254.086L352.108 259.568C352.108 259.568 345.967 250.523 343.722 250.03C343.722 250.03 346.241 247.618 347.5 247.179C348.76 246.74 349.97 243.145 350.024 242.302C350.078 241.459 351.176 238.739 352.323 238.268C353.471 237.797 354.081 237.282 353.588 236.511C353.094 235.74 353.588 234.27 353.588 234.27C353.588 234.27 350.351 229.993 349.912 227.546C349.473 225.099 346.514 223.436 346.514 223.436L344.815 219.267L348.545 208.917Z" fill="#4C4981"/>
<path opacity="0.1" d="M356.698 229.379C357.939 228.332 359.5 227.741 361.122 227.703C360.082 227.882 358.989 228.111 358.227 228.837C357.927 229.151 357.659 229.494 357.424 229.859C357.164 230.231 355.049 232.92 354.735 232.495C354.211 231.872 356.272 229.742 356.698 229.379Z" fill="black"/>
<path opacity="0.1" d="M351.732 226.784C352.067 226.755 352.389 226.637 352.664 226.443C352.939 226.248 353.157 225.984 353.296 225.677C353.563 225.059 353.728 224.402 353.785 223.732C353.945 222.609 354.171 221.497 354.461 220.401C354.549 220.184 354.585 219.951 354.569 219.718C354.553 219.485 354.484 219.259 354.367 219.056C354.247 218.706 354.085 218.372 353.883 218.061C353.48 218.51 353.363 219.554 353.197 220.155C352.991 220.899 352.803 221.647 352.624 222.396C352.53 222.754 351.785 226.784 351.732 226.784Z" fill="black"/>
<path opacity="0.1" d="M349.791 204.654C349.57 204.943 349.316 205.205 349.033 205.434C348.137 206.147 346.949 206.748 346.837 207.873C346.868 208.238 346.822 208.606 346.702 208.953C346.415 209.446 345.712 209.401 345.151 209.307C344.679 209.264 344.225 209.097 343.838 208.823C343.251 208.321 343.197 207.424 342.749 206.792C342.477 206.466 342.133 206.207 341.744 206.035C341.355 205.864 340.932 205.784 340.508 205.802C339.669 205.775 338.836 205.963 337.998 205.999C337.459 206.026 336.919 205.99 336.388 205.891C336.213 205.865 336.04 205.829 335.868 205.784C335.494 205.692 335.128 205.567 334.775 205.412C334.592 205.339 334.414 205.255 334.241 205.161C333.68 204.873 333.16 204.511 332.695 204.085C331.875 203.332 331.193 202.292 331.26 201.176C331.301 200.49 331.61 199.858 331.709 199.181C332.045 197.245 330.758 195.416 329.364 194.031C328.809 193.48 328.217 192.946 327.661 192.386C326.796 191.588 326.112 190.612 325.657 189.526C325.283 188.37 325.161 187.147 325.299 185.94C325.425 184.716 325.459 183.485 325.402 182.256C324.989 177.899 321.269 174.559 317.549 172.744L317.383 172.659C318.487 171.392 319.845 170.373 321.37 169.667C322.894 168.961 324.55 168.584 326.23 168.562C327.91 168.54 329.576 168.872 331.119 169.537C332.662 170.202 334.047 171.185 335.184 172.422C336.321 173.659 337.184 175.122 337.717 176.715C338.25 178.308 338.442 179.996 338.278 181.668C338.115 183.34 337.6 184.959 336.769 186.419C335.937 187.879 334.807 189.147 333.452 190.14C333.412 190.279 333.376 190.418 333.345 190.553C332.484 193.995 333.053 196.084 333.694 197.236C333.869 197.276 340.019 198.666 340.83 199.477C341.642 200.288 346.658 201.449 346.658 201.449C347.42 201.652 348.113 202.057 348.665 202.621C349.216 203.185 349.605 203.888 349.791 204.654V204.654Z" fill="black"/>
<path d="M316.594 169.499C316.84 169.216 317.212 169.073 317.463 168.799C318.239 167.957 317.463 166.58 317.746 165.469C318.051 164.236 319.566 163.698 320.83 163.828C322.094 163.958 323.277 164.541 324.541 164.684C326.504 164.904 328.405 164.052 330.319 163.555C332.233 163.057 334.546 163.03 335.864 164.496C337.182 165.962 337.092 168.459 338.733 169.521C339.49 170.01 340.445 170.063 341.265 170.417C342.163 170.878 342.907 171.59 343.408 172.466C344.706 174.505 345.278 176.924 345.03 179.329C344.891 180.628 344.515 181.892 344.362 183.192C344.208 184.542 344.299 185.909 344.631 187.227C344.977 188.571 345.725 190.024 347.065 190.454C347.375 190.522 347.676 190.626 347.962 190.763C348.737 191.247 348.634 192.386 348.437 193.273L347.639 196.953C348.406 197.536 349.598 197.285 350.329 197.899C350.621 198.167 350.838 198.507 350.956 198.885C351.317 199.915 351.356 201.029 351.068 202.081C350.781 203.133 350.181 204.072 349.347 204.775C348.45 205.488 347.263 206.089 347.151 207.209C347.185 207.575 347.139 207.943 347.016 208.29C346.734 208.783 346.025 208.738 345.465 208.644C344.994 208.6 344.542 208.433 344.156 208.16C343.565 207.657 343.515 206.761 343.067 206.129C342.794 205.803 342.45 205.545 342.062 205.373C341.673 205.201 341.25 205.121 340.826 205.138C339.983 205.111 339.154 205.3 338.311 205.34C336.368 205.42 334.47 204.734 333.026 203.431C332.202 202.673 331.525 201.638 331.588 200.517C331.628 199.836 331.937 199.199 332.036 198.522C332.367 196.59 331.085 194.757 329.691 193.372C328.297 191.987 326.661 190.709 325.98 188.867C325.128 186.586 325.953 184.04 325.725 181.619C325.312 177.258 321.596 173.923 317.871 172.103C317.042 171.677 315.63 170.597 316.594 169.499Z" fill="#444053"/>
<path opacity="0.1" d="M345.909 207.142C345.317 206.636 345.268 205.744 344.82 205.111C344.547 204.785 344.203 204.526 343.815 204.354C343.426 204.181 343.003 204.1 342.579 204.116C341.736 204.089 340.902 204.278 340.064 204.318C338.113 204.404 336.208 203.716 334.761 202.404C333.936 201.651 333.264 200.611 333.327 199.495C333.367 198.809 333.676 198.173 333.775 197.5C334.111 195.564 332.825 193.731 331.431 192.346C330.037 190.96 328.405 189.683 327.719 187.841C326.872 185.564 327.719 183.018 327.468 180.593C327.051 176.231 323.336 172.896 319.615 171.076C318.746 170.651 317.334 169.57 318.297 168.472C318.539 168.19 318.911 168.046 319.162 167.773C319.938 166.935 319.162 165.554 319.449 164.447C319.504 164.226 319.6 164.018 319.732 163.833C318.795 164.008 317.939 164.537 317.71 165.433C317.437 166.545 318.203 167.921 317.428 168.763C317.177 169.037 316.805 169.18 316.558 169.458C315.594 170.556 317.006 171.641 317.876 172.063C321.601 173.882 325.317 177.222 325.729 181.579C325.958 184.004 325.133 186.55 325.985 188.831C326.666 190.669 328.302 191.969 329.696 193.336C331.09 194.703 332.386 196.55 332.04 198.486C331.851 199.142 331.702 199.808 331.592 200.481C331.529 201.597 332.206 202.637 333.031 203.39C334.475 204.703 336.38 205.391 338.329 205.304C339.172 205.264 340.001 205.08 340.844 205.103C341.269 205.087 341.691 205.168 342.08 205.34C342.468 205.513 342.812 205.772 343.085 206.098C343.533 206.73 343.583 207.626 344.174 208.128C344.561 208.4 345.012 208.566 345.483 208.608C346.043 208.711 346.752 208.747 347.034 208.258C347.135 208.059 347.178 207.835 347.16 207.613C346.709 207.568 346.277 207.406 345.909 207.142V207.142Z" fill="black"/>
<path d="M280.658 180.503H249.653V149.951H280.681L280.658 180.503ZM280.21 134.437H250.102C250.102 86.9592 295.231 89.7338 295.231 59.6971C295.231 43.1524 281.689 29.8979 265.145 29.8979C248.6 29.8979 235.063 44.1879 235.063 60.1677H204.977C204.964 52.2626 206.511 44.4325 209.529 37.1265C212.548 29.8205 216.98 23.1823 222.57 17.5925C228.159 12.0027 234.798 7.57132 242.104 4.55242C249.41 1.53352 257.24 -0.0134916 265.145 8.86381e-05C298.377 8.86381e-05 325.312 26.5137 325.312 59.6971C325.312 97.2553 280.188 101.532 280.188 134.437H280.21Z" fill="#48BB78"/>
<path opacity="0.5" d="M126.019 171.404H118.022V163.506H126.019V171.404ZM125.898 159.525H118.144C118.144 147.288 129.775 148.001 129.775 140.251C129.771 139.237 129.567 138.233 129.175 137.298C128.783 136.363 128.211 135.514 127.491 134.8C126.771 134.086 125.917 133.521 124.978 133.138C124.04 132.754 123.035 132.559 122.021 132.563C119.973 132.611 118.023 133.449 116.581 134.904C115.138 136.358 114.315 138.315 114.284 140.363H106.53C106.581 136.293 108.23 132.407 111.12 129.541C114.011 126.676 117.911 125.061 121.981 125.045C126.051 125.029 129.965 126.614 132.877 129.456C135.79 132.299 137.469 136.173 137.552 140.242C137.53 149.924 125.898 151.026 125.898 159.507V159.525Z" fill="#48BB78"/>
<path opacity="0.5" d="M186.568 226.273H178.571V218.397H186.568V226.273ZM186.451 214.399H178.697C178.697 202.158 190.328 202.875 190.328 195.125C190.324 194.111 190.12 193.108 189.728 192.173C189.336 191.238 188.764 190.389 188.044 189.676C187.323 188.962 186.47 188.398 185.531 188.014C184.593 187.631 183.588 187.436 182.574 187.442C180.517 187.479 178.556 188.314 177.105 189.772C175.653 191.229 174.826 193.194 174.797 195.25H167.042C167.094 191.18 168.742 187.294 171.633 184.429C174.523 181.563 178.424 179.949 182.494 179.933C186.564 179.917 190.477 181.501 193.39 184.344C196.303 187.186 197.982 191.06 198.065 195.129C198.079 204.811 186.451 205.918 186.451 214.399Z" fill="#48BB78"/>
<path opacity="0.5" d="M223.386 129.139H217.59V123.442H223.386V129.139ZM223.301 120.528H217.68C217.68 111.662 226.112 112.177 226.112 106.565C226.108 105.831 225.96 105.104 225.675 104.427C225.391 103.749 224.976 103.135 224.454 102.618C223.932 102.101 223.313 101.692 222.633 101.414C221.953 101.136 221.225 100.995 220.491 100.998C219.003 101.028 217.585 101.635 216.537 102.69C215.488 103.746 214.89 105.167 214.87 106.655H209.249C209.237 103.673 210.41 100.809 212.51 98.6926C214.609 96.576 217.464 95.3801 220.446 95.3683C223.427 95.3564 226.291 96.5294 228.408 98.6292C230.525 100.729 231.721 103.584 231.733 106.565C231.724 113.58 223.301 114.383 223.301 120.528V120.528Z" fill="#48BB78"/>
<path opacity="0.5" d="M322.376 137.18H319.1V133.953H322.376V137.18ZM322.327 132.317H319.131C319.131 127.306 323.896 127.597 323.896 124.423C323.896 124.008 323.814 123.597 323.654 123.214C323.494 122.831 323.259 122.484 322.964 122.192C322.669 121.9 322.319 121.67 321.934 121.514C321.549 121.359 321.137 121.281 320.722 121.286C319.882 121.303 319.081 121.646 318.488 122.242C317.895 122.838 317.557 123.641 317.544 124.482H314.366C314.403 122.825 315.086 121.249 316.268 120.088C317.45 118.927 319.039 118.274 320.696 118.268C322.353 118.261 323.947 118.902 325.138 120.054C326.329 121.205 327.024 122.776 327.074 124.432C327.092 128.372 322.327 128.843 322.327 132.317V132.317Z" fill="#48BB78"/>
<path opacity="0.5" d="M372.472 283.966H369.195V280.739H372.472V283.966ZM372.423 279.103H369.245C369.245 274.087 374.014 274.383 374.014 271.209C374.008 270.372 373.67 269.571 373.074 268.983C372.478 268.395 371.673 268.067 370.836 268.072C369.995 268.088 369.193 268.43 368.6 269.027C368.007 269.623 367.669 270.427 367.658 271.268H364.48C364.517 269.611 365.199 268.035 366.382 266.874C367.564 265.714 369.153 265.06 370.81 265.054C372.466 265.048 374.06 265.688 375.252 266.84C376.443 267.991 377.137 269.562 377.187 271.218C377.205 275.176 372.441 275.629 372.441 279.103H372.423Z" fill="#48BB78"/>
</g>
<defs>
<linearGradient id="paint0_linear" x1="312.515" y1="372.96" x2="312.515" y2="162.847" gradientUnits="userSpaceOnUse">
<stop stop-color="#808080" stop-opacity="0.25"/>
<stop offset="0.54" stop-color="#808080" stop-opacity="0.12"/>
<stop offset="1" stop-color="#808080" stop-opacity="0.1"/>
</linearGradient>
<clipPath id="clip0">
<rect width="450" height="375.081" fill="white"/>
</clipPath>
</defs>
</svg>
