<svg width="24" height="24" viewBox="0 0 24 24" fill="none" xmlns="http://www.w3.org/2000/svg">
<path d="M12.0002 3.6V6C10.812 5.99787 9.64985 6.34862 8.66118 7.00776C7.67251 7.6669 6.90182 8.60476 6.44681 9.70244C5.9918 10.8001 5.87296 12.0082 6.10536 13.1735C6.33776 14.3388 6.91094 15.4088 7.75222 16.248L6.06022 17.94C4.88534 16.7652 4.08522 15.2684 3.76105 13.6389C3.43688 12.0094 3.60323 10.3204 4.23906 8.78538C4.87488 7.2504 5.95163 5.93846 7.33311 5.01546C8.7146 4.09247 10.3388 3.59988 12.0002 3.6V3.6ZM17.9402 6.06C19.1151 7.23476 19.9152 8.73155 20.2394 10.3611C20.5636 11.9906 20.3972 13.6796 19.7614 15.2146C19.1256 16.7496 18.0488 18.0615 16.6673 18.9845C15.2858 19.9075 13.6617 20.4001 12.0002 20.4V18C13.1885 18.0021 14.3506 17.6514 15.3393 16.9922C16.3279 16.3331 17.0986 15.3952 17.5536 14.2976C18.0086 13.1999 18.1275 11.9918 17.8951 10.8265C17.6627 9.66121 17.0895 8.59115 16.2482 7.752L17.9402 6.06V6.06ZM12.0002 24L7.20022 19.2L12.0002 14.4V24ZM12.0002 9.6V0L16.8002 4.8L12.0002 9.6Z" fill="#606F7B"/>
</svg>
