<svg width="450" height="471" viewBox="0 0 450 471" fill="none" xmlns="http://www.w3.org/2000/svg">
<g clip-path="url(#clip0)">
<path d="M174.075 470.878C270.214 470.878 348.15 457.109 348.15 440.125C348.15 423.141 270.214 409.373 174.075 409.373C77.9361 409.373 0 423.141 0 440.125C0 457.109 77.9361 470.878 174.075 470.878Z" fill="#3F3D56"/>
<path d="M279.875 340.251C373.832 340.251 450 264.083 450 170.125C450 76.1677 373.832 0 279.875 0C185.917 0 109.749 76.1677 109.749 170.125C109.749 264.083 185.917 340.251 279.875 340.251Z" fill="#3F3D56"/>
<path opacity="0.05" d="M279.875 310.569C357.44 310.569 420.319 247.69 420.319 170.125C420.319 92.5603 357.44 29.6814 279.875 29.6814C202.31 29.6814 139.431 92.5603 139.431 170.125C139.431 247.69 202.31 310.569 279.875 310.569Z" fill="black"/>
<path opacity="0.05" d="M279.875 285.232C343.446 285.232 394.981 233.697 394.981 170.125C394.981 106.554 343.446 55.0193 279.875 55.0193C216.303 55.0193 164.769 106.554 164.769 170.125C164.769 233.697 216.303 285.232 279.875 285.232Z" fill="black"/>
<path opacity="0.05" d="M279.875 252.654C325.454 252.654 362.404 215.705 362.404 170.125C362.404 124.546 325.454 87.5964 279.875 87.5964C234.295 87.5964 197.346 124.546 197.346 170.125C197.346 215.705 234.295 252.654 279.875 252.654Z" fill="black"/>
<path d="M111.256 185.351C111.256 185.351 97.8807 222.999 103.825 236.375C109.77 249.75 119.182 262.63 119.182 262.63C119.182 262.63 115.714 187.827 111.256 185.351Z" fill="#D0CDE1"/>
<path opacity="0.1" d="M111.256 185.351C111.256 185.351 97.8807 222.999 103.825 236.375C109.77 249.75 119.182 262.63 119.182 262.63C119.182 262.63 115.714 187.827 111.256 185.351Z" fill="black"/>
<path d="M120.668 272.537C120.668 272.537 119.677 281.95 119.182 282.445C118.687 282.94 119.677 283.931 119.182 285.417C118.687 286.903 118.191 288.885 119.182 289.38C120.173 289.876 113.733 333.469 113.733 333.469C113.733 333.469 97.8807 354.275 104.321 386.97L106.302 420.161C106.302 420.161 121.659 421.151 121.659 415.702C121.659 415.702 120.668 409.262 120.668 406.29C120.668 403.318 123.145 403.318 121.659 401.832C120.173 400.345 120.173 399.355 120.173 399.355C120.173 399.355 122.65 397.373 122.154 396.878C121.659 396.382 126.613 361.21 126.613 361.21C126.613 361.21 132.062 355.761 132.062 352.789V349.817C132.062 349.817 134.539 343.377 134.539 342.881C134.539 342.386 147.914 312.168 147.914 312.168L153.363 333.965L159.308 365.173C159.308 365.173 162.28 393.41 168.225 404.309C168.225 404.309 178.628 439.976 178.628 438.985C178.628 437.994 195.966 435.517 195.471 431.059C194.975 426.601 185.068 364.183 185.068 364.183L187.544 271.547L120.668 272.537Z" fill="#2F2E41"/>
<path d="M107.293 417.684C107.293 417.684 93.9176 443.939 102.834 444.93C111.751 445.92 115.219 445.92 119.182 441.957C121.349 439.791 125.736 436.884 129.269 434.694C131.362 433.417 133.053 431.576 134.147 429.382C135.242 427.188 135.696 424.73 135.458 422.29C135.197 419.867 134.291 417.87 132.062 417.684C126.117 417.188 119.182 411.739 119.182 411.739L107.293 417.684Z" fill="#2F2E41"/>
<path d="M181.105 437.004C181.105 437.004 167.729 463.259 176.646 464.25C185.563 465.24 189.031 465.24 192.994 461.277C195.16 459.111 199.548 456.204 203.08 454.014C205.173 452.737 206.864 450.896 207.959 448.702C209.054 446.508 209.508 444.05 209.27 441.61C209.008 439.186 208.103 437.189 205.874 437.004C199.929 436.508 192.994 431.059 192.994 431.059L181.105 437.004Z" fill="#2F2E41"/>
<path d="M166.968 142.385C178.469 142.385 187.792 133.061 187.792 121.561C187.792 110.06 178.469 100.737 166.968 100.737C155.467 100.737 146.144 110.06 146.144 121.561C146.144 133.061 155.467 142.385 166.968 142.385Z" fill="#FFB8B8"/>
<path d="M153.582 128.403C153.582 128.403 138.707 155.771 137.517 155.771C136.327 155.771 164.291 164.696 164.291 164.696C164.291 164.696 172.026 138.517 173.216 136.137L153.582 128.403Z" fill="#FFB8B8"/>
<path d="M176.398 158.352C176.398 158.352 146.676 142.005 143.703 142.5C140.731 142.995 109.027 170.737 109.522 182.13C110.017 193.524 113.981 212.349 113.981 212.349C113.981 212.349 115.467 264.859 118.439 265.354C121.411 265.85 117.944 274.767 118.934 274.767C119.925 274.767 188.288 274.767 188.783 273.28C189.278 271.794 176.398 158.352 176.398 158.352Z" fill="#D0CDE1"/>
<path d="M192.994 276.005C192.994 276.005 202.406 304.737 194.48 303.746C186.554 302.756 183.086 278.977 183.086 278.977L192.994 276.005Z" fill="#FFB8B8"/>
<path d="M167.729 156.619C167.729 156.619 149.4 160.582 152.372 185.351C155.345 210.12 160.794 234.889 160.794 234.889L179.123 275.014L181.104 282.445L194.48 278.977L184.572 221.513C184.572 221.513 181.104 160.086 176.646 158.105C173.835 156.906 170.777 156.397 167.729 156.619V156.619Z" fill="#D0CDE1"/>
<path opacity="0.1" d="M156.583 234.145L179.371 274.766L160.172 231.963L156.583 234.145Z" fill="black"/>
<path d="M187.7 115.429L187.769 113.838L190.934 114.625C190.9 114.115 190.756 113.617 190.511 113.168C190.266 112.718 189.927 112.327 189.516 112.021L192.888 111.833C190.058 107.812 186.443 104.406 182.261 101.822C178.079 99.237 173.416 97.5268 168.554 96.7944C161.261 95.7373 153.139 97.267 148.138 102.68C145.712 105.305 144.188 108.644 143.104 112.051C141.106 118.324 140.7 125.803 144.864 130.902C149.096 136.085 156.489 137.1 163.149 137.742C165.493 137.967 167.949 138.177 170.121 137.268C170.362 134.777 170.043 132.264 169.187 129.912C168.831 129.184 168.66 128.379 168.691 127.569C168.987 125.587 171.631 125.088 173.616 125.356C175.602 125.624 177.989 126.033 179.294 124.513C180.192 123.465 180.139 121.94 180.258 120.565C180.583 116.822 187.666 116.214 187.7 115.429Z" fill="#2F2E41"/>
<path d="M315.423 444.357C328.823 444.357 339.687 433.494 339.687 420.094C339.687 406.694 328.823 395.831 315.423 395.831C302.023 395.831 291.16 406.694 291.16 420.094C291.16 433.494 302.023 444.357 315.423 444.357Z" fill="#48BB78"/>
<path d="M30.4701 435.893C43.8704 435.893 54.7334 425.03 54.7334 411.63C54.7334 398.23 43.8704 387.367 30.4701 387.367C17.0698 387.367 6.20679 398.23 6.20679 411.63C6.20679 425.03 17.0698 435.893 30.4701 435.893Z" fill="#48BB78"/>
<path d="M30.4702 396.959C40.1308 396.959 47.9624 389.128 47.9624 379.467C47.9624 369.806 40.1308 361.975 30.4702 361.975C20.8095 361.975 12.978 369.806 12.978 379.467C12.978 389.128 20.8095 396.959 30.4702 396.959Z" fill="#48BB78"/>
<path d="M30.4702 364.796C37.3261 364.796 42.884 359.238 42.884 352.383C42.884 345.527 37.3261 339.969 30.4702 339.969C23.6142 339.969 18.0564 345.527 18.0564 352.383C18.0564 359.238 23.6142 364.796 30.4702 364.796Z" fill="#48BB78"/>
</g>
<defs>
<clipPath id="clip0">
<rect width="450" height="470.878" fill="white"/>
</clipPath>
</defs>
</svg>
