<svg width="1200" height="80" viewBox="0 0 1200 80" fill="none" xmlns="http://www.w3.org/2000/svg">
<path fill-rule="evenodd" clip-rule="evenodd" d="M0 57.1429L33 53.3333C67 49.5238 133 41.9048 200 34.2857C267 26.6667 333 19.0476 400 22.8571C467 26.6667 533 41.9048 600 38.0952C667 34.2857 733 11.4286 800 9.52381C867 7.61905 933 26.6667 1000 28.5714C1067 30.4762 1133 15.2381 1167 7.61905L1200 0V80H1167C1133 80 1067 80 1000 80C933 80 867 80 800 80C733 80 667 80 600 80C533 80 467 80 400 80C333 80 267 80 200 80C133 80 67 80 33 80H0V57.1429Z" fill="#F0FFF4"/>
</svg>
