<svg width="1200" height="80" viewBox="0 0 1200 80" fill="none" xmlns="http://www.w3.org/2000/svg">
<path fill-rule="evenodd" clip-rule="evenodd" d="M0 0L33 8.33333C67 16.6667 133 33.3333 200 38.3333C267 43.3333 333 36.6667 400 26.6667C467 16.6667 533 3.33333 600 3.33333C667 3.33333 733 16.6667 800 31.6667C867 46.6667 933 63.3333 1000 58.3333C1067 53.3333 1133 26.6667 1167 13.3333L1200 0V80H1167C1133 80 1067 80 1000 80C933 80 867 80 800 80C733 80 667 80 600 80C533 80 467 80 400 80C333 80 267 80 200 80C133 80 67 80 33 80H0V0Z" fill="#F0FFF4"/>
</svg>
