<svg width="1200" height="80" viewBox="0 0 1200 80" fill="none" xmlns="http://www.w3.org/2000/svg">
<path fill-rule="evenodd" clip-rule="evenodd" d="M0 18.4151H29C57 18.4151 114 18.4151 171 29.1572C229 39.8993 286 61.3835 343 72.1256C400 82.8678 457 82.8678 514 70.5911C571 58.3143 629 33.7609 686 33.7609C743 33.7609 800 58.3143 857 65.9873C914 73.6602 971 64.4527 1029 56.7798C1086 49.1068 1143 42.9685 1171 39.8993L1200 36.8301V1.03686e-06H1171C1143 1.03686e-06 1086 1.03686e-06 1029 1.03686e-06C971 1.03686e-06 914 1.03686e-06 857 1.03686e-06C800 1.03686e-06 743 1.03686e-06 686 1.03686e-06C629 1.03686e-06 571 1.03686e-06 514 1.03686e-06C457 1.03686e-06 400 1.03686e-06 343 1.03686e-06C286 1.03686e-06 229 1.03686e-06 171 1.03686e-06C114 1.03686e-06 57 1.03686e-06 29 1.03686e-06H0V18.4151Z" fill="#F0FFF4"/>
</svg>
