<svg width="1200" height="80" viewBox="0 0 1200 80" fill="none" xmlns="http://www.w3.org/2000/svg">
<path fill-rule="evenodd" clip-rule="evenodd" d="M0 61.1314L29 62.8295C57 64.5276 114 67.9238 171 73.0181C229 78.1124 286 84.9048 343 74.7162C400 64.5276 457 37.3581 514 32.2638C571 27.1695 629 44.1505 686 45.8486C743 47.5467 800 33.9619 857 30.5657C914 27.1695 971 33.9619 1029 40.7543C1086 47.5467 1143 54.339 1171 57.7352L1200 61.1314V1.88927e-06H1171C1143 1.88927e-06 1086 1.88927e-06 1029 1.88927e-06C971 1.88927e-06 914 1.88927e-06 857 1.88927e-06C800 1.88927e-06 743 1.88927e-06 686 1.88927e-06C629 1.88927e-06 571 1.88927e-06 514 1.88927e-06C457 1.88927e-06 400 1.88927e-06 343 1.88927e-06C286 1.88927e-06 229 1.88927e-06 171 1.88927e-06C114 1.88927e-06 57 1.88927e-06 29 1.88927e-06H0V61.1314Z" fill="#F0FFF4"/>
</svg>
