<svg width="1200" height="80" viewBox="0 0 1200 80" fill="none" xmlns="http://www.w3.org/2000/svg">
<path fill-rule="evenodd" clip-rule="evenodd" d="M0 43.7535L25 40.7329C50 37.7124 100 31.6713 150 24.1199C200 16.5685 250 7.50691 300 2.97609C350 -1.55473 400 -1.55473 450 7.50691C500 16.5685 550 34.6918 600 48.2843C650 61.8767 700 70.9384 750 66.4075C800 61.8767 850 43.7535 900 30.161C950 16.5685 1000 7.50691 1050 12.0377C1100 16.5685 1150 34.6918 1175 43.7535L1200 52.8151V80H1175C1150 80 1100 80 1050 80C1000 80 950 80 900 80C850 80 800 80 750 80C700 80 650 80 600 80C550 80 500 80 450 80C400 80 350 80 300 80C250 80 200 80 150 80C100 80 50 80 25 80H0V43.7535Z" fill="#F0FFF4"/>
</svg>
